<svg width="40" height="22" viewBox="0 0 40 22" fill="none" xmlns="http://www.w3.org/2000/svg">
<path d="M4.21262 0C1.98161 0 0.166321 1.81304 0.166321 4.04128V17.0773L3.40398 21.7275H16.4873V19.7363L18.3337 21.7275H40V0H4.21262ZM39.0628 20.7914H18.7432L15.5501 17.3497V20.7914H3.89435L1.10351 16.7843V4.04128C1.10351 2.32765 2.49996 0.936029 4.21262 0.936029H39.0628V20.7914Z" fill="white"/>
<path d="M14.4335 6.10376H22.5811V8.49043H16.8242V13.2607H22.5811V15.6473H16.8242L14.4335 13.2607V6.10376Z" fill="white"/>
<path d="M35.1803 3.06592H32.7906V5.45258H35.1803V3.06592Z" fill="white"/>
<path d="M7.37663 8.49048V13.2607H11.285V10.874H13.6747V15.6484H4.98596V8.72656C4.98596 7.278 6.1616 6.10278 7.613 6.10278H11.285H13.6747V8.49048H7.37663Z" fill="white"/>
<path d="M35.1834 6.10278V15.6494H32.7896V8.48841H28.8791V15.6494H26.4905V8.48841H23.341V6.10278H35.1834Z" fill="white"/>
</svg>
