<svg width="91" height="90" viewBox="0 0 91 90" fill="none" xmlns="http://www.w3.org/2000/svg">
<path d="M90.5863 46.7636V43.2364C90.5863 42.7909 90.2248 42.4288 89.7799 42.4288H84.5277C84.4206 40.7911 84.2153 39.1817 83.9132 37.6052L88.9869 36.2715C89.4184 36.1582 89.6758 35.7172 89.5627 35.285L88.6685 31.8741C88.5554 31.442 88.115 31.1842 87.6835 31.2974L82.6113 32.6311C82.0772 31.0277 81.4493 29.469 80.7202 27.9669L85.2716 25.3711C85.6585 25.1506 85.7939 24.6573 85.5737 24.2699L83.8314 21.2047C83.6112 20.8173 83.1187 20.6817 82.7318 20.9022L78.173 23.5025C77.1969 22.0243 76.1212 20.6206 74.9592 19.2928L78.6744 15.572C78.9898 15.256 78.9898 14.7449 78.6744 14.429L76.1837 11.9345C75.8683 11.6186 75.3579 11.6186 75.0425 11.9345L71.3273 15.6554C70.1087 14.5855 68.8291 13.5826 67.4826 12.6707L70.1251 8.13765C70.3497 7.7517 70.2203 7.25697 69.8349 7.03196L66.7937 5.25274C66.4084 5.02772 65.9144 5.15737 65.6897 5.54331L63.0443 10.0793C61.5088 9.31039 59.9153 8.6428 58.2712 8.07953L59.6385 3.00858C59.7546 2.57793 59.5001 2.13387 59.0702 2.01764L55.6704 1.09822C55.2404 0.981992 54.797 1.23681 54.6809 1.66746L53.315 6.73393C51.6531 6.40163 49.9524 6.18109 48.222 6.06933V0.809136C48.222 0.363584 47.8605 0.0014801 47.4156 0.0014801H43.8938C43.4489 0.0014801 43.0874 0.363584 43.0874 0.809136V6.06933C41.4522 6.17662 39.8453 6.38226 38.2711 6.68476L36.9395 1.60338C36.8264 1.17124 36.386 0.913446 35.9545 1.0267L32.5488 1.92227C32.1173 2.03552 31.8599 2.4766 31.973 2.90874L33.3046 7.98863C31.7036 8.52359 30.1473 9.15243 28.6461 9.8826L26.0542 5.32426C25.834 4.93683 25.3415 4.80122 24.9546 5.02176L21.8941 6.76672C21.5072 6.98726 21.3718 7.48049 21.592 7.86793L24.1884 12.4337C22.7124 13.4113 21.3108 14.4886 19.9851 15.6524L16.2699 11.9315C15.9545 11.6156 15.4441 11.6156 15.1287 11.9315L12.638 14.4275C12.3226 14.7434 12.3226 15.2546 12.638 15.5705L16.3532 19.2913C15.2849 20.5118 14.2836 21.7933 13.3715 23.1419L8.84542 20.4954C8.46006 20.2704 7.96608 20.4 7.74141 20.786L5.96489 23.8318C5.74022 24.2178 5.86967 24.7125 6.25503 24.9375L10.7841 27.587C10.0164 29.1248 9.34981 30.7207 8.78739 32.3673L3.72415 30.9979C3.29415 30.8817 2.85076 31.1365 2.73471 31.5671L1.81669 34.9721C1.70064 35.4027 1.95506 35.8468 2.38506 35.963L7.44384 37.331C7.11204 38.9955 6.89184 40.6987 6.78024 42.4317H1.52804C1.08317 42.4317 0.721615 42.7938 0.721615 43.2394V46.7666C0.721615 47.2121 1.08317 47.5742 1.52804 47.5742H6.78024C6.88737 49.2119 7.0927 50.8212 7.39474 52.3978L2.32108 53.7315C1.8896 53.8447 1.63219 54.2858 1.74527 54.7179L2.63949 58.1289C2.75257 58.561 3.19298 58.8188 3.62446 58.7056L8.6996 57.3704C9.23375 58.9738 9.86164 60.5325 10.5907 62.0345L6.03928 64.6304C5.65244 64.8509 5.51704 65.3441 5.73724 65.7316L7.47955 68.7968C7.69975 69.1842 8.19224 69.3198 8.57909 69.0993L13.1379 66.499C14.114 67.9772 15.1897 69.3809 16.3517 70.7086L12.6365 74.4295C12.3211 74.7454 12.3211 75.2565 12.6365 75.5725L15.1272 78.067C15.4427 78.3829 15.953 78.3829 16.2684 78.067L19.9837 74.3461C21.2022 75.416 22.4818 76.4189 23.8283 77.3308L21.1859 81.8638C20.9612 82.2498 21.0906 82.7445 21.476 82.9695L24.5172 84.7487C24.9026 84.9738 25.3965 84.8441 25.6212 84.4582L28.2667 79.9222C29.8021 80.6911 31.3957 81.3587 33.0398 81.9219L31.6724 86.9929C31.5563 87.4235 31.8108 87.8676 32.2408 87.9838L35.6406 88.9033C36.0706 89.0195 36.514 88.7647 36.63 88.334L37.8039 83.9828C37.9126 83.579 38.3113 83.3316 38.7234 83.4046C39.9123 83.6177 41.1219 83.7742 42.3464 83.877C42.766 83.9128 43.0919 84.2585 43.0919 84.6802V89.1923C43.0919 89.6379 43.4534 90 43.8983 90H47.4201C47.865 90 48.2265 89.6379 48.2265 89.1923V84.6802C48.2265 84.2585 48.5524 83.9128 48.9719 83.877C50.0997 83.7816 51.2127 83.6401 52.3107 83.4508C52.7258 83.3793 53.1261 83.6311 53.2332 84.0394L54.3759 88.3996C54.489 88.8317 54.9294 89.0895 55.3609 88.9763L58.7666 88.0807C59.1981 87.9675 59.4555 87.5264 59.3424 87.0942L58.0108 82.0143C59.6117 81.4794 61.1681 80.8505 62.6693 80.1204L65.6599 85.3806L69.4213 83.2363C69.8081 83.0157 69.9435 82.5225 69.7233 82.135L67.127 77.5692C68.603 76.5917 70.0045 75.5143 71.3302 74.3505L75.0455 78.0714C75.3609 78.3873 75.8712 78.3873 76.1867 78.0714L78.6774 75.5769C78.9928 75.261 78.9928 74.7499 78.6774 74.434L74.9622 70.7131C76.0304 69.4927 77.0318 68.2112 77.9439 66.8626L82.47 69.5091C82.8553 69.7341 83.3493 69.6044 83.574 69.2185L85.3505 66.1727C85.5752 65.7867 85.4457 65.292 85.0604 65.067L80.5313 62.4175C81.299 60.8797 81.9656 59.2837 82.528 57.6371L87.5912 59.0066C88.0212 59.1228 88.4646 58.868 88.5807 58.4373L89.4987 55.0324C89.6148 54.6017 89.3603 54.1577 88.9303 54.0414L83.8716 52.6735C84.2034 51.009 84.4221 49.3058 84.5351 47.5727H89.7874C90.2263 47.5712 90.5863 47.2106 90.5863 46.7636Z" fill="#36AA3B"/>
<path d="M45.6823 12.2907C27.6433 12.2758 13.007 26.9045 12.9921 44.9694C12.9773 63.0359 27.5882 77.6944 45.6272 77.7093C63.6662 77.7242 78.3025 63.091 78.3173 45.0246C78.3322 26.9596 63.7213 12.3056 45.6823 12.2907ZM45.6808 14.4767C34.2003 14.4663 24.1706 20.6816 18.7696 29.9414C23.6543 20.0051 33.873 13.1743 45.6823 13.1847C57.4663 13.1952 67.6508 20.017 72.5355 29.9295C67.1389 20.6906 57.1359 14.4856 45.6808 14.4767Z" fill="#FFF212"/>
<path d="M72.5355 29.9295C67.1389 20.6906 57.1359 14.4856 45.6808 14.4767C34.2003 14.4663 24.1705 20.6816 18.7696 29.9414C23.6543 20.0051 33.873 13.1743 45.6823 13.1848C57.4663 13.1952 67.6508 20.017 72.5355 29.9295Z" fill="white"/>
<path d="M90.6578 44.2467C90.6206 44.1946 90.5745 44.1364 90.5328 44.0947C90.4956 44.053 90.454 44.0157 90.4123 43.98L90.3706 43.9427C90.2918 43.8742 90.1936 43.8071 90.0879 43.749C89.7279 43.5344 89.3053 43.4197 88.856 43.4197H53.4698C52.5459 43.4197 51.726 43.9159 51.366 44.6178V38.7034C51.366 38.3636 51.2931 38.0179 51.1368 37.7259L49.3097 34.0974C49.1639 33.8157 48.9125 33.5952 48.6253 33.4909V8.00949C48.6253 7.77405 48.5732 7.54457 48.4839 7.32403L48.3381 6.98427L48.228 6.7235L48.0554 6.32563L47.7995 5.72362L46.3801 2.37229C46.2492 2.08469 45.962 1.88651 45.6436 1.88651C45.3192 1.9029 45.0425 2.07426 44.913 2.37229L43.2005 6.23622L42.8821 6.96788L42.7303 7.30316C42.6262 7.52817 42.589 7.77405 42.589 8.01992V33.4745C42.281 33.5952 42.0414 33.8142 41.8837 34.0974L40.067 37.7259C39.9108 38.0194 39.8379 38.3636 39.8379 38.7034V44.5075C39.759 44.3614 39.6653 44.2199 39.5448 44.0947C39.1475 43.6656 38.5375 43.4197 37.8739 43.4197H2.28836C1.79736 43.4197 1.31231 43.5612 0.920998 43.8175C0.816847 43.8801 0.72311 43.9532 0.638301 44.0262C0.538614 44.1156 0.440414 44.2199 0.351141 44.3346C0.142839 44.6222 0.0223205 44.9471 0.00149028 45.2809C-0.0148764 45.6683 0.111593 46.0602 0.361556 46.3895L0.471659 46.5147C0.523735 46.5728 0.586226 46.625 0.638301 46.6712C0.727574 46.7442 0.825774 46.8127 0.920998 46.8694C1.2766 47.078 1.69916 47.1882 2.1485 47.1882H2.78531C2.67074 47.3551 2.58147 47.5444 2.52939 47.7366C2.50856 47.826 2.4922 47.9244 2.48178 47.9929C2.47137 48.0406 2.47137 48.0719 2.47137 48.0823C2.46541 48.1613 2.47137 48.2343 2.47732 48.3178C2.51451 48.6888 2.67074 49.039 2.94153 49.3326C3.0561 49.4473 3.18108 49.5516 3.29714 49.6261C3.68398 49.8928 4.15267 50.0344 4.66003 50.0344L5.99168 50.0299C5.80421 50.3011 5.70452 50.5992 5.69411 50.9032C5.67328 51.3577 5.83992 51.7972 6.16428 52.143C6.38894 52.3784 6.68652 52.5617 7.0198 52.6705C7.11354 52.7077 7.20728 52.7286 7.31292 52.7494C7.4126 52.7763 7.5108 52.7867 7.59561 52.7912C7.67893 52.8016 7.75779 52.8016 7.84111 52.8016H8.46751C8.28004 53.0788 8.16993 53.3872 8.1491 53.7016C8.12827 54.1517 8.29491 54.5913 8.62374 54.9459C9.02546 55.3691 9.63698 55.615 10.2946 55.615H13.2034C13.0055 55.8922 12.8954 56.211 12.8791 56.5359C12.8523 56.98 13.0249 57.43 13.3492 57.7757C13.7614 58.2048 14.3729 58.4448 15.0201 58.4448H18.9675C18.7949 58.7115 18.6907 59.0095 18.6743 59.3239C18.6535 59.7635 18.8202 60.2136 19.1445 60.5637C19.5567 60.9869 20.1682 61.2283 20.8199 61.2283H25.9724C25.7849 61.4995 25.6748 61.814 25.6599 62.1224C25.6331 62.5725 25.8013 63.012 26.1241 63.3622C26.5318 63.7959 27.1418 64.0417 27.7995 64.0417H33.6945C33.507 64.3129 33.4013 64.6169 33.3865 64.9358C33.3656 65.4007 33.5323 65.8403 33.8566 66.1756C34.2747 66.6048 34.8848 66.8506 35.532 66.8506H39.8394V70.1975L37.6046 76.8227L37.5213 77.0685L37.4424 77.3084L33.9816 87.583C33.8983 87.8124 34.0129 88.0687 34.242 88.1626L36.0587 88.8734L36.3295 88.9733L36.5021 89.0358C36.5274 89.0463 36.5601 89.0567 36.5854 89.0671C36.6226 89.0731 36.6538 89.0776 36.6747 89.0776C36.8309 89.0776 36.9722 88.9986 37.0615 88.869L40.0581 84.2152L40.2039 83.9798L40.3601 83.7399L40.6056 83.3584H50.6354L50.8541 83.7041L51.0104 83.9396L51.1621 84.1795L53.815 88.3161L54.1751 88.8704C54.2227 88.939 54.2852 88.9956 54.3581 89.0269C54.4265 89.0642 54.4935 89.0791 54.556 89.0791C54.6244 89.0791 54.6765 89.0627 54.733 89.0373L54.8059 89.0105L56.9887 88.1641C57.2237 88.0702 57.3383 87.8139 57.2594 87.5845L53.7778 77.2578L53.699 77.0119L53.6156 76.766L51.366 70.0887V66.8521H55.5216C56.7327 66.8521 57.7564 66.0102 57.8085 64.9805C57.8248 64.6512 57.74 64.3263 57.563 64.0447H61.8183C62.9193 64.0447 63.8909 63.3443 64.068 62.4294C64.0888 62.3668 64.0992 62.3147 64.1096 62.2565L64.126 62.1671C64.1424 61.8378 64.0635 61.5234 63.8909 61.2313H69.5865C69.9525 61.2313 70.3171 61.1523 70.631 61.0018C71.3987 60.7038 71.921 60.0496 71.9626 59.3344C71.9686 59.0155 71.8897 58.707 71.7276 58.4299H75.4606C75.5648 58.4239 75.6689 58.4194 75.7478 58.3986C75.8207 58.3926 75.8936 58.3777 75.9621 58.3613C77.0214 58.2197 77.8204 57.4568 77.868 56.5463C77.8829 56.217 77.7951 55.8922 77.6285 55.6209H80.7143C81.9255 55.6209 82.9491 54.785 83.0012 53.7598C83.0176 53.42 82.9283 53.0952 82.7557 52.8076H83.6588C83.7585 52.8016 83.8523 52.7971 83.9356 52.7807C84.995 52.6287 85.7939 51.8598 85.8356 50.9449C85.8564 50.62 85.7672 50.2907 85.6005 50.0091H86.6182C87.261 50.0091 87.871 49.7796 88.2891 49.3817C88.6239 49.1046 88.853 48.7335 88.9319 48.3461C88.9527 48.2626 88.9587 48.1896 88.9631 48.1062V48.0481C88.9631 47.9542 88.9572 47.8648 88.9468 47.7605C88.9096 47.5667 88.8366 47.373 88.7384 47.1957C89.2294 47.1897 89.71 47.0497 90.0909 46.8038C90.1951 46.7412 90.2888 46.6682 90.3736 46.5847C90.4778 46.4953 90.5671 46.397 90.6608 46.2763C90.8691 45.9887 90.9851 45.6638 91 45.3405C91.0179 44.9411 90.8929 44.5552 90.6578 44.2467ZM39.8379 82.8458L39.2056 83.8233L39.0597 84.0528L37.2639 86.8349L36.8041 87.5517V87.5576L36.4917 88.0389L34.9934 87.4578L38.4229 77.2772L38.5062 77.0313L39.8379 73.0884V82.8458ZM39.8379 65.8984H35.5305C35.1392 65.8984 34.7687 65.7569 34.5336 65.5214C34.3819 65.365 34.309 65.1757 34.3194 64.9731C34.3402 64.529 34.7999 64.1267 35.3996 64.0268C35.4263 64.0209 35.4516 64.0104 35.4784 64H39.8379V65.8984ZM39.8379 63.0538H27.7772C27.3695 63.0538 27.0154 62.9182 26.7952 62.6827C26.6598 62.5307 26.5913 62.3474 26.6077 62.1656C26.6449 61.6381 27.2713 61.203 27.9959 61.203H35.8593C36.1152 61.203 36.3339 60.984 36.3339 60.7172C36.3339 60.4669 36.1152 60.2568 35.8534 60.2568L20.8169 60.2881C20.4256 60.2881 20.0551 60.1465 19.8245 59.9111C19.6727 59.7486 19.5953 59.5549 19.6058 59.3567C19.6221 58.9484 20.0238 58.5625 20.5193 58.4418H33.6915C33.9519 58.4418 34.1617 58.2332 34.1617 57.9664C34.1617 57.7101 33.9533 57.5015 33.6915 57.5015L15.0365 57.4806C14.6348 57.4806 14.2747 57.3391 14.0441 57.0887C13.8923 56.9367 13.8194 56.749 13.8358 56.5508C13.8462 56.3258 13.9771 56.0903 14.1914 55.9175C14.3223 55.8236 14.4622 55.7446 14.6199 55.6925C14.6883 55.6656 14.7612 55.6507 14.8445 55.6344C14.9383 55.6135 15.0424 55.6031 15.163 55.6031H32.6738C32.9401 55.6031 33.1544 55.3944 33.1544 55.1381C33.1544 54.8774 32.9401 54.6673 32.6738 54.6673L10.2916 54.6777C9.89438 54.6777 9.52985 54.5361 9.30518 54.2962C9.14896 54.1234 9.0701 53.9401 9.08051 53.7583C9.10581 53.3083 9.5611 52.9059 10.1146 52.8016L32.5488 52.7912C32.8047 52.7912 33.0085 52.587 33.0085 52.3367C33.0085 52.0759 32.8047 51.8718 32.5488 51.8718H7.88575C7.68191 51.8718 7.48849 51.8345 7.31589 51.7615C7.22216 51.7302 7.1433 51.6885 7.08081 51.6467C7.0079 51.5946 6.94541 51.5469 6.89334 51.4948C6.78323 51.374 6.65825 51.1908 6.68503 50.9672C6.68503 50.8883 6.69545 50.8361 6.72223 50.7482C6.72223 50.7422 6.72818 50.7214 6.75347 50.6752C6.78472 50.623 6.81597 50.5604 6.85316 50.5187L6.89482 50.471L6.93648 50.4293C6.9841 50.3712 7.03617 50.3295 7.11949 50.2773C7.13586 50.2669 7.15074 50.2505 7.19835 50.2251C7.23555 50.1983 7.28167 50.173 7.35011 50.1462C7.40219 50.1193 7.45426 50.0985 7.52717 50.0836C7.548 50.0776 7.56883 50.0672 7.62686 50.0568C7.67447 50.0404 7.72655 50.0299 7.75184 50.0255L13.2704 50.0091L33.074 50.0031C33.3136 50.0031 33.5234 49.8154 33.5442 49.5531L33.5501 49.4845C33.5501 49.2238 33.3418 49.0137 33.0755 49.0137L13.4653 49.0658L11.9298 49.0718L4.61986 49.0613C4.32675 49.0613 4.04554 48.9883 3.82682 48.8468C3.77475 48.8155 3.72713 48.7738 3.67059 48.7112C3.55008 48.58 3.47717 48.434 3.46675 48.2567C3.4608 48.2403 3.45634 48.215 3.4608 48.1524C3.4608 48.1255 3.46675 48.0942 3.47122 48.0689C3.47568 48.0481 3.48163 48.0212 3.49205 47.9795C3.50246 47.9482 3.50693 47.9318 3.51288 47.9169L3.53966 47.8648C3.56644 47.8171 3.59174 47.7649 3.62893 47.7187C3.65572 47.6815 3.68696 47.6457 3.72862 47.6085C3.76582 47.5712 3.80748 47.5295 3.86402 47.4878C3.90121 47.4565 3.94734 47.4296 4.01578 47.3939C4.06339 47.3626 4.11547 47.3358 4.16159 47.3209C4.21962 47.3 4.28211 47.2732 4.35948 47.2583C4.41751 47.2419 4.47405 47.227 4.5529 47.2166C4.57969 47.2061 4.60498 47.2061 4.65259 47.2061L4.71508 47.1957C4.74633 47.1957 4.77311 47.1912 4.80436 47.1912H34.4696C34.73 47.1912 34.9339 46.9871 34.9339 46.7263C34.9339 46.4655 34.73 46.2614 34.4696 46.2614H2.14701C1.7557 46.2614 1.38522 46.1198 1.15459 45.8799C1.1174 45.8427 1.08615 45.8009 1.06086 45.7547C1.02366 45.707 1.00878 45.6758 0.987952 45.6191C0.977537 45.6027 0.971586 45.5819 0.967122 45.567L0.973074 45.561L0.946292 45.4493C0.935877 45.418 0.935877 45.3911 0.935877 45.3449C0.935877 45.3032 0.941828 45.266 0.952243 45.2093C0.958195 45.1885 0.962659 45.1721 0.979025 45.1259C0.98944 45.0886 1.01027 45.0469 1.0311 45.0052L1.07871 44.9322C1.15162 44.8174 1.25131 44.7176 1.40307 44.6237C1.41795 44.6073 1.43432 44.5969 1.47598 44.576C1.51317 44.5552 1.54888 44.5343 1.60691 44.503C1.64857 44.4822 1.70065 44.4658 1.78397 44.4404C1.8048 44.43 1.82116 44.424 1.86729 44.4196C1.9149 44.4032 1.96698 44.3927 2.02947 44.3823C2.09791 44.3659 2.18123 44.3615 2.28984 44.3615H37.8754C38.2831 44.3615 38.6372 44.4971 38.8723 44.7385C39.024 44.8949 39.0969 45.0782 39.0865 45.2764C39.0761 45.5059 38.9615 45.7309 38.783 45.8933C36.7476 47.3522 35.5305 49.726 35.5305 52.2413C35.5305 55.1381 37.1493 57.7846 39.7486 59.1481L39.8379 59.1958V63.0538ZM39.8379 58.1289C37.7593 56.8786 36.4753 54.636 36.4753 52.2413C36.4753 50.0299 37.5406 47.9378 39.3305 46.6518L39.4139 46.5937V46.5773C39.5909 46.4149 39.7323 46.2316 39.8364 46.0289V58.1289H39.8379ZM43.507 8.01992C43.507 7.90518 43.5278 7.78448 43.5754 7.68464L45.6436 3.00411L47.6269 7.68464C47.6745 7.78448 47.6954 7.89326 47.6954 8.00949V33.6414C47.5853 33.7725 47.1478 34.1227 45.7224 34.1227C44.0679 34.1227 43.6082 33.7561 43.5085 33.6578V8.01992H43.507ZM50.4465 70.114C50.4152 70.4329 50.4152 71.0037 50.4152 72.1168C50.4256 73.3298 50.4256 74.9242 50.436 76.5351V77.6795C50.442 78.59 50.4465 79.4677 50.4465 80.241V82.4271H40.7767C40.7767 82.1082 40.7768 81.6433 40.7827 81.0785C40.7827 80.7596 40.7887 80.393 40.7887 80.0011C40.7887 79.7344 40.7946 79.4632 40.7946 79.1756C40.8006 78.9402 40.8006 78.7047 40.8006 78.4588C40.8006 78.213 40.805 77.9671 40.805 77.7167V77.456C40.805 77.152 40.811 76.8435 40.811 76.5351C40.811 74.9242 40.8214 73.3298 40.8214 72.1168C40.8214 70.7265 40.8214 70.1662 40.7589 69.9203V38.7034C40.7589 38.4992 40.8006 38.3055 40.8898 38.1446L42.7065 34.5206C42.7541 34.4416 42.8107 34.385 42.8836 34.3581C43.2436 34.6934 44.0218 35.0376 45.7239 35.0376C47.2282 35.0376 47.9632 34.6711 48.3024 34.3581C48.3753 34.385 48.4438 34.4416 48.4854 34.5206L50.3185 38.1446C50.4078 38.307 50.4494 38.5007 50.4494 38.7034V70.114H50.4465ZM52.7125 76.9791L52.7958 77.2295L56.2417 87.4578L54.7434 88.0389L53.5011 86.1092V86.1033L53.0621 85.4178L52.159 84.0171L52.0132 83.7816L51.3868 82.8145C51.3764 82.0098 51.3764 81.1411 51.366 80.2425V72.9841L52.7125 76.9791ZM51.366 46.1288C51.4657 46.3165 51.6011 46.4953 51.7781 46.6518L51.857 46.7248C53.6052 48.0421 54.608 50.0508 54.608 52.2413C54.608 54.5734 53.3657 56.7907 51.366 58.0454V46.1288V46.1288ZM55.5216 65.8984H51.366V64.0015L55.8668 64.0075L55.9501 64.0343C56.5036 64.1282 56.8949 64.5052 56.8741 64.9343C56.8473 65.4648 56.2417 65.8984 55.5216 65.8984ZM90.0582 45.3494L90.0314 45.4493L90.0374 45.4597C90.0374 45.4701 90.0314 45.4805 90.027 45.4969C90.021 45.5074 90.0165 45.5342 89.9957 45.57C89.9749 45.6221 89.9436 45.6743 89.8915 45.7324C89.8811 45.7488 89.8603 45.7801 89.8186 45.8218C89.771 45.8799 89.7085 45.9321 89.6148 45.9946C89.5836 46.0155 89.5568 46.0364 89.5255 46.0528C89.463 46.09 89.3946 46.1213 89.3068 46.1571C89.2696 46.1735 89.2339 46.1839 89.1714 46.1988L89.0509 46.2256C88.9929 46.242 88.9304 46.2465 88.8843 46.2524L88.7176 46.2629L56.7134 46.1839C56.4575 46.1839 56.2536 46.388 56.2536 46.6488C56.2536 46.9155 56.4575 47.1301 56.7134 47.1301H86.886C86.9441 47.1614 86.9961 47.1823 87.0586 47.1927L87.1583 47.2195C87.1896 47.23 87.2268 47.2359 87.2625 47.2508C87.3309 47.2717 87.3934 47.2985 87.4663 47.3343C87.5035 47.3507 87.5348 47.3715 87.5764 47.3969C87.6344 47.4341 87.6865 47.4758 87.7282 47.5176C87.807 47.5965 87.8695 47.68 87.9112 47.7634C87.9588 47.8633 87.9796 47.9512 87.9796 48.0451V48.0868C87.9737 48.1449 87.9633 48.2015 87.9528 48.2492C87.9052 48.4057 87.8115 48.5636 87.6865 48.6784C87.4306 48.893 87.0646 49.0181 86.6792 49.0181H58.1165C57.9811 49.0181 57.8501 49.0807 57.7564 49.1955C57.6775 49.2893 57.6463 49.3892 57.6463 49.5099C57.6463 49.7662 57.8501 49.9703 58.106 49.9703H83.6931C83.7407 49.9703 83.7972 49.9703 83.8448 49.9748L84.0487 50.027C84.1067 50.0478 84.1632 50.0642 84.2213 50.0851L84.2584 50.1015C84.3001 50.1223 84.3477 50.1387 84.4147 50.1804C84.4459 50.2013 84.4727 50.2177 84.5144 50.249C84.5456 50.2758 84.5769 50.3011 84.6141 50.3384C84.6245 50.3444 84.6408 50.3697 84.6557 50.3861C84.681 50.4174 84.7078 50.4546 84.7346 50.4859C84.8238 50.6111 84.8655 50.7527 84.8491 50.9047C84.8432 51.0358 84.8015 51.161 84.7286 51.2817C84.7018 51.3234 84.681 51.3606 84.6453 51.4024C84.6289 51.4188 84.6185 51.4292 84.5932 51.4545C84.5724 51.4754 84.5516 51.4962 84.5203 51.5275C84.4682 51.5693 84.4102 51.611 84.3745 51.6378L84.3224 51.6646C84.2867 51.6855 84.254 51.7019 84.2227 51.7168C84.1707 51.7436 84.1126 51.7645 84.0665 51.7794L83.9103 51.8315C83.8627 51.8419 83.8166 51.8479 83.7585 51.8583L83.7541 51.8524L83.6916 51.8628C83.6335 51.8732 83.5711 51.8792 83.5145 51.8792H58.6372C58.3813 51.8792 58.173 52.0878 58.173 52.3441C58.173 52.6049 58.3768 52.8091 58.6372 52.8091L81.1503 52.8031C81.7038 52.9074 82.0906 53.2889 82.0742 53.7076C82.043 54.2351 81.4211 54.6851 80.7173 54.6851L58.5643 54.6538C58.298 54.6538 58.0837 54.8625 58.0837 55.1188C58.0837 55.3795 58.298 55.5897 58.5643 55.5897H75.7463C75.7671 55.5956 75.7939 55.606 75.8356 55.6209C75.8772 55.6269 75.9189 55.6373 75.9978 55.6522C76.0186 55.6582 76.0454 55.6686 76.1123 55.694L76.2165 55.7416C76.2537 55.758 76.279 55.7729 76.3162 55.7938C76.3519 55.8147 76.3846 55.8355 76.4263 55.8728C76.4516 55.8936 76.4783 55.9145 76.5051 55.9413L76.5676 55.9994C76.5929 56.0307 76.6152 56.062 76.6361 56.0933L76.6673 56.1455C76.6941 56.1932 76.7194 56.2498 76.7357 56.3228C76.7417 56.3392 76.7462 56.3601 76.7462 56.3854C76.7521 56.4122 76.7566 56.4435 76.7566 56.4748V56.5165C76.7402 56.9561 76.3236 57.3421 75.785 57.4583H75.6853C75.6585 57.4583 75.6332 57.4628 75.5752 57.4687L57.4692 57.421C57.2089 57.421 56.9991 57.6297 56.9991 57.8919C56.9991 58.1005 57.13 58.2838 57.3175 58.3419C57.3963 58.3837 57.4692 58.4001 57.5421 58.4001H69.9257C69.9525 58.4164 69.9838 58.4209 70.0091 58.4209C70.5774 58.5252 70.9643 58.9022 70.9494 59.3254C70.9286 59.6548 70.6786 59.9692 70.2962 60.1465C70.082 60.2255 69.8737 60.2672 69.6698 60.2672H59.1282L55.3014 60.2508C55.041 60.2508 54.8268 60.4594 54.8268 60.7217C54.8268 60.9467 54.983 61.1345 55.2077 61.1821C55.2553 61.1985 55.2969 61.1985 55.3386 61.1985L62.0117 61.2149C62.0698 61.2149 62.1367 61.2149 62.1843 61.2209L62.2423 61.2373C62.8062 61.3267 63.1976 61.7022 63.1663 62.1418C63.1663 62.179 63.1663 62.1999 63.1604 62.2148C63.0503 62.6961 62.4447 63.0672 61.793 63.0672H51.3675V59.1451L51.4612 59.093C53.9831 57.7071 55.5499 55.083 55.5499 52.2532C55.5499 49.7587 54.4117 47.4788 52.4119 45.9782C52.2141 45.8114 52.1084 45.5908 52.1188 45.3449C52.1501 44.8115 52.7556 44.3719 53.4713 44.3719H88.859C89.2666 44.3719 89.6267 44.5075 89.841 44.7429C89.8826 44.7906 89.9198 44.8368 89.9511 44.8741C89.9674 44.9054 89.9823 44.9322 89.9987 44.9575V44.9992L90.024 45.0261C90.0299 45.0424 90.0344 45.0573 90.0403 45.0737L90.0671 45.1989C90.0731 45.2257 90.0731 45.2675 90.0731 45.3092C90.0686 45.3122 90.0686 45.3226 90.0582 45.3494Z" fill="black"/>
<path d="M90.0582 45.3494L90.0314 45.4493L90.0374 45.4597C90.0374 45.4701 90.0314 45.4806 90.0269 45.4969C90.021 45.5074 90.0165 45.5342 89.9957 45.57C89.9749 45.6221 89.9436 45.6743 89.8915 45.7324C89.8811 45.7488 89.8603 45.7801 89.8186 45.8218C89.771 45.8799 89.7085 45.9321 89.6148 45.9947C89.5835 46.0155 89.5568 46.0364 89.5255 46.0528C89.463 46.09 89.3946 46.1213 89.3068 46.1571C89.2696 46.1735 89.2339 46.1839 89.1714 46.1988L89.0509 46.2256C88.9929 46.242 88.9304 46.2465 88.8842 46.2524L88.7176 46.2629L56.7134 46.1839C56.4575 46.1839 56.2536 46.388 56.2536 46.6488C56.2536 46.9156 56.4575 47.1301 56.7134 47.1301H86.886C86.9441 47.1614 86.9961 47.1823 87.0586 47.1927L87.1583 47.2195C87.1896 47.23 87.2268 47.2359 87.2625 47.2508C87.3309 47.2717 87.3934 47.2985 87.4663 47.3343C87.5035 47.3507 87.5347 47.3715 87.5764 47.3969C87.6344 47.4341 87.6865 47.4759 87.7282 47.5176C87.807 47.5966 87.8695 47.68 87.9112 47.7634C87.9588 47.8633 87.9796 47.9512 87.9796 48.0451V48.0868C87.9737 48.1449 87.9633 48.2016 87.9528 48.2492C87.9052 48.4057 87.8115 48.5637 87.6865 48.6784C87.4306 48.893 87.0646 49.0181 86.6792 49.0181H58.1165C57.9811 49.0181 57.8501 49.0807 57.7564 49.1955C57.6775 49.2894 57.6463 49.3892 57.6463 49.5099C57.6463 49.7662 57.8501 49.9703 58.106 49.9703H83.693C83.7407 49.9703 83.7972 49.9703 83.8448 49.9748L84.0487 50.027C84.1067 50.0478 84.1632 50.0642 84.2212 50.0851L84.2584 50.1015C84.3001 50.1223 84.3477 50.1387 84.4147 50.1805C84.4459 50.2013 84.4727 50.2177 84.5144 50.249C84.5456 50.2758 84.5768 50.3012 84.614 50.3384C84.6245 50.3444 84.6408 50.3697 84.6557 50.3861C84.681 50.4174 84.7078 50.4546 84.7346 50.4859C84.8238 50.6111 84.8655 50.7527 84.8491 50.9047C84.8432 51.0358 84.8015 51.161 84.7286 51.2817C84.7018 51.3234 84.681 51.3606 84.6453 51.4024C84.6289 51.4188 84.6185 51.4292 84.5932 51.4545C84.5724 51.4754 84.5516 51.4963 84.5203 51.5275C84.4682 51.5693 84.4102 51.611 84.3745 51.6378L84.3224 51.6646C84.2867 51.6855 84.254 51.7019 84.2227 51.7168C84.1707 51.7436 84.1126 51.7645 84.0665 51.7794L83.9103 51.8315C83.8627 51.842 83.8165 51.8479 83.7585 51.8584L83.754 51.8524L83.6916 51.8628C83.6335 51.8733 83.571 51.8792 83.5145 51.8792H58.6372C58.3813 51.8792 58.173 52.0878 58.173 52.3441C58.173 52.6049 58.3768 52.8091 58.6372 52.8091L81.1503 52.8031C81.7038 52.9074 82.0906 53.2889 82.0742 53.7076C82.043 54.2351 81.4211 54.6852 80.7173 54.6852L58.5643 54.6539C58.298 54.6539 58.0837 54.8625 58.0837 55.1188C58.0837 55.3796 58.298 55.5897 58.5643 55.5897H75.7463C75.7671 55.5956 75.7939 55.6061 75.8356 55.621C75.8772 55.6269 75.9189 55.6374 75.9978 55.6523C76.0186 55.6582 76.0454 55.6686 76.1123 55.694L76.2165 55.7417C76.2537 55.7581 76.279 55.773 76.3162 55.7938C76.3519 55.8147 76.3846 55.8355 76.4263 55.8728C76.4515 55.8937 76.4783 55.9145 76.5051 55.9413L76.5676 55.9995C76.5929 56.0307 76.6152 56.062 76.6361 56.0933L76.6673 56.1455C76.6941 56.1932 76.7194 56.2498 76.7357 56.3228C76.7417 56.3392 76.7462 56.3601 76.7462 56.3854C76.7521 56.4122 76.7566 56.4435 76.7566 56.4748V56.5165C76.7402 56.9561 76.3236 57.3421 75.785 57.4583H75.6853C75.6585 57.4583 75.6332 57.4628 75.5752 57.4687L57.4692 57.421C57.2089 57.421 56.9991 57.6297 56.9991 57.8919C56.9991 58.1006 57.13 58.2838 57.3175 58.342C57.3963 58.3837 57.4692 58.4001 57.5421 58.4001H69.9257C69.9525 58.4165 69.9838 58.4209 70.009 58.4209C70.5774 58.5252 70.9643 58.9022 70.9494 59.3254C70.9286 59.6548 70.6786 59.9692 70.2962 60.1465C70.082 60.2255 69.8737 60.2672 69.6698 60.2672H59.1282L55.3014 60.2508C55.041 60.2508 54.8268 60.4594 54.8268 60.7217C54.8268 60.9467 54.983 61.1345 55.2077 61.1822C55.2553 61.1986 55.2969 61.1986 55.3386 61.1986L62.0117 61.2149C62.0697 61.2149 62.1367 61.2149 62.1843 61.2209L62.2423 61.2373C62.8062 61.3267 63.1976 61.7022 63.1663 62.1418C63.1663 62.1791 63.1663 62.1999 63.1604 62.2148C63.0503 62.6961 62.4447 63.0672 61.793 63.0672H51.3674V59.1451L51.4612 59.093C53.9831 57.7072 55.5499 55.083 55.5499 52.2532C55.5499 49.7587 54.4116 47.4788 52.4119 45.9783C52.2141 45.8114 52.1084 45.5908 52.1188 45.3449C52.1501 44.8115 52.7556 44.3719 53.4713 44.3719H88.8589C89.2666 44.3719 89.6267 44.5075 89.841 44.7429C89.8826 44.7906 89.9198 44.8368 89.9511 44.8741C89.9674 44.9054 89.9823 44.9322 89.9987 44.9575V44.9992L90.024 45.0261C90.0299 45.0425 90.0344 45.0574 90.0403 45.0737L90.0671 45.1989C90.0731 45.2257 90.0731 45.2675 90.0731 45.3092C90.0686 45.3122 90.0686 45.3226 90.0582 45.3494Z" fill="white"/>
<path d="M56.874 64.9314C56.8473 65.4648 56.2417 65.8985 55.5216 65.8985H51.366V64.0015L55.8668 64.0075L55.9501 64.0343C56.5021 64.1267 56.8949 64.5022 56.874 64.9314Z" fill="white"/>
<path d="M39.8379 64.0015V65.8999H35.5305C35.1392 65.8999 34.7687 65.7584 34.5336 65.5229C34.3819 65.3665 34.3089 65.1772 34.3194 64.9746C34.3402 64.5305 34.7999 64.1282 35.3996 64.0283C35.4263 64.0224 35.4516 64.0119 35.4784 64.0015H39.8379Z" fill="white"/>
<path d="M39.8379 59.1958V63.0553H27.7772C27.3695 63.0553 27.0154 62.9197 26.7952 62.6842C26.6598 62.5322 26.5913 62.3489 26.6077 62.1672C26.6449 61.6396 27.2713 61.2045 27.9959 61.2045H35.8593C36.1152 61.2045 36.3339 60.9855 36.3339 60.7187C36.3339 60.4684 36.1152 60.2583 35.8534 60.2583L20.8169 60.2896C20.4256 60.2896 20.0551 60.148 19.8245 59.9126C19.6727 59.7501 19.5953 59.5564 19.6057 59.3582C19.6221 58.9499 20.0238 58.564 20.5193 58.4433H33.6915C33.9518 58.4433 34.1616 58.2347 34.1616 57.9679C34.1616 57.7116 33.9533 57.503 33.6915 57.503L15.0365 57.4821C14.6347 57.4821 14.2747 57.3406 14.0441 57.0902C13.8923 56.9382 13.8194 56.7505 13.8358 56.5523C13.8462 56.3273 13.9771 56.0919 14.1914 55.919C14.3223 55.8251 14.4622 55.7461 14.6199 55.694C14.6883 55.6672 14.7612 55.6523 14.8445 55.6359C14.9383 55.615 15.0424 55.6046 15.1629 55.6046H32.6738C32.9401 55.6046 33.1543 55.396 33.1543 55.1396C33.1543 54.8789 32.9401 54.6688 32.6738 54.6688L10.2916 54.6792C9.89437 54.6792 9.52984 54.5376 9.30517 54.2977C9.14894 54.1249 9.07009 53.9416 9.0805 53.7598C9.1058 53.3098 9.56109 52.9074 10.1146 52.8031L32.5488 52.7927C32.8047 52.7927 33.0085 52.5885 33.0085 52.3382C33.0085 52.0774 32.8047 51.8733 32.5488 51.8733H7.88574C7.6819 51.8733 7.48847 51.836 7.31588 51.763C7.22214 51.7317 7.14329 51.69 7.0808 51.6483C7.00789 51.5961 6.9454 51.5484 6.89332 51.4963C6.78322 51.3756 6.65824 51.1923 6.68502 50.9687C6.68502 50.8898 6.69544 50.8376 6.72222 50.7497C6.72222 50.7437 6.72817 50.7229 6.75346 50.6767C6.78471 50.6245 6.81595 50.5619 6.85315 50.5202L6.89481 50.4725L6.93647 50.4308C6.98408 50.3727 7.03616 50.331 7.11948 50.2788C7.13585 50.2684 7.15073 50.252 7.19834 50.2267C7.23554 50.1998 7.28166 50.1745 7.3501 50.1477C7.40218 50.1209 7.45425 50.1 7.52716 50.0851C7.54799 50.0791 7.56882 50.0687 7.62685 50.0583C7.67446 50.0419 7.72653 50.0314 7.75183 50.027L13.2704 50.0106L33.074 50.0046C33.3135 50.0046 33.5233 49.8169 33.5442 49.5546L33.5501 49.4861C33.5501 49.2253 33.3418 49.0152 33.0755 49.0152L13.4653 49.0673L11.9298 49.0733L4.61985 49.0629C4.32674 49.0629 4.04553 48.9898 3.82681 48.8483C3.77474 48.817 3.72712 48.7753 3.67058 48.7127C3.55007 48.5815 3.47716 48.4355 3.46674 48.2582C3.46079 48.2418 3.45633 48.2165 3.46079 48.1539C3.46079 48.127 3.46675 48.0958 3.47121 48.0704C3.47567 48.0496 3.48162 48.0227 3.49204 47.981C3.50245 47.9497 3.50692 47.9333 3.51287 47.9184L3.53965 47.8663C3.56643 47.8186 3.59173 47.7664 3.62892 47.7202C3.65571 47.683 3.68695 47.6472 3.72861 47.61C3.76581 47.5727 3.80747 47.531 3.86401 47.4893C3.9012 47.458 3.94733 47.4312 4.01577 47.3954C4.06338 47.3641 4.11546 47.3373 4.16158 47.3224C4.21961 47.3015 4.2821 47.2747 4.35947 47.2598C4.4175 47.2434 4.47404 47.2285 4.55289 47.2181C4.57968 47.2076 4.60497 47.2076 4.65258 47.2076L4.71507 47.1972C4.74632 47.1972 4.7731 47.1927 4.80435 47.1927H34.4696C34.73 47.1927 34.9338 46.9886 34.9338 46.7278C34.9338 46.467 34.73 46.2629 34.4696 46.2629H2.147C1.75569 46.2629 1.38521 46.1213 1.15459 45.8814C1.11739 45.8442 1.08614 45.8024 1.06085 45.7562C1.02365 45.7086 1.00877 45.6773 0.987943 45.6206C0.977528 45.6042 0.971576 45.5834 0.967113 45.5685L0.973064 45.5625L0.946282 45.4493C0.935867 45.418 0.935867 45.3911 0.935867 45.345C0.935867 45.3032 0.941819 45.266 0.952234 45.2094C0.958185 45.1885 0.962649 45.1721 0.979016 45.1259C0.989431 45.0887 1.01026 45.0469 1.03109 45.0052L1.0787 44.9322C1.15161 44.8174 1.2513 44.7176 1.40306 44.6237C1.41794 44.6073 1.43431 44.5969 1.47597 44.576C1.51316 44.5552 1.54887 44.5343 1.6069 44.503C1.64856 44.4822 1.70064 44.4658 1.78396 44.4404C1.80479 44.43 1.82115 44.424 1.86728 44.4196C1.91489 44.4032 1.96697 44.3928 2.02946 44.3823C2.0979 44.3659 2.18122 44.3615 2.28983 44.3615H37.8754C38.2831 44.3615 38.6372 44.4971 38.8723 44.7385C39.024 44.8949 39.0969 45.0782 39.0865 45.2764C39.0761 45.5059 38.9615 45.7309 38.783 45.8933C36.7476 47.3522 35.5305 49.726 35.5305 52.2413C35.5305 55.1382 37.1493 57.7846 39.7486 59.1481L39.8379 59.1958Z" fill="white"/>
<path d="M56.2417 87.4578L54.7434 88.039L53.5011 86.1092V86.1033L53.0621 85.4178L52.159 84.0171L52.0132 83.7816L51.3868 82.8145C51.3764 82.0099 51.3764 81.1411 51.366 80.2425V72.9841L52.7125 76.9791L52.7958 77.2295L56.2417 87.4578Z" fill="white"/>
<path d="M39.8379 73.0884V82.8458L39.2055 83.8234L39.0597 84.0543L37.2639 86.8349L36.8041 87.5517V87.5576L36.4902 88.0375L34.9919 87.4578L38.4229 77.2772L38.5062 77.0313L39.8379 73.0884Z" fill="white"/>
<path d="M50.4464 70.1141C50.4152 70.433 50.4152 71.0037 50.4152 72.1168C50.4256 73.3298 50.4256 74.9242 50.436 76.5351V77.6795C50.442 78.59 50.4464 79.4677 50.4464 80.2411V82.4271H40.7767C40.7767 82.1082 40.7767 81.6433 40.7827 81.0785C40.7827 80.7596 40.7886 80.3931 40.7886 80.0011C40.7886 79.7344 40.7946 79.4632 40.7946 79.1756C40.8005 78.9402 40.8005 78.7047 40.8005 78.4589C40.8005 78.213 40.805 77.9671 40.805 77.7168V77.456C40.805 77.152 40.811 76.8435 40.811 76.5351C40.811 74.9242 40.8214 73.3298 40.8214 72.1168C40.8214 70.7265 40.8214 70.1662 40.7589 69.9204V38.7034C40.7589 38.4993 40.8005 38.3055 40.8898 38.1446L42.7065 34.5206C42.7541 34.4416 42.8107 34.385 42.8836 34.3582C43.2436 34.6934 44.0218 35.0377 45.7239 35.0377C47.2282 35.0377 47.9632 34.6711 48.3024 34.3582C48.3753 34.385 48.4438 34.4416 48.4854 34.5206L50.3185 38.1446C50.4078 38.307 50.4494 38.5007 50.4494 38.7034V70.1141H50.4464Z" fill="white"/>
<path d="M47.6954 8.00948V33.6414C47.5853 33.7725 47.1478 34.1227 45.7224 34.1227C44.0679 34.1227 43.6082 33.7561 43.5085 33.6578V8.01991C43.5085 7.90517 43.5293 7.78447 43.5769 7.68463L45.6451 3.0041L47.6284 7.68463C47.6745 7.78447 47.6954 7.89474 47.6954 8.00948Z" fill="white"/>
</svg>
