<svg width="440" height="76" viewBox="0 0 440 76" fill="none" xmlns="http://www.w3.org/2000/svg">
<path d="M200.199 29.3156C200.646 29.8721 200.871 30.5046 200.871 31.2085C200.871 31.8125 200.713 32.3547 200.396 32.8398C200.079 33.3249 199.623 33.7054 199.028 33.9812C198.433 34.2618 197.737 34.3998 196.946 34.3998H192.161V22.5432H196.725C197.541 22.5432 198.241 22.6811 198.827 22.9522C199.412 23.2233 199.854 23.5942 200.151 24.0508C200.449 24.5121 200.598 25.0258 200.598 25.5965C200.598 26.2814 200.415 26.8473 200.046 27.3039C199.676 27.7605 199.187 28.0934 198.563 28.3121C199.206 28.4215 199.753 28.7592 200.199 29.3156ZM194.119 27.5227H196.547C197.19 27.5227 197.694 27.38 198.054 27.0899C198.414 26.7998 198.597 26.3812 198.597 25.8343C198.597 25.3016 198.414 24.8831 198.054 24.5787C197.694 24.2791 197.19 24.1269 196.547 24.1269H194.119V27.5227ZM198.337 32.3357C198.716 32.017 198.904 31.5747 198.904 31.004C198.904 30.4238 198.702 29.9625 198.299 29.62C197.896 29.2776 197.363 29.1064 196.696 29.1064H194.114V32.816H196.763C197.435 32.816 197.958 32.6543 198.337 32.3357Z" fill="white"/>
<path d="M202.944 27.1469C203.343 26.4193 203.88 25.8533 204.562 25.4491C205.243 25.0448 206.001 24.8451 206.827 24.8451C207.575 24.8451 208.223 24.9925 208.78 25.2826C209.337 25.5727 209.783 25.9342 210.114 26.367V25.002H212.096V34.4045H210.114V33.0063C209.783 33.4486 209.327 33.8195 208.756 34.1144C208.18 34.4093 207.527 34.5567 206.793 34.5567C205.977 34.5567 205.234 34.3474 204.552 33.9337C203.875 33.5199 203.338 32.9397 202.944 32.193C202.551 31.4463 202.349 30.6045 202.349 29.6581C202.349 28.7116 202.551 27.8794 202.944 27.1469ZM209.711 28.003C209.442 27.5274 209.087 27.1612 208.65 26.9091C208.214 26.6571 207.743 26.5334 207.239 26.5334C206.736 26.5334 206.265 26.6571 205.829 26.8996C205.392 27.1422 205.042 27.5036 204.768 27.9745C204.499 28.4453 204.365 29.0065 204.365 29.6533C204.365 30.3001 204.499 30.8708 204.768 31.3607C205.037 31.8506 205.392 32.2215 205.833 32.4784C206.275 32.7352 206.745 32.8636 207.235 32.8636C207.739 32.8636 208.209 32.7399 208.646 32.4879C209.082 32.2358 209.433 31.8696 209.706 31.3892C209.975 30.9041 210.109 30.3382 210.109 29.6914C210.114 29.0446 209.98 28.4786 209.711 28.003Z" fill="white"/>
<path d="M221.473 25.3064C222.064 25.6155 222.524 26.0673 222.86 26.6713C223.191 27.2754 223.359 28.003 223.359 28.8543V34.3998H221.416V29.1444C221.416 28.3026 221.205 27.6558 220.777 27.2088C220.35 26.7617 219.774 26.5334 219.04 26.5334C218.306 26.5334 217.72 26.757 217.293 27.2088C216.861 27.6558 216.65 28.3026 216.65 29.1444V34.3998H214.688V24.9973H216.65V26.0721C216.972 25.6869 217.38 25.3825 217.884 25.1685C218.383 24.9544 218.915 24.8451 219.477 24.8451C220.211 24.8451 220.883 24.9973 221.473 25.3064Z" fill="white"/>
<path d="M225.792 27.1422C226.186 26.4098 226.738 25.8438 227.438 25.4443C228.139 25.0448 228.941 24.8451 229.848 24.8451C230.994 24.8451 231.945 25.1161 232.698 25.6536C233.452 26.1957 233.955 26.9662 234.224 27.965H232.108C231.935 27.4989 231.662 27.1327 231.282 26.8711C230.903 26.6095 230.428 26.4811 229.852 26.4811C229.051 26.4811 228.408 26.7617 227.933 27.3277C227.458 27.8889 227.218 28.6784 227.218 29.6914C227.218 30.7044 227.458 31.4939 227.933 32.0646C228.408 32.6353 229.051 32.9159 229.852 32.9159C230.99 32.9159 231.743 32.4213 232.108 31.432H234.224C233.951 32.388 233.432 33.1489 232.674 33.7101C231.916 34.2713 230.975 34.5567 229.852 34.5567C228.945 34.5567 228.144 34.357 227.443 33.9527C226.743 33.5484 226.196 32.9777 225.797 32.2453C225.404 31.5129 225.202 30.6616 225.202 29.6961C225.202 28.7259 225.399 27.8746 225.792 27.1422Z" fill="white"/>
<path d="M237.871 33.9479C237.147 33.5436 236.58 32.9729 236.168 32.2405C235.755 31.5081 235.549 30.6568 235.549 29.6913C235.549 28.7354 235.76 27.8888 236.187 27.1469C236.609 26.4097 237.19 25.839 237.924 25.4395C238.658 25.04 239.479 24.8403 240.386 24.8403C241.293 24.8403 242.114 25.04 242.848 25.4395C243.582 25.839 244.163 26.405 244.585 27.1469C245.008 27.8888 245.223 28.7354 245.223 29.6913C245.223 30.6473 245.008 31.4938 244.571 32.2358C244.134 32.9777 243.539 33.5484 242.79 33.9527C242.037 34.3569 241.207 34.5567 240.3 34.5567C239.407 34.5567 238.596 34.3522 237.871 33.9479ZM241.72 32.5069C242.162 32.2691 242.522 31.9076 242.795 31.432C243.069 30.9564 243.208 30.3762 243.208 29.6913C243.208 29.0065 243.074 28.431 242.814 27.9602C242.55 27.4893 242.2 27.1326 241.763 26.8948C241.327 26.657 240.856 26.5381 240.353 26.5381C239.849 26.5381 239.378 26.657 238.951 26.8948C238.524 27.1326 238.179 27.4893 237.929 27.9602C237.675 28.431 237.55 29.0112 237.55 29.6913C237.55 30.7043 237.809 31.4843 238.332 32.036C238.855 32.5877 239.513 32.8635 240.305 32.8635C240.804 32.8635 241.279 32.7446 241.72 32.5069Z" fill="white"/>
<path d="M251.587 27.1469C251.985 26.4193 252.523 25.8533 253.204 25.449C253.886 25.0448 254.649 24.845 255.484 24.845C256.103 24.845 256.717 24.9782 257.317 25.2445C257.922 25.5109 258.397 25.8676 258.757 26.3099V21.7727H260.739V34.3997H258.757V32.9825C258.435 33.439 257.989 33.8148 257.422 34.1096C256.856 34.4045 256.204 34.5519 255.469 34.5519C254.644 34.5519 253.886 34.3427 253.204 33.9289C252.523 33.5151 251.98 32.9349 251.587 32.1882C251.193 31.4415 250.992 30.5997 250.992 29.6533C250.992 28.7116 251.189 27.8793 251.587 27.1469ZM258.354 28.003C258.085 27.5274 257.73 27.1612 257.293 26.9091C256.856 26.6571 256.386 26.5334 255.882 26.5334C255.378 26.5334 254.908 26.6571 254.471 26.8996C254.034 27.1422 253.679 27.5036 253.411 27.9745C253.142 28.4453 253.007 29.0065 253.007 29.6533C253.007 30.3001 253.142 30.8708 253.411 31.3607C253.679 31.8506 254.034 32.2215 254.476 32.4783C254.917 32.7352 255.388 32.8636 255.877 32.8636C256.381 32.8636 256.851 32.7399 257.288 32.4878C257.725 32.2358 258.075 31.8696 258.349 31.3892C258.617 30.9041 258.752 30.3382 258.752 29.6914C258.757 29.0445 258.622 28.4786 258.354 28.003Z" fill="white"/>
<path d="M271.949 30.4238H264.698C264.755 31.1752 265.039 31.7792 265.542 32.231C266.046 32.6876 266.665 32.9159 267.4 32.9159C268.455 32.9159 269.204 32.4783 269.636 31.6032H271.752C271.464 32.4688 270.946 33.1775 270.193 33.7291C269.439 34.2808 268.508 34.5567 267.395 34.5567C266.488 34.5567 265.677 34.3569 264.957 33.9527C264.237 33.5484 263.676 32.9777 263.268 32.2453C262.86 31.5129 262.658 30.6616 262.658 29.6961C262.658 28.7306 262.855 27.8793 263.253 27.1469C263.652 26.4145 264.208 25.8485 264.923 25.449C265.638 25.0495 266.464 24.8498 267.395 24.8498C268.292 24.8498 269.089 25.0448 269.789 25.43C270.49 25.8152 271.032 26.3622 271.426 27.0613C271.815 27.7604 272.011 28.5642 272.011 29.4773C272.016 29.8245 271.992 30.1432 271.949 30.4238ZM269.967 28.8543C269.957 28.1361 269.698 27.5654 269.194 27.1326C268.691 26.6999 268.062 26.4858 267.318 26.4858C266.641 26.4858 266.061 26.6999 265.581 27.1279C265.096 27.5559 264.813 28.1314 264.722 28.8591H269.967V28.8543Z" fill="white"/>
<path d="M280.386 24.1126V27.594H284.518V29.1825H280.386V32.816H285.036V34.4045H278.423V22.5241H285.036V24.1126H280.386Z" fill="white"/>
<path d="M300.935 25.3064C301.525 25.6155 301.991 26.0673 302.331 26.6713C302.672 27.2754 302.84 28.003 302.84 28.8543V34.3998H300.897V29.1444C300.897 28.3026 300.685 27.6558 300.258 27.2088C299.831 26.7617 299.255 26.5334 298.521 26.5334C297.787 26.5334 297.206 26.757 296.774 27.2088C296.342 27.6558 296.126 28.3026 296.126 29.1444V34.3998H294.178V29.1444C294.178 28.3026 293.967 27.6558 293.54 27.2088C293.113 26.7617 292.537 26.5334 291.802 26.5334C291.068 26.5334 290.483 26.757 290.056 27.2088C289.624 27.6558 289.413 28.3026 289.413 29.1444V34.3998H287.45V24.9973H289.413V26.0721C289.734 25.6869 290.142 25.3825 290.636 25.1685C291.131 24.9544 291.658 24.8451 292.22 24.8451C292.978 24.8451 293.655 25.0068 294.25 25.3207C294.845 25.6393 295.306 26.1006 295.627 26.7046C295.915 26.1339 296.361 25.6821 296.971 25.3492C297.58 25.0115 298.233 24.8451 298.934 24.8451C299.678 24.8451 300.345 24.9973 300.935 25.3064Z" fill="white"/>
<path d="M308.656 25.2874C309.232 24.9925 309.88 24.8451 310.6 24.8451C311.426 24.8451 312.179 25.0496 312.865 25.4491C313.547 25.8533 314.084 26.4193 314.473 27.1469C314.862 27.8746 315.058 28.7116 315.058 29.6533C315.058 30.5998 314.862 31.4416 314.473 32.1882C314.084 32.9349 313.547 33.5151 312.865 33.9289C312.184 34.3427 311.426 34.5519 310.6 34.5519C309.875 34.5519 309.232 34.4045 308.671 34.1192C308.109 33.829 307.649 33.4676 307.294 33.0348V38.8703H305.331V24.9973H307.294V26.3812C307.63 25.9484 308.085 25.587 308.656 25.2874ZM312.659 27.9745C312.39 27.5036 312.035 27.1422 311.593 26.8996C311.152 26.6571 310.677 26.5334 310.173 26.5334C309.679 26.5334 309.213 26.6571 308.772 26.9091C308.33 27.1612 307.975 27.5227 307.706 28.003C307.438 28.4786 307.303 29.0446 307.303 29.6914C307.303 30.3382 307.438 30.9041 307.706 31.3892C307.975 31.8743 308.33 32.2406 308.772 32.4879C309.213 32.7399 309.683 32.8636 310.173 32.8636C310.677 32.8636 311.152 32.7352 311.593 32.4784C312.035 32.2215 312.39 31.8506 312.659 31.3607C312.928 30.8708 313.062 30.3049 313.062 29.6533C313.067 29.0113 312.932 28.4501 312.659 27.9745Z" fill="white"/>
<path d="M320.116 25.2446C320.592 24.9782 321.158 24.8451 321.811 24.8451V26.8568H321.311C320.544 26.8568 319.958 27.0518 319.565 27.4371C319.171 27.8223 318.97 28.4929 318.97 29.4488V34.3998H317.007V24.9973H318.97V26.3622C319.257 25.8866 319.641 25.5157 320.116 25.2446Z" fill="white"/>
<path d="M332.248 30.4238H324.997C325.055 31.1752 325.333 31.7792 325.842 32.231C326.346 32.6876 326.965 32.9159 327.699 32.9159C328.755 32.9159 329.503 32.4783 329.935 31.6032H332.052C331.764 32.4688 331.245 33.1775 330.492 33.7291C329.738 34.2808 328.807 34.5567 327.694 34.5567C326.787 34.5567 325.976 34.3569 325.256 33.9527C324.536 33.5484 323.975 32.9777 323.567 32.2453C323.159 31.5129 322.957 30.6616 322.957 29.6961C322.957 28.7306 323.154 27.8793 323.553 27.1469C323.946 26.4145 324.508 25.8485 325.223 25.449C325.938 25.0495 326.763 24.8498 327.694 24.8498C328.592 24.8498 329.388 25.0448 330.089 25.43C330.789 25.8152 331.332 26.3622 331.725 27.0613C332.114 27.7604 332.311 28.5642 332.311 29.4773C332.316 29.8245 332.292 30.1432 332.248 30.4238ZM330.266 28.8543C330.257 28.1361 329.998 27.5654 329.494 27.1326C328.99 26.6999 328.361 26.4858 327.617 26.4858C326.941 26.4858 326.36 26.6999 325.88 27.1279C325.395 27.5559 325.112 28.1314 325.021 28.8591H330.266V28.8543Z" fill="white"/>
<path d="M340.023 25.2826C340.589 25.5727 341.035 25.9342 341.357 26.367V25.002H343.339V34.5567C343.339 35.4223 343.156 36.1927 342.787 36.8681C342.417 37.5434 341.889 38.0761 341.194 38.4613C340.498 38.8466 339.668 39.0416 338.703 39.0416C337.417 39.0416 336.351 38.7419 335.502 38.1474C334.653 37.5482 334.173 36.7397 334.058 35.7172H336.001C336.15 36.207 336.467 36.6018 336.956 36.9014C337.446 37.201 338.026 37.3532 338.703 37.3532C339.495 37.3532 340.133 37.1154 340.623 36.635C341.112 36.1595 341.357 35.4651 341.357 34.5519V32.9825C341.026 33.4248 340.575 33.8005 340.004 34.1001C339.437 34.3998 338.789 34.5519 338.065 34.5519C337.239 34.5519 336.481 34.3427 335.8 33.9289C335.118 33.5151 334.576 32.9349 334.182 32.1882C333.789 31.4416 333.587 30.5998 333.587 29.6533C333.587 28.7069 333.784 27.8746 334.182 27.1469C334.581 26.4193 335.118 25.8533 335.8 25.4491C336.481 25.0448 337.239 24.8451 338.065 24.8451C338.804 24.8451 339.452 24.9925 340.023 25.2826ZM340.954 28.003C340.685 27.5274 340.33 27.1612 339.893 26.9091C339.456 26.6571 338.986 26.5334 338.482 26.5334C337.978 26.5334 337.508 26.6571 337.071 26.8996C336.635 27.1422 336.279 27.5036 336.011 27.9745C335.742 28.4453 335.608 29.0065 335.608 29.6533C335.608 30.3001 335.742 30.8708 336.011 31.3607C336.279 31.8506 336.635 32.2215 337.076 32.4784C337.518 32.7352 337.988 32.8636 338.477 32.8636C338.981 32.8636 339.452 32.7399 339.888 32.4879C340.325 32.2358 340.675 31.8696 340.949 31.3892C341.218 30.9041 341.352 30.3382 341.352 29.6914C341.357 29.0446 341.222 28.4786 340.954 28.003Z" fill="white"/>
<path d="M347.605 33.9479C346.88 33.5436 346.314 32.9729 345.901 32.2405C345.489 31.5081 345.282 30.6568 345.282 29.6913C345.282 28.7354 345.494 27.8888 345.921 27.1469C346.343 26.4097 346.924 25.839 347.658 25.4395C348.392 25.04 349.213 24.8403 350.12 24.8403C351.027 24.8403 351.847 25.04 352.582 25.4395C353.316 25.839 353.897 26.405 354.319 27.1469C354.741 27.8888 354.957 28.7354 354.957 29.6913C354.957 30.6473 354.741 31.4938 354.304 32.2358C353.868 32.9777 353.273 33.5484 352.524 33.9527C351.771 34.3569 350.94 34.5567 350.033 34.5567C349.141 34.5567 348.33 34.3522 347.605 33.9479ZM351.454 32.5069C351.895 32.2691 352.255 31.9076 352.529 31.432C352.802 30.9564 352.942 30.3762 352.942 29.6913C352.942 29.0065 352.807 28.431 352.543 27.9602C352.279 27.4893 351.929 27.1326 351.492 26.8948C351.056 26.657 350.585 26.5381 350.081 26.5381C349.577 26.5381 349.107 26.657 348.68 26.8948C348.253 27.1326 347.907 27.4893 347.658 27.9602C347.404 28.431 347.279 29.0112 347.279 29.6913C347.279 30.7043 347.538 31.4843 348.061 32.036C348.584 32.5877 349.242 32.8635 350.033 32.8635C350.537 32.8635 351.012 32.7446 351.454 32.5069Z" fill="white"/>
<path d="M358.34 34.1524C357.75 33.8861 357.28 33.5199 356.939 33.0586C356.598 32.5972 356.411 32.0836 356.387 31.5129H358.417C358.451 31.9124 358.643 32.2453 358.993 32.5116C359.343 32.778 359.78 32.9111 360.313 32.9111C360.865 32.9111 361.292 32.8065 361.594 32.5972C361.896 32.388 362.05 32.1169 362.05 31.7887C362.05 31.4368 361.882 31.1752 361.541 31.004C361.201 30.8328 360.668 30.6473 359.934 30.4428C359.223 30.2478 358.643 30.0623 358.196 29.8816C357.75 29.7009 357.361 29.4203 357.035 29.0445C356.709 28.6688 356.546 28.1742 356.546 27.5607C356.546 27.0613 356.694 26.6 356.992 26.1862C357.289 25.7724 357.717 25.4443 358.273 25.2065C358.83 24.9687 359.468 24.8498 360.193 24.8498C361.273 24.8498 362.141 25.1209 362.803 25.6583C363.466 26.2005 363.816 26.9377 363.864 27.8698H361.901C361.868 27.4513 361.695 27.1136 361.383 26.8616C361.071 26.6095 360.654 26.4858 360.126 26.4858C359.607 26.4858 359.214 26.581 358.936 26.7759C358.662 26.9709 358.523 27.2278 358.523 27.5417C358.523 27.7937 358.614 28.003 358.796 28.1742C358.979 28.3454 359.204 28.4786 359.468 28.5737C359.732 28.6688 360.121 28.7925 360.639 28.9399C361.33 29.1206 361.892 29.3061 362.333 29.4964C362.775 29.6866 363.159 29.9624 363.48 30.3239C363.802 30.6901 363.97 31.1704 363.979 31.7744C363.979 32.3071 363.83 32.7875 363.533 33.206C363.235 33.6245 362.813 33.9574 362.266 34.1952C361.719 34.433 361.081 34.5519 360.346 34.5519C359.603 34.5567 358.936 34.4235 358.34 34.1524Z" fill="white"/>
<path d="M370.515 27.1469C370.914 26.4193 371.451 25.8533 372.133 25.449C372.814 25.0448 373.577 24.845 374.412 24.845C375.031 24.845 375.646 24.9782 376.245 25.2445C376.85 25.5109 377.325 25.8676 377.685 26.3099V21.7727H379.667V34.3997H377.685V32.9825C377.364 33.439 376.917 33.8148 376.351 34.1096C375.785 34.4045 375.132 34.5519 374.398 34.5519C373.572 34.5519 372.814 34.3427 372.133 33.9289C371.451 33.5151 370.909 32.9349 370.515 32.1882C370.122 31.4415 369.92 30.5997 369.92 29.6533C369.92 28.7116 370.117 27.8793 370.515 27.1469ZM377.282 28.003C377.013 27.5274 376.658 27.1612 376.221 26.9091C375.785 26.6571 375.314 26.5334 374.811 26.5334C374.307 26.5334 373.836 26.6571 373.4 26.8996C372.963 27.1422 372.608 27.5036 372.339 27.9745C372.07 28.4453 371.936 29.0065 371.936 29.6533C371.936 30.3001 372.07 30.8708 372.339 31.3607C372.608 31.8506 372.963 32.2215 373.404 32.4783C373.846 32.7352 374.316 32.8636 374.806 32.8636C375.31 32.8636 375.78 32.7399 376.217 32.4878C376.653 32.2358 377.004 31.8696 377.277 31.3892C377.546 30.9041 377.68 30.3382 377.68 29.6914C377.685 29.0445 377.551 28.4786 377.282 28.003Z" fill="white"/>
<path d="M383.938 33.9479C383.214 33.5436 382.647 32.9729 382.235 32.2405C381.822 31.5081 381.616 30.6568 381.616 29.6913C381.616 28.7354 381.827 27.8888 382.254 27.1469C382.676 26.4097 383.257 25.839 383.991 25.4395C384.725 25.04 385.546 24.8403 386.453 24.8403C387.36 24.8403 388.181 25.04 388.915 25.4395C389.649 25.839 390.23 26.405 390.652 27.1469C391.074 27.8888 391.29 28.7354 391.29 29.6913C391.29 30.6473 391.074 31.4938 390.638 32.2358C390.201 32.9777 389.606 33.5484 388.857 33.9527C388.104 34.3569 387.274 34.5567 386.367 34.5567C385.469 34.5567 384.663 34.3522 383.938 33.9479ZM387.787 32.5069C388.229 32.2691 388.588 31.9076 388.862 31.432C389.136 30.9564 389.275 30.3762 389.275 29.6913C389.275 29.0065 389.14 28.431 388.881 27.9602C388.617 27.4893 388.267 27.1326 387.83 26.8948C387.394 26.657 386.923 26.5381 386.419 26.5381C385.915 26.5381 385.445 26.657 385.018 26.8948C384.586 27.1326 384.245 27.4893 383.996 27.9602C383.741 28.431 383.617 29.0112 383.617 29.6913C383.617 30.7043 383.876 31.4843 384.399 32.036C384.922 32.5877 385.579 32.8635 386.371 32.8635C386.87 32.8635 387.346 32.7446 387.787 32.5069Z" fill="white"/>
<path d="M204.763 40.7489V52.6103H202.8V44.4871L199.148 52.6103H197.79L194.124 44.4871V52.6103H192.161V40.7489H194.277L198.477 50.0468L202.661 40.7489H204.763Z" fill="white"/>
<path d="M215.935 43.2078V52.6103H213.972V51.5021C213.661 51.8874 213.257 52.1917 212.758 52.4153C212.259 52.6388 211.727 52.7482 211.165 52.7482C210.416 52.7482 209.749 52.596 209.159 52.2869C208.569 51.9777 208.103 51.5259 207.763 50.9219C207.422 50.3179 207.254 49.5902 207.254 48.7389V43.2078H209.202V48.4441C209.202 49.2859 209.413 49.9327 209.841 50.3797C210.263 50.8268 210.844 51.0551 211.578 51.0551C212.312 51.0551 212.893 50.8315 213.325 50.3797C213.757 49.9279 213.972 49.2859 213.972 48.4441V43.2078H215.935Z" fill="white"/>
<path d="M225.312 43.5121C225.903 43.8213 226.363 44.2731 226.699 44.8771C227.031 45.4811 227.199 46.2087 227.199 47.0601V52.6055H225.255V47.3502C225.255 46.5084 225.044 45.8616 224.617 45.4145C224.19 44.9674 223.614 44.7392 222.879 44.7392C222.145 44.7392 221.56 44.9627 221.133 45.4145C220.701 45.8663 220.49 46.5084 220.49 47.3502V52.6055H218.527V43.2077H220.49V44.2826C220.811 43.8974 221.219 43.593 221.723 43.379C222.222 43.1649 222.755 43.0556 223.316 43.0556C224.05 43.0508 224.722 43.2077 225.312 43.5121Z" fill="white"/>
<path d="M229.795 41.6002C229.555 41.3624 229.435 41.0676 229.435 40.7109C229.435 40.3589 229.555 40.0641 229.795 39.8215C230.035 39.5837 230.332 39.4648 230.687 39.4648C231.033 39.4648 231.326 39.5837 231.566 39.8215C231.806 40.0593 231.926 40.3542 231.926 40.7109C231.926 41.0628 231.806 41.3577 231.566 41.6002C231.326 41.838 231.033 41.9569 230.687 41.9569C230.337 41.9617 230.039 41.8428 229.795 41.6002ZM231.657 43.2077V52.6102H229.694V43.2077H231.657Z" fill="white"/>
<path d="M234.181 45.3479C234.575 44.6155 235.126 44.0496 235.827 43.6501C236.528 43.2506 237.329 43.0508 238.236 43.0508C239.383 43.0508 240.333 43.3219 241.087 43.8593C241.84 44.4015 242.344 45.172 242.613 46.1707H240.496C240.324 45.7046 240.05 45.3384 239.671 45.0768C239.292 44.8153 238.817 44.6869 238.241 44.6869C237.44 44.6869 236.796 44.9675 236.321 45.5334C235.846 46.0946 235.606 46.8841 235.606 47.8971C235.606 48.9101 235.846 49.6996 236.321 50.2703C236.796 50.8411 237.44 51.1217 238.241 51.1217C239.378 51.1217 240.132 50.627 240.496 49.6378H242.613C242.339 50.5937 241.821 51.3547 241.063 51.9159C240.305 52.4771 239.364 52.7625 238.241 52.7625C237.334 52.7625 236.533 52.558 235.832 52.1585C235.131 51.759 234.584 51.1835 234.186 50.4511C233.792 49.7187 233.591 48.8673 233.591 47.9019C233.586 46.9317 233.783 46.0804 234.181 45.3479Z" fill="white"/>
<path d="M247.325 40.6776L243.52 42.5372V41.1056L247.325 39.0225V40.6776ZM246.534 43.2078V52.6103H244.571V43.2078H246.534Z" fill="white"/>
<path d="M252.441 43.4979C253.017 43.203 253.665 43.0556 254.385 43.0556C255.21 43.0556 255.964 43.2601 256.65 43.6596C257.331 44.0638 257.869 44.6298 258.258 45.3575C258.646 46.0851 258.843 46.9222 258.843 47.8638C258.843 48.8103 258.646 49.6521 258.258 50.3988C257.869 51.1454 257.331 51.7257 256.65 52.1394C255.968 52.5532 255.21 52.7625 254.385 52.7625C253.66 52.7625 253.017 52.615 252.456 52.3249C251.894 52.0348 251.433 51.6733 251.078 51.2406V57.0761H249.115V43.2078H251.078V44.5917C251.414 44.1542 251.865 43.7927 252.441 43.4979ZM256.443 46.185C256.175 45.7141 255.82 45.3574 255.378 45.1101C254.937 44.8676 254.462 44.7439 253.958 44.7439C253.463 44.7439 252.998 44.8676 252.556 45.1197C252.115 45.3717 251.76 45.7332 251.491 46.2135C251.222 46.6939 251.088 47.2551 251.088 47.9019C251.088 48.5487 251.222 49.1146 251.491 49.5998C251.76 50.0849 252.115 50.4511 252.556 50.6984C252.998 50.9504 253.468 51.0741 253.958 51.0741C254.462 51.0741 254.937 50.9457 255.378 50.6889C255.82 50.432 256.175 50.0611 256.443 49.5712C256.712 49.0814 256.847 48.5154 256.847 47.8638C256.847 47.217 256.712 46.6558 256.443 46.185Z" fill="white"/>
<path d="M260.892 41.6002C260.652 41.3624 260.532 41.0676 260.532 40.7109C260.532 40.3589 260.652 40.0641 260.892 39.8215C261.132 39.5837 261.43 39.4648 261.785 39.4648C262.13 39.4648 262.423 39.5837 262.663 39.8215C262.903 40.0593 263.023 40.3542 263.023 40.7109C263.023 41.0628 262.903 41.3577 262.663 41.6002C262.423 41.838 262.13 41.9569 261.785 41.9569C261.434 41.9617 261.137 41.8428 260.892 41.6002ZM262.754 43.2077V52.6102H260.791V43.2077H262.754Z" fill="white"/>
<path d="M267.025 52.1537C266.301 51.7494 265.734 51.1787 265.322 50.4463C264.909 49.7139 264.703 48.8626 264.703 47.8971C264.703 46.9412 264.914 46.0946 265.341 45.3527C265.763 44.6155 266.344 44.0448 267.078 43.6453C267.812 43.2458 268.633 43.0461 269.54 43.0461C270.447 43.0461 271.268 43.2458 272.002 43.6453C272.736 44.0448 273.317 44.6108 273.739 45.3527C274.161 46.0946 274.377 46.9412 274.377 47.8971C274.377 48.8531 274.161 49.6996 273.725 50.4415C273.288 51.1835 272.693 51.7542 271.944 52.1584C271.191 52.5627 270.361 52.7624 269.454 52.7624C268.556 52.7624 267.745 52.5579 267.025 52.1537ZM270.874 50.7126C271.316 50.4748 271.676 50.1134 271.949 49.6378C272.223 49.1622 272.362 48.582 272.362 47.8971C272.362 47.2123 272.227 46.6368 271.968 46.1659C271.704 45.6951 271.354 45.3384 270.917 45.1006C270.481 44.8628 270.01 44.7439 269.506 44.7439C269.002 44.7439 268.532 44.8628 268.105 45.1006C267.673 45.3384 267.332 45.6951 267.083 46.1659C266.829 46.6368 266.704 47.217 266.704 47.8971C266.704 48.9101 266.963 49.6901 267.486 50.2418C268.009 50.7935 268.667 51.0693 269.458 51.0693C269.957 51.0741 270.428 50.9552 270.874 50.7126Z" fill="white"/>
<path d="M280.736 45.3574C281.129 44.6298 281.672 44.0638 282.353 43.6596C283.035 43.2553 283.798 43.0556 284.633 43.0556C285.252 43.0556 285.866 43.1887 286.466 43.4551C287.071 43.7214 287.546 44.0781 287.906 44.5204V39.9832H289.888V52.6103H287.906V51.193C287.584 51.6496 287.138 52.0253 286.572 52.3201C286.005 52.615 285.353 52.7624 284.618 52.7624C283.793 52.7624 283.035 52.5532 282.353 52.1394C281.672 51.7256 281.129 51.1454 280.736 50.3987C280.338 49.6521 280.141 48.8103 280.141 47.8638C280.146 46.9221 280.342 46.0851 280.736 45.3574ZM287.507 46.2088C287.239 45.7332 286.883 45.3669 286.447 45.1149C286.01 44.8628 285.54 44.7392 285.036 44.7392C284.532 44.7392 284.062 44.8628 283.625 45.1054C283.188 45.3527 282.833 45.7094 282.564 46.1802C282.296 46.6511 282.161 47.2123 282.161 47.8591C282.161 48.5059 282.296 49.0766 282.564 49.5664C282.833 50.0563 283.188 50.4273 283.63 50.6841C284.071 50.9409 284.542 51.0693 285.031 51.0693C285.535 51.0693 286.005 50.9457 286.442 50.6936C286.879 50.4415 287.229 50.0753 287.503 49.595C287.771 49.1099 287.906 48.5439 287.906 47.8971C287.91 47.2503 287.776 46.6891 287.507 46.2088Z" fill="white"/>
<path d="M301.098 48.6343H293.847C293.904 49.3857 294.183 49.9897 294.691 50.4415C295.195 50.8981 295.814 51.1264 296.549 51.1264C297.604 51.1264 298.353 50.6888 298.785 49.8137H300.901C300.613 50.6793 300.095 51.388 299.342 51.9397C298.588 52.4913 297.657 52.7672 296.544 52.7672C295.637 52.7672 294.826 52.5627 294.106 52.1632C293.386 51.7589 292.825 51.1882 292.417 50.4558C292.009 49.7234 291.807 48.8721 291.807 47.9066C291.807 46.9412 292.004 46.0898 292.402 45.3574C292.796 44.625 293.357 44.0591 294.072 43.6596C294.787 43.2601 295.613 43.0603 296.544 43.0603C297.441 43.0603 298.238 43.2553 298.939 43.6405C299.639 44.0258 300.181 44.5727 300.575 45.2718C300.964 45.9709 301.16 46.7747 301.16 47.6878C301.17 48.0303 301.146 48.3489 301.098 48.6343ZM299.121 47.0648C299.111 46.3467 298.852 45.7759 298.348 45.3432C297.844 44.9104 297.216 44.6963 296.472 44.6963C295.795 44.6963 295.215 44.9104 294.735 45.3384C294.25 45.7664 293.967 46.3419 293.876 47.0696H299.121V47.0648Z" fill="white"/>
<path d="M315.509 45.9852C315.222 46.5179 314.761 46.9554 314.132 47.2884C313.499 47.626 312.692 47.7925 311.704 47.7925H309.535V52.6055H307.572V40.7489H311.704C312.62 40.7489 313.398 40.9059 314.036 41.2198C314.674 41.5337 315.15 41.9569 315.466 42.4896C315.783 43.0223 315.941 43.6215 315.941 44.2826C315.941 44.8818 315.797 45.4526 315.509 45.9852ZM313.374 45.7046C313.743 45.367 313.926 44.8961 313.926 44.2778C313.926 42.9795 313.187 42.3327 311.704 42.3327H309.535V46.204H311.704C312.452 46.2088 313.009 46.0423 313.374 45.7046Z" fill="white"/>
<path d="M317.76 45.3575C318.154 44.6298 318.696 44.0638 319.377 43.6596C320.059 43.2553 320.817 43.0556 321.643 43.0556C322.391 43.0556 323.039 43.203 323.596 43.4931C324.152 43.7832 324.599 44.1447 324.93 44.5775V43.2125H326.912V52.615H324.93V51.2168C324.599 51.6591 324.143 52.03 323.572 52.3249C322.996 52.6198 322.343 52.7672 321.609 52.7672C320.793 52.7672 320.049 52.5579 319.373 52.1442C318.696 51.7304 318.159 51.1502 317.765 50.4035C317.367 49.6568 317.17 48.815 317.17 47.8686C317.165 46.9222 317.362 46.0851 317.76 45.3575ZM324.527 46.2088C324.258 45.7332 323.903 45.367 323.466 45.1149C323.029 44.8628 322.559 44.7392 322.055 44.7392C321.551 44.7392 321.081 44.8628 320.644 45.1054C320.208 45.3527 319.853 45.7094 319.584 46.1802C319.315 46.6511 319.181 47.2123 319.181 47.8591C319.181 48.5059 319.315 49.0766 319.584 49.5665C319.853 50.0563 320.208 50.4273 320.649 50.6841C321.091 50.9409 321.561 51.0693 322.05 51.0693C322.554 51.0693 323.025 50.9457 323.461 50.6936C323.898 50.4416 324.248 50.0753 324.522 49.595C324.791 49.1099 324.925 48.5439 324.925 47.8971C324.93 47.2503 324.795 46.6891 324.527 46.2088Z" fill="white"/>
<path d="M332.599 43.4551C333.074 43.1887 333.64 43.0556 334.293 43.0556V45.0673H333.794C333.026 45.0673 332.44 45.2623 332.047 45.6476C331.648 46.0328 331.452 46.7034 331.452 47.6593V52.6055H329.489V43.2078H331.452V44.5727C331.744 44.0924 332.124 43.7214 332.599 43.4551Z" fill="white"/>
<path d="M342.897 43.5121C343.488 43.8213 343.948 44.2731 344.284 44.8771C344.615 45.4811 344.783 46.2087 344.783 47.0601V52.6055H342.84V47.3502C342.84 46.5084 342.629 45.8616 342.201 45.4145C341.774 44.9674 341.198 44.7392 340.464 44.7392C339.73 44.7392 339.144 44.9627 338.717 45.4145C338.285 45.8663 338.074 46.5084 338.074 47.3502V52.6055H336.112V43.2077H338.074V44.2826C338.396 43.8974 338.804 43.593 339.308 43.379C339.807 43.1649 340.339 43.0556 340.901 43.0556C341.635 43.0508 342.307 43.2077 342.897 43.5121Z" fill="white"/>
<path d="M347.216 45.3575C347.61 44.6298 348.152 44.0638 348.834 43.6596C349.515 43.2553 350.273 43.0556 351.099 43.0556C351.847 43.0556 352.495 43.203 353.052 43.4931C353.609 43.7832 354.055 44.1447 354.386 44.5775V43.2125H356.368V52.615H354.386V51.2168C354.055 51.6591 353.599 52.03 353.028 52.3249C352.452 52.6198 351.799 52.7672 351.065 52.7672C350.249 52.7672 349.505 52.5579 348.829 52.1442C348.152 51.7304 347.615 51.1502 347.221 50.4035C346.823 49.6568 346.626 48.815 346.626 47.8686C346.626 46.9222 346.823 46.0851 347.216 45.3575ZM353.988 46.2088C353.719 45.7332 353.364 45.367 352.927 45.1149C352.49 44.8628 352.02 44.7392 351.516 44.7392C351.012 44.7392 350.542 44.8628 350.105 45.1054C349.669 45.3527 349.314 45.7094 349.045 46.1802C348.776 46.6511 348.642 47.2123 348.642 47.8591C348.642 48.5059 348.776 49.0766 349.045 49.5665C349.314 50.0563 349.669 50.4273 350.11 50.6841C350.552 50.9409 351.022 51.0693 351.511 51.0693C352.015 51.0693 352.486 50.9457 352.922 50.6936C353.359 50.4416 353.709 50.0753 353.983 49.595C354.252 49.1099 354.386 48.5439 354.386 47.8971C354.391 47.2503 354.256 46.6891 353.988 46.2088Z" fill="white"/>
<path d="M372.445 43.5121C373.035 43.8213 373.5 44.2731 373.841 44.8771C374.177 45.4811 374.35 46.2087 374.35 47.0601V52.6055H372.401V47.3502C372.401 46.5084 372.19 45.8616 371.763 45.4145C371.336 44.9674 370.76 44.7392 370.026 44.7392C369.292 44.7392 368.711 44.9627 368.279 45.4145C367.847 45.8663 367.631 46.5084 367.631 47.3502V52.6055H365.688V47.3502C365.688 46.5084 365.477 45.8616 365.049 45.4145C364.622 44.9674 364.046 44.7392 363.312 44.7392C362.578 44.7392 361.992 44.9627 361.565 45.4145C361.133 45.8663 360.922 46.5084 360.922 47.3502V52.6055H358.96V43.2077H360.922V44.2826C361.244 43.8974 361.652 43.593 362.146 43.379C362.64 43.1649 363.168 43.0556 363.73 43.0556C364.488 43.0556 365.165 43.2125 365.76 43.5312C366.355 43.8498 366.815 44.3111 367.137 44.9151C367.425 44.3444 367.871 43.8926 368.481 43.5597C369.09 43.222 369.743 43.0556 370.443 43.0556C371.183 43.0508 371.854 43.2077 372.445 43.5121Z" fill="white"/>
<path d="M376.946 41.6002C376.706 41.3624 376.586 41.0676 376.586 40.7109C376.586 40.3589 376.706 40.0641 376.946 39.8215C377.186 39.5837 377.484 39.4648 377.839 39.4648C378.184 39.4648 378.477 39.5837 378.717 39.8215C378.957 40.0593 379.077 40.3542 379.077 40.7109C379.077 41.0628 378.957 41.3577 378.717 41.6002C378.477 41.838 378.184 41.9569 377.839 41.9569C377.488 41.9617 377.186 41.8428 376.946 41.6002ZM378.808 43.2077V52.6102H376.845V43.2077H378.808Z" fill="white"/>
<path d="M384.495 43.4551C384.97 43.1887 385.536 43.0556 386.189 43.0556V45.0673H385.69C384.922 45.0673 384.337 45.2623 383.943 45.6476C383.55 46.0328 383.348 46.7034 383.348 47.6593V52.6055H381.385V43.2078H383.348V44.5727C383.641 44.0924 384.02 43.7214 384.495 43.4551Z" fill="white"/>
<path d="M388.104 41.6002C387.864 41.3624 387.744 41.0676 387.744 40.7109C387.744 40.3589 387.864 40.0641 388.104 39.8215C388.344 39.5837 388.641 39.4648 388.996 39.4648C389.342 39.4648 389.635 39.5837 389.875 39.8215C390.115 40.0593 390.234 40.3542 390.234 40.7109C390.234 41.0628 390.115 41.3577 389.875 41.6002C389.635 41.838 389.342 41.9569 388.996 41.9569C388.641 41.9617 388.344 41.8428 388.104 41.6002ZM389.966 43.2077V52.6102H388.003V43.2077H389.966Z" fill="white"/>
<path d="M406.038 43.5121C406.628 43.8213 407.093 44.2731 407.434 44.8771C407.77 45.4811 407.943 46.2087 407.943 47.0601V52.6055H405.994V47.3502C405.994 46.5084 405.783 45.8616 405.356 45.4145C404.929 44.9674 404.353 44.7392 403.619 44.7392C402.885 44.7392 402.304 44.9627 401.872 45.4145C401.44 45.8663 401.224 46.5084 401.224 47.3502V52.6055H399.281V47.3502C399.281 46.5084 399.069 45.8616 398.642 45.4145C398.215 44.9674 397.639 44.7392 396.905 44.7392C396.171 44.7392 395.585 44.9627 395.158 45.4145C394.726 45.8663 394.515 46.5084 394.515 47.3502V52.6055H392.552V43.2077H394.515V44.2826C394.837 43.8974 395.245 43.593 395.739 43.379C396.233 43.1649 396.761 43.0556 397.323 43.0556C398.081 43.0556 398.758 43.2125 399.353 43.5312C399.948 43.8498 400.408 44.3111 400.73 44.9151C401.018 44.3444 401.464 43.8926 402.074 43.5597C402.683 43.222 403.336 43.0556 404.036 43.0556C404.775 43.0508 405.447 43.2077 406.038 43.5121Z" fill="white"/>
<path d="M416.807 36.4971L412.123 55.5923H410.193L414.858 36.4971H416.807Z" fill="white"/>
<path d="M425.502 52.6103L422.748 47.8638H421.25V52.6103H419.288V40.7489H423.42C424.336 40.7489 425.114 40.9106 425.752 41.2293C426.39 41.5479 426.865 41.976 427.182 42.5086C427.499 43.0413 427.657 43.6405 427.657 44.3016C427.657 45.0768 427.431 45.776 426.976 46.4085C426.52 47.041 425.824 47.4691 424.883 47.6974L427.844 52.6103H425.502ZM421.25 46.3134H423.42C424.154 46.3134 424.71 46.1327 425.08 45.7665C425.454 45.4002 425.641 44.9151 425.641 44.2969C425.641 43.6834 425.459 43.203 425.09 42.8558C424.72 42.5086 424.163 42.3374 423.42 42.3374H421.25V46.3134Z" fill="white"/>
<path d="M440 52.6102H438.037L432.13 43.7547V52.6102H430.167V40.7299H432.13L438.037 49.5712V40.7299H440V52.6102Z" fill="white"/>
<path d="M19.5319 18.6433C15.2368 18.6433 11.0953 20.0368 7.71197 22.5907V0.713392C7.71197 0.318648 7.39044 0 6.99213 0H0.719848C0.321532 0 0 0.318648 0 0.713392V38C0 43.5026 2.3707 48.7579 6.51223 52.4248C10.0923 55.6017 14.7185 57.3567 19.5367 57.3567C30.3056 57.3567 39.0686 48.6723 39.0686 38C39.0686 27.3277 30.3008 18.6433 19.5319 18.6433ZM31.3518 38C31.3518 44.4586 26.0489 49.7139 19.5319 49.7139C13.0149 49.7139 7.71197 44.4586 7.71197 38C7.71197 31.5414 13.0149 26.2861 19.5319 26.2861C26.0489 26.2861 31.3518 31.5414 31.3518 38Z" fill="white"/>
<path d="M161.289 18.6433C156.471 18.6433 151.85 20.3935 148.27 23.5752C144.133 27.2421 141.757 32.5021 141.757 38.0048V75.2914C141.757 75.6861 142.079 76.0048 142.477 76.0048H148.749C149.148 76.0048 149.469 75.6861 149.469 75.2914V53.414C152.857 55.968 156.999 57.3615 161.289 57.3615C172.058 57.3615 180.821 48.6771 180.821 38.0048C180.821 27.3324 172.058 18.6433 161.289 18.6433ZM173.109 38C173.109 44.4586 167.806 49.7139 161.289 49.7139C154.772 49.7139 149.469 44.4586 149.469 38C149.469 31.5414 154.772 26.2861 161.289 26.2861C167.806 26.2861 173.109 31.5414 173.109 38Z" fill="white"/>
<path d="M61.547 18.6433C51.9683 18.6433 43.8676 25.43 42.2839 34.7755C42.1015 35.8361 42.0152 36.9204 42.0152 38C42.0152 39.0796 42.1063 40.164 42.2839 41.2245C43.8628 50.57 51.9635 57.3567 61.547 57.3567C66.7683 57.3567 71.6729 55.3449 75.3585 51.6876C75.6417 51.407 75.6417 50.9552 75.3585 50.6794L70.9242 46.2849C70.6411 46.0043 70.1852 46.009 69.9069 46.2849C67.6705 48.4964 64.7048 49.7139 61.547 49.7139C56.4649 49.7139 51.9922 46.5131 50.3654 41.819H80.0951C80.4454 41.819 80.7478 41.567 80.8054 41.2245C80.9877 40.164 81.0789 39.0796 81.0789 38C81.0789 36.9204 80.9877 35.8361 80.8102 34.7755C79.2265 25.43 71.1258 18.6433 61.547 18.6433ZM50.3654 34.181C51.9922 29.4869 56.4649 26.2861 61.547 26.2861C66.6292 26.2861 71.1018 29.4869 72.7287 34.181H50.3654Z" fill="white"/>
<path d="M122.566 18.6433C119.519 18.6433 116.567 19.5232 114.038 21.1877C112.268 22.3577 109.974 22.3529 108.203 21.1877C105.674 19.5232 102.727 18.6433 99.675 18.6433C92.5197 18.6433 86.1898 23.6561 84.6206 30.5617C84.371 31.6603 84.2414 32.797 84.2414 33.9432V56.6481C84.2414 57.0428 84.563 57.3615 84.9613 57.3615H91.5023C91.9006 57.3615 92.2222 57.0428 92.2222 56.6481V33.6198C92.2222 29.5867 95.3079 26.2671 99.2479 26.0626C99.531 26.0483 99.819 26.0483 100.107 26.0626C104.047 26.2718 107.133 29.5915 107.133 33.6198V56.6481C107.133 57.0428 107.454 57.3615 107.852 57.3615H114.393C114.792 57.3615 115.113 57.0428 115.113 56.6481V33.6198C115.113 29.5867 118.199 26.2671 122.139 26.0626C122.422 26.0483 122.71 26.0483 122.998 26.0626C126.938 26.2718 130.024 29.5915 130.024 33.6198V56.6481C130.024 57.0428 130.345 57.3615 130.744 57.3615H137.285C137.683 57.3615 138.005 57.0428 138.005 56.6481V33.9384C138.005 32.7922 137.875 31.6556 137.625 30.5617C136.051 23.6561 129.721 18.6433 122.566 18.6433Z" fill="white"/>
</svg>
