<svg width="134" height="42" viewBox="0 0 134 42" fill="none" xmlns="http://www.w3.org/2000/svg">
<path d="M7.82782 0C3.51189 0 0 3.50505 0 7.81258V33.0116L6.26289 42H31.5702V38.1503L35.1429 42H134.002V0H7.82782ZM132.187 40.1908H35.9341L29.7559 33.5365V40.1908H7.2108L1.81269 32.4453V7.81258C1.81269 4.50057 4.51414 1.81076 7.82622 1.81076H132.186V40.1908H132.187Z" fill="white"/>
<path d="M27.5996 11.7979H43.3591V16.4133H32.224V25.633H43.3591V30.2484H32.224L27.5996 25.633V11.7979Z" fill="white"/>
<path d="M67.8959 5.92685H63.2747V10.5391H67.8959V5.92685Z" fill="white"/>
<path d="M13.7774 16.4117V25.633H21.3383V21.0191H25.9611V30.2484H9.15456V16.8696C9.15456 14.0697 11.4292 11.7994 14.2346 11.7994H21.3383H25.9611V16.4133H13.7774V16.4117Z" fill="white"/>
<path d="M67.9023 11.7979V30.25H63.2731V16.4085H55.7074V30.25H51.0862V16.4085H44.9944V11.7979H67.9023Z" fill="white"/>
<path d="M75.4904 11.7978H74.8286V30.25H75.4904V11.7978Z" fill="white"/>
<path d="M78.9208 15.2263C79.0838 15.2902 79.2564 15.3237 79.4387 15.3237C79.7152 15.3237 79.9566 15.263 80.1596 15.1434C80.3626 15.0237 80.5208 14.8562 80.6327 14.644C80.7446 14.4318 80.8006 14.1877 80.8006 13.9117C80.8006 13.9054 80.8006 13.8798 80.799 13.8352C80.7974 13.7921 80.7958 13.7602 80.7926 13.7426H79.7584V14.1606H80.2139C80.1852 14.3122 80.1356 14.4366 80.0669 14.5339C79.9981 14.6313 79.9134 14.7015 79.8127 14.7477C79.712 14.794 79.6001 14.8147 79.4754 14.8115C79.2932 14.8083 79.1413 14.7669 79.0199 14.6855C78.8984 14.6041 78.8073 14.4909 78.7465 14.3441C78.6858 14.1973 78.6554 14.025 78.6554 13.8256C78.6554 13.6262 78.6858 13.4523 78.7465 13.3023C78.8073 13.1539 78.8984 13.0391 79.0199 12.9577C79.1413 12.8763 79.2932 12.8381 79.4754 12.8396C79.6593 12.8412 79.8095 12.8923 79.9278 12.9928C80.0461 13.0933 80.1308 13.2273 80.182 13.3948L80.7366 13.3151C80.6647 13.0008 80.5224 12.7583 80.3114 12.5876C80.0988 12.4153 79.8079 12.3307 79.4387 12.3307C79.1877 12.3307 78.9607 12.3897 78.7545 12.5062C78.5483 12.6227 78.3853 12.7934 78.2622 13.0151C78.1391 13.2369 78.0799 13.5081 78.0799 13.8256C78.0799 14.0697 78.1167 14.2835 78.1886 14.4701C78.2606 14.6568 78.3597 14.8131 78.486 14.9392C78.6122 15.0668 78.7577 15.1625 78.9208 15.2263Z" fill="white"/>
<path d="M82.1433 14.2914H82.7492L83.2223 15.2646H83.8377L83.3166 14.1973C83.4413 14.1415 83.5452 14.0649 83.6187 13.9596C83.7386 13.7889 83.7978 13.5831 83.7978 13.3422C83.7978 13.1811 83.7722 13.0359 83.7194 12.9051C83.6667 12.7742 83.5868 12.6657 83.4765 12.5796C83.3662 12.4934 83.2255 12.436 83.0545 12.4105C83.0177 12.4041 82.9745 12.3993 82.9282 12.3977C82.8802 12.3961 82.8435 12.3945 82.8147 12.3945H81.5999V15.2662H82.1433V14.2914ZM82.1433 12.8987H82.7907C82.8179 12.8987 82.8499 12.9003 82.8834 12.9035C82.917 12.9066 82.9474 12.9114 82.9745 12.9194C83.0481 12.9386 83.104 12.9737 83.144 13.0199C83.1839 13.0662 83.2111 13.1188 83.2271 13.1779C83.2431 13.2353 83.2495 13.2911 83.2495 13.3422C83.2495 13.3932 83.2415 13.4491 83.2271 13.5065C83.2111 13.5639 83.1839 13.6166 83.144 13.6645C83.104 13.7123 83.0481 13.7458 82.9745 13.765C82.9474 13.7729 82.9154 13.7777 82.8834 13.7809C82.8499 13.7841 82.8195 13.7841 82.7907 13.7841H82.1433V12.8987Z" fill="white"/>
<path d="M85.2364 15.1832C85.4122 15.2774 85.6168 15.3236 85.8486 15.3236C86.0804 15.3236 86.2834 15.2774 86.4608 15.1832C86.6367 15.0891 86.7742 14.9567 86.8717 14.7876C86.9708 14.6169 87.0203 14.4175 87.0203 14.1877V12.3913H86.4688V14.1829C86.4688 14.2755 86.4529 14.3616 86.4225 14.4382C86.3905 14.5148 86.3474 14.5818 86.2914 14.6376C86.2355 14.6935 86.1699 14.7365 86.0948 14.7668C86.0197 14.7972 85.9381 14.8131 85.8502 14.8131C85.7655 14.8131 85.684 14.7988 85.6088 14.7684C85.5337 14.7381 85.4682 14.6951 85.4106 14.6392C85.3547 14.5834 85.3099 14.5164 85.278 14.4398C85.246 14.3632 85.23 14.2771 85.23 14.1829V12.3913L84.6785 12.3961V14.1861C84.6785 14.4159 84.7281 14.6169 84.8256 14.786C84.9231 14.9567 85.0606 15.0891 85.2364 15.1832Z" fill="white"/>
<path d="M88.5213 14.2914H89.1927C89.2198 14.2914 89.2566 14.2898 89.3046 14.2867C89.3525 14.2835 89.3957 14.2803 89.4324 14.2739C89.6035 14.2468 89.7425 14.1909 89.8528 14.1048C89.9631 14.0186 90.0447 13.9101 90.0958 13.7793C90.1486 13.6485 90.1741 13.5017 90.1741 13.3422C90.1741 13.1811 90.1486 13.0359 90.0958 12.9051C90.0431 12.7742 89.9631 12.6657 89.8528 12.5796C89.7425 12.4934 89.6019 12.436 89.4308 12.4105C89.3941 12.4041 89.3509 12.3993 89.3046 12.3977C89.2566 12.3961 89.2198 12.3945 89.1911 12.3945H87.9762V15.2662H88.5197V14.2914H88.5213ZM88.5213 12.8987H89.1687C89.1959 12.8987 89.2278 12.9003 89.2614 12.9035C89.295 12.9066 89.3253 12.9114 89.3525 12.9194C89.426 12.9386 89.482 12.9737 89.522 13.0199C89.5619 13.0662 89.5891 13.1188 89.6051 13.1779C89.6211 13.2353 89.6275 13.2911 89.6275 13.3422C89.6275 13.3932 89.6195 13.4491 89.6051 13.5065C89.5891 13.5639 89.5619 13.6166 89.522 13.6645C89.482 13.7123 89.426 13.7458 89.3525 13.765C89.3253 13.7729 89.2934 13.7777 89.2614 13.7809C89.2278 13.7841 89.1975 13.7841 89.1687 13.7841H88.5213V12.8987Z" fill="white"/>
<path d="M91.4657 15.1354C91.6735 15.2598 91.9229 15.322 92.2106 15.322C92.4983 15.322 92.7461 15.2598 92.9555 15.1354C93.1633 15.011 93.3248 14.8355 93.4367 14.6105C93.5486 14.3856 93.6061 14.1255 93.6061 13.8272C93.6061 13.5288 93.5502 13.2688 93.4367 13.0438C93.3232 12.8189 93.1633 12.645 92.9555 12.519C92.7477 12.3945 92.4983 12.3323 92.2106 12.3323C91.9229 12.3323 91.6751 12.3945 91.4657 12.519C91.2579 12.6434 91.0965 12.8189 90.9846 13.0438C90.8711 13.2688 90.8151 13.5304 90.8151 13.8272C90.8151 14.1255 90.8711 14.3856 90.9846 14.6105C91.0965 14.8371 91.2579 15.011 91.4657 15.1354ZM91.4817 13.3055C91.5425 13.1571 91.6336 13.0422 91.7551 12.9609C91.8765 12.8795 92.0284 12.8412 92.2106 12.8428C92.3928 12.8444 92.5447 12.8875 92.6662 12.9689C92.7877 13.0502 92.8788 13.1635 92.9395 13.3103C93.0003 13.457 93.0306 13.6294 93.0306 13.8288C93.0306 14.0282 93.0003 14.2021 92.9395 14.3521C92.8788 14.5004 92.7877 14.6153 92.6662 14.6967C92.5447 14.778 92.3928 14.8163 92.2106 14.8147C92.0284 14.8131 91.8765 14.77 91.7551 14.6887C91.6336 14.6073 91.5425 14.494 91.4817 14.3473C91.421 14.2005 91.3906 14.0282 91.3906 13.8288C91.3906 13.6294 91.421 13.4539 91.4817 13.3055Z" fill="white"/>
<path d="M96.6736 15.2614C96.7439 15.2598 96.8127 15.255 96.8766 15.2471C97.1084 15.2184 97.305 15.1386 97.4665 15.0062C97.6279 14.8738 97.751 14.7046 97.8341 14.5004C97.9172 14.2962 97.9604 14.0713 97.9604 13.8288C97.9604 13.5863 97.9188 13.3613 97.8341 13.1571C97.7494 12.9529 97.6279 12.7838 97.4665 12.6514C97.305 12.519 97.1084 12.4376 96.8766 12.4105C96.8111 12.4025 96.7439 12.3977 96.6736 12.3961C96.6033 12.3945 96.5569 12.3945 96.5329 12.3945H95.601V15.2662H96.5329C96.5569 15.263 96.6033 15.263 96.6736 15.2614ZM96.1541 12.9019H96.5345C96.5697 12.9019 96.6193 12.9019 96.68 12.9035C96.7407 12.9051 96.7967 12.9114 96.8462 12.921C96.9677 12.9449 97.0684 13.0008 97.1484 13.0901C97.2283 13.1795 97.2874 13.2879 97.3274 13.4172C97.3674 13.5464 97.3865 13.682 97.3865 13.8256C97.3865 13.9628 97.3674 14.0952 97.329 14.2244C97.2906 14.3537 97.2331 14.4637 97.1532 14.5563C97.0732 14.6488 96.9725 14.7062 96.8462 14.7318C96.7967 14.7413 96.7423 14.7461 96.68 14.7493C96.6193 14.7509 96.5697 14.7525 96.5345 14.7525H96.1541V12.9019Z" fill="white"/>
<path d="M100.718 14.7573H99.3831V14.0186H100.478V13.5129H99.3831V12.8987H100.718V12.3913H98.8396V15.263H100.718V14.7573Z" fill="white"/>
<path d="M103.287 15.1354C103.494 15.2598 103.744 15.322 104.031 15.322C104.362 15.322 104.639 15.2407 104.864 15.0764C105.088 14.912 105.246 14.6919 105.339 14.4127L104.791 14.2611C104.738 14.4334 104.647 14.569 104.521 14.6663C104.394 14.7637 104.231 14.8115 104.031 14.8115C103.849 14.8115 103.697 14.7716 103.574 14.6903C103.453 14.6089 103.36 14.4956 103.299 14.3473C103.239 14.2005 103.207 14.0266 103.207 13.8272C103.207 13.6278 103.237 13.4539 103.299 13.3071C103.36 13.1603 103.453 13.0454 103.574 12.9641C103.696 12.8827 103.848 12.8428 104.031 12.8428C104.231 12.8428 104.394 12.8907 104.521 12.988C104.647 13.0837 104.736 13.2193 104.791 13.3932L105.339 13.2417C105.246 12.9625 105.088 12.7407 104.864 12.578C104.64 12.4153 104.362 12.3323 104.031 12.3323C103.744 12.3323 103.496 12.3945 103.287 12.519C103.079 12.6434 102.917 12.8189 102.805 13.0438C102.692 13.2688 102.636 13.5304 102.636 13.8272C102.636 14.1255 102.692 14.3856 102.805 14.6105C102.917 14.8371 103.079 15.011 103.287 15.1354Z" fill="white"/>
<path d="M106.76 12.3913H106.217V15.263H106.76V12.3913Z" fill="white"/>
<path d="M109.637 14.7573H108.303V14.0186H109.398V13.5129H108.303V12.8987H109.637V12.3913H107.759V15.263H109.637V14.7573Z" fill="white"/>
<path d="M108.678 11.8585L109.206 12.1281L109.398 11.7883L108.678 11.4134L107.959 11.7883L108.151 12.1281L108.678 11.8585Z" fill="white"/>
<path d="M112.32 14.3058L111.068 12.3913H110.517V15.263H111.068V13.3486L112.32 15.263H112.871V12.3913H112.32V14.3058Z" fill="white"/>
<path d="M116.372 14.4143L115.824 14.2627C115.771 14.435 115.68 14.5706 115.553 14.6679C115.427 14.7653 115.264 14.8131 115.064 14.8131C114.882 14.8131 114.73 14.7732 114.607 14.6919C114.486 14.6105 114.393 14.4972 114.332 14.3489C114.271 14.2021 114.239 14.0282 114.239 13.8288C114.239 13.6293 114.27 13.4554 114.332 13.3087C114.393 13.1619 114.486 13.047 114.607 12.9657C114.729 12.8843 114.88 12.8444 115.064 12.8444C115.264 12.8444 115.427 12.8923 115.553 12.9896C115.68 13.0853 115.769 13.2209 115.824 13.3948L116.372 13.2433C116.279 12.9641 116.121 12.7423 115.897 12.5796C115.673 12.4169 115.395 12.3339 115.064 12.3339C114.777 12.3339 114.529 12.3961 114.319 12.5206C114.112 12.645 113.95 12.8205 113.838 13.0454C113.725 13.2704 113.669 13.532 113.669 13.8288C113.669 14.1271 113.725 14.3871 113.838 14.6121C113.95 14.837 114.112 15.0109 114.319 15.137C114.527 15.2614 114.777 15.3236 115.064 15.3236C115.395 15.3236 115.672 15.2423 115.897 15.0779C116.121 14.9152 116.279 14.6935 116.372 14.4143Z" fill="white"/>
<path d="M117.794 12.3913H117.251V15.263H117.794V12.3913Z" fill="white"/>
<path d="M120.603 15.263H121.162L120.283 12.3913H119.471L118.592 15.263H119.152L119.334 14.6647H120.418L120.603 15.263ZM119.489 14.159L119.873 12.9003L120.263 14.159H119.489Z" fill="white"/>
<path d="M80.118 19.5434H78.7833V18.8047H79.8782V18.299H78.7833V17.6848H80.118V17.1775H78.2398V20.0491H80.118V19.5434Z" fill="white"/>
<path d="M83.4061 20.0491V17.6848H84.3141V17.1775H81.9563V17.6848H82.8626V20.0491H83.4061Z" fill="white"/>
<path d="M86.9116 17.6848V17.1775H85.0334V20.0491H86.9116V19.5434H85.5769V18.8047H86.6718V18.299H85.5769V17.6848H86.9116Z" fill="white"/>
<path d="M90.2317 19.2004L89.6834 19.0488C89.6306 19.2211 89.5395 19.3568 89.4133 19.4541C89.287 19.5514 89.1239 19.5993 88.9241 19.5993C88.7419 19.5993 88.59 19.5594 88.4669 19.478C88.3455 19.3966 88.2527 19.2834 88.192 19.135C88.1313 18.9882 88.0993 18.8143 88.0993 18.6149C88.0993 18.4155 88.1297 18.2416 88.192 18.0948C88.2527 17.948 88.3455 17.8332 88.4669 17.7518C88.5884 17.6704 88.7403 17.6305 88.9241 17.6305C89.1239 17.6305 89.287 17.6784 89.4133 17.7757C89.5395 17.8715 89.6291 18.0071 89.6834 18.181L90.2317 18.0294C90.139 17.7502 89.9807 17.5284 89.7569 17.3657C89.5331 17.203 89.255 17.12 88.9241 17.12C88.6364 17.12 88.3886 17.1822 88.1792 17.3067C87.9714 17.4311 87.81 17.6066 87.6981 17.8316C87.5846 18.0565 87.5286 18.3182 87.5286 18.6149C87.5286 18.9132 87.5846 19.1733 87.6981 19.3982C87.81 19.6232 87.9714 19.7971 88.1792 19.9231C88.387 20.0476 88.6364 20.1098 88.9241 20.1098C89.255 20.1098 89.5315 20.0284 89.7569 19.8641C89.9823 19.7014 90.1406 19.4796 90.2317 19.2004Z" fill="white"/>
<path d="M93.4255 20.0491V17.1775H92.874V19.0919L91.6224 17.1775H91.0709V20.0491H91.6224V18.1347L92.874 20.0491H93.4255Z" fill="white"/>
<path d="M94.8753 19.9215C95.0831 20.046 95.3325 20.1082 95.6202 20.1082C95.9079 20.1082 96.1557 20.046 96.3651 19.9215C96.5729 19.7971 96.7344 19.6216 96.8462 19.3966C96.9581 19.1717 97.0157 18.9116 97.0157 18.6133C97.0157 18.315 96.9597 18.0549 96.8462 17.83C96.7328 17.605 96.5729 17.4311 96.3651 17.3051C96.1573 17.1807 95.9079 17.1184 95.6202 17.1184C95.3325 17.1184 95.0847 17.1807 94.8753 17.3051C94.6675 17.4295 94.5061 17.605 94.3942 17.83C94.2807 18.0549 94.2247 18.3166 94.2247 18.6133C94.2247 18.9116 94.2807 19.1717 94.3942 19.3966C94.5061 19.6232 94.6659 19.7971 94.8753 19.9215ZM94.8913 18.0916C94.952 17.9433 95.0432 17.8284 95.1646 17.747C95.2861 17.6657 95.438 17.6274 95.6202 17.629C95.8024 17.6306 95.9543 17.6736 96.0758 17.755C96.1973 17.8364 96.2884 17.9496 96.3491 18.0964C96.4099 18.2432 96.4402 18.4155 96.4402 18.6149C96.4402 18.8143 96.4099 18.9882 96.3491 19.1382C96.2884 19.2866 96.1973 19.4014 96.0758 19.4828C95.9543 19.5642 95.8024 19.6024 95.6202 19.6009C95.438 19.5993 95.2861 19.5562 95.1646 19.4748C95.0432 19.3935 94.952 19.2802 94.8913 19.1334C94.8305 18.9866 94.8002 18.8143 94.8002 18.6149C94.8002 18.4155 94.8305 18.24 94.8913 18.0916Z" fill="white"/>
<path d="M97.8533 17.1775V20.0491H99.6356V19.5434H98.3968V17.1775H97.8533Z" fill="white"/>
<path d="M100.304 17.83C100.19 18.0549 100.134 18.3166 100.134 18.6133C100.134 18.9116 100.19 19.1717 100.304 19.3966C100.416 19.6216 100.577 19.7955 100.785 19.9215C100.993 20.046 101.242 20.1082 101.53 20.1082C101.818 20.1082 102.065 20.046 102.275 19.9215C102.483 19.7971 102.644 19.6216 102.756 19.3966C102.868 19.1717 102.925 18.9116 102.925 18.6133C102.925 18.315 102.869 18.0549 102.756 17.83C102.642 17.605 102.483 17.4311 102.275 17.3051C102.067 17.1807 101.818 17.1184 101.53 17.1184C101.242 17.1184 100.994 17.1807 100.785 17.3051C100.577 17.4311 100.416 17.605 100.304 17.83ZM100.801 18.0916C100.862 17.9433 100.953 17.8284 101.074 17.747C101.196 17.6657 101.348 17.6274 101.53 17.629C101.712 17.6306 101.864 17.6736 101.985 17.755C102.107 17.8364 102.198 17.9496 102.259 18.0964C102.319 18.2432 102.35 18.4155 102.35 18.6149C102.35 18.8143 102.319 18.9882 102.259 19.1382C102.198 19.2866 102.107 19.4014 101.985 19.4828C101.864 19.5642 101.712 19.6024 101.53 19.6009C101.348 19.5993 101.196 19.5562 101.074 19.4748C100.953 19.3935 100.862 19.2802 100.801 19.1334C100.74 18.9866 100.71 18.8143 100.71 18.6149C100.71 18.4155 100.74 18.24 100.801 18.0916Z" fill="white"/>
<path d="M106.118 19.4302C106.229 19.218 106.285 18.9739 106.285 18.6979C106.285 18.6915 106.285 18.666 106.284 18.6213C106.282 18.5782 106.281 18.5463 106.277 18.5288H105.243V18.9468H105.699C105.67 19.0983 105.62 19.2228 105.552 19.3201C105.483 19.4174 105.398 19.4876 105.297 19.5339C105.197 19.5801 105.085 19.6009 104.96 19.5977C104.778 19.5945 104.626 19.553 104.505 19.4716C104.383 19.3903 104.292 19.277 104.231 19.1302C104.171 18.9834 104.14 18.8111 104.14 18.6117C104.14 18.4123 104.171 18.2384 104.231 18.0884C104.292 17.9401 104.383 17.8252 104.505 17.7438C104.626 17.6625 104.778 17.6242 104.96 17.6258C105.144 17.6274 105.294 17.6784 105.413 17.7789C105.531 17.8794 105.616 18.0135 105.667 18.181L106.221 18.1012C106.149 17.7869 106.007 17.5444 105.796 17.3737C105.584 17.2014 105.293 17.1169 104.923 17.1169C104.672 17.1169 104.445 17.1759 104.239 17.2923C104.033 17.4088 103.87 17.5795 103.747 17.8013C103.624 18.023 103.565 18.2942 103.565 18.6117C103.565 18.8558 103.601 19.0696 103.673 19.2563C103.745 19.4429 103.844 19.5993 103.971 19.7253C104.097 19.8513 104.241 19.9471 104.406 20.0109C104.569 20.0747 104.741 20.1082 104.923 20.1082C105.2 20.1082 105.441 20.0476 105.644 19.9279C105.847 19.8083 106.006 19.6423 106.118 19.4302Z" fill="white"/>
<path d="M107.668 17.1775H107.125V20.0491H107.668V17.1775Z" fill="white"/>
<path d="M110.291 19.4509L110.477 20.0491H111.036L110.157 17.1775H109.345L108.466 20.0491H109.025L109.207 19.4509H110.291ZM109.362 18.9451L109.746 17.6864L110.136 18.9451H109.362Z" fill="white"/>
<path d="M114.858 17.4359C114.697 17.3035 114.5 17.2222 114.268 17.195C114.203 17.1871 114.136 17.1823 114.065 17.1807C113.995 17.1791 113.949 17.1791 113.925 17.1791H112.993V20.0508H113.925C113.947 20.0508 113.993 20.0508 114.065 20.0492C114.136 20.0476 114.204 20.0428 114.268 20.0348C114.5 20.0061 114.697 19.9263 114.858 19.7939C115.019 19.6615 115.143 19.4924 115.226 19.2882C115.309 19.084 115.352 18.859 115.352 18.6165C115.352 18.374 115.31 18.1491 115.226 17.9449C115.143 17.7375 115.019 17.5684 114.858 17.4359ZM114.719 19.0122C114.681 19.1414 114.623 19.2515 114.543 19.344C114.463 19.4365 114.363 19.494 114.236 19.5195C114.187 19.5291 114.132 19.5339 114.07 19.5371C114.009 19.5386 113.96 19.5402 113.925 19.5402H113.544V17.6896H113.925C113.96 17.6896 114.009 17.6896 114.07 17.6912C114.131 17.6928 114.187 17.6992 114.236 17.7087C114.358 17.7327 114.458 17.7885 114.538 17.8779C114.618 17.9672 114.677 18.0757 114.717 18.2049C114.757 18.3341 114.777 18.4697 114.777 18.6133C114.777 18.7505 114.757 18.8845 114.719 19.0122Z" fill="white"/>
<path d="M116.831 17.1775L115.951 20.0491H116.511L116.693 19.4509H117.777L117.962 20.0491H118.522L117.643 17.1775H116.831ZM116.848 18.9451L117.232 17.6864L117.622 18.9451H116.848Z" fill="white"/>
<path d="M78.8232 21.9636H78.2798V24.8353H78.8232V21.9636Z" fill="white"/>
<path d="M81.6238 23.8781L80.3738 21.9636H79.8223V24.8353H80.3738V22.9209L81.6238 24.8353H82.1753V21.9636H81.6238V23.8781Z" fill="white"/>
<path d="M84.8927 22.5076V21.9636H83.1344V24.8353H83.6779V23.6707H84.653V23.1283H83.6779V22.5076H84.8927Z" fill="white"/>
<path d="M87.6309 24.7076C87.8387 24.5832 88.0002 24.4077 88.1121 24.1828C88.224 23.9578 88.2815 23.6978 88.2815 23.3994C88.2815 23.1011 88.2256 22.8411 88.1121 22.6161C87.9986 22.3912 87.8387 22.2173 87.6309 22.0912C87.4231 21.9668 87.1738 21.9046 86.886 21.9046C86.5983 21.9046 86.3506 21.9668 86.1411 22.0912C85.9333 22.2157 85.7719 22.3912 85.66 22.6161C85.5465 22.8411 85.4906 23.1027 85.4906 23.3994C85.4906 23.6978 85.5465 23.9578 85.66 24.1828C85.7719 24.4077 85.9333 24.5816 86.1411 24.7076C86.349 24.8321 86.5983 24.8943 86.886 24.8943C87.1754 24.8959 87.4231 24.8337 87.6309 24.7076ZM86.1587 23.9179C86.098 23.7712 86.0676 23.5989 86.0676 23.3994C86.0676 23.2 86.098 23.0261 86.1587 22.8762C86.2195 22.7278 86.3106 22.6129 86.4321 22.5316C86.5536 22.4502 86.7054 22.4119 86.8876 22.4135C87.0699 22.4151 87.2217 22.4582 87.3432 22.5395C87.4647 22.6209 87.5558 22.7342 87.6166 22.8809C87.6773 23.0277 87.7077 23.2 87.7077 23.3994C87.7077 23.5989 87.6773 23.7728 87.6166 23.9227C87.5558 24.0711 87.4647 24.186 87.3432 24.2673C87.2217 24.3487 87.0699 24.387 86.8876 24.3854C86.7054 24.3838 86.5536 24.3407 86.4321 24.2593C86.3106 24.178 86.2195 24.0647 86.1587 23.9179Z" fill="white"/>
<path d="M89.0808 24.8353H89.6243V23.8621H90.2301L90.7032 24.8353H91.3187L90.7976 23.768C90.9222 23.7122 91.0261 23.6356 91.0997 23.5303C91.2196 23.3596 91.2787 23.1538 91.2787 22.9129C91.2787 22.7517 91.2531 22.6066 91.2004 22.4757C91.1476 22.3449 91.0677 22.2364 90.9574 22.1503C90.8471 22.0641 90.7064 22.0067 90.5354 21.9812C90.4986 21.9748 90.4555 21.97 90.4091 21.9684C90.3612 21.9668 90.3244 21.9652 90.2956 21.9652H89.0808V24.8353ZM89.6243 22.4709H90.2717C90.2988 22.4709 90.3308 22.4725 90.3644 22.4757C90.3979 22.4789 90.4283 22.4837 90.4555 22.4917C90.529 22.5108 90.585 22.5459 90.6249 22.5922C90.6649 22.6385 90.6921 22.6911 90.708 22.7501C90.724 22.8076 90.7304 22.8634 90.7304 22.9145C90.7304 22.9655 90.7224 23.0214 90.708 23.0788C90.6921 23.1362 90.6649 23.1889 90.6249 23.2367C90.585 23.2846 90.529 23.3181 90.4555 23.3372C90.4283 23.3452 90.3963 23.35 90.3644 23.3532C90.3308 23.3564 90.3004 23.3564 90.2717 23.3564H89.6243V22.4709Z" fill="white"/>
<path d="M93.5965 23.8701L92.6454 21.9636H92.1579V24.8353H92.6662V23.1203L93.5006 24.8353H93.6924L94.5284 23.1203V24.8353H95.0352V21.9636H94.5476L93.5965 23.8701Z" fill="white"/>
<path d="M96.6736 21.9636L95.7944 24.8353H96.3539L96.5361 24.237H97.6199L97.8053 24.8353H98.3648L97.4856 21.9636H96.6736ZM96.6912 23.7313L97.0748 22.4725L97.4649 23.7313H96.6912Z" fill="white"/>
<path d="M99.8226 22.5363C99.9441 22.455 100.096 22.4151 100.28 22.4151C100.48 22.4151 100.643 22.463 100.769 22.5603C100.895 22.656 100.985 22.7916 101.039 22.9655L101.587 22.8139C101.495 22.5347 101.336 22.313 101.113 22.1503C100.889 21.9875 100.611 21.9046 100.28 21.9046C99.9921 21.9046 99.7443 21.9668 99.5349 22.0912C99.3271 22.2157 99.1657 22.3912 99.0538 22.6161C98.9403 22.8411 98.8843 23.1027 98.8843 23.3994C98.8843 23.6978 98.9403 23.9578 99.0538 24.1828C99.1657 24.4077 99.3271 24.5816 99.5349 24.7077C99.7075 24.8114 99.9074 24.8688 100.134 24.8863L100.035 25.1735C100.106 25.1926 100.166 25.215 100.217 25.2389C100.269 25.2628 100.294 25.2979 100.294 25.3458C100.294 25.3665 100.285 25.3873 100.265 25.408C100.246 25.4288 100.219 25.4383 100.182 25.4383C100.155 25.4383 100.115 25.4304 100.062 25.4144L99.9473 25.7255C99.9873 25.7462 100.03 25.7654 100.077 25.7797C100.123 25.7941 100.174 25.8021 100.23 25.8021C100.347 25.8021 100.448 25.7606 100.532 25.6792C100.619 25.5979 100.662 25.491 100.662 25.3586C100.662 25.2724 100.641 25.1974 100.6 25.1336C100.558 25.0698 100.497 25.0188 100.419 24.9789L100.451 24.8847C100.707 24.8608 100.927 24.7842 101.111 24.6502C101.335 24.4859 101.493 24.2657 101.586 23.9865L101.037 23.835C100.985 24.0073 100.894 24.1429 100.767 24.2402C100.641 24.3375 100.478 24.3854 100.278 24.3854C100.096 24.3854 99.9441 24.3455 99.821 24.2641C99.6996 24.1828 99.6068 24.0695 99.5461 23.9211C99.4854 23.7744 99.4534 23.6005 99.4534 23.401C99.4534 23.2016 99.4838 23.0277 99.5461 22.8809C99.6084 22.7326 99.6996 22.6177 99.8226 22.5363Z" fill="white"/>
<path d="M103.723 21.1659C103.685 21.1659 103.641 21.1516 103.595 21.1213C103.549 21.0909 103.498 21.0574 103.445 21.0192C103.39 20.9809 103.335 20.9458 103.275 20.917C103.216 20.8867 103.154 20.8724 103.088 20.8724C102.921 20.8724 102.807 20.933 102.749 21.0527C102.692 21.1723 102.682 21.3207 102.724 21.4946H103.06C103.042 21.4276 103.042 21.3701 103.056 21.3255C103.071 21.2808 103.1 21.2585 103.14 21.2585C103.178 21.2585 103.221 21.2728 103.267 21.3031C103.314 21.3334 103.365 21.3669 103.418 21.4052C103.472 21.4435 103.528 21.4786 103.587 21.5073C103.646 21.5361 103.709 21.552 103.774 21.552C103.942 21.552 104.055 21.4914 104.113 21.3701C104.172 21.2489 104.18 21.1021 104.137 20.9298H103.801C103.82 20.9968 103.82 21.0542 103.806 21.0989C103.792 21.1452 103.763 21.1659 103.723 21.1659Z" fill="white"/>
<path d="M103.024 21.9636L102.145 24.8353H102.705L102.887 24.237H103.971L104.156 24.8353H104.716L103.836 21.9636H103.024ZM103.04 23.7313L103.424 22.4725L103.814 23.7313H103.04Z" fill="white"/>
<path d="M107.372 22.0912C107.165 21.9668 106.915 21.9046 106.627 21.9046C106.34 21.9046 106.092 21.9668 105.883 22.0912C105.675 22.2157 105.513 22.3912 105.401 22.6161C105.288 22.8411 105.232 23.1027 105.232 23.3994C105.232 23.6978 105.288 23.9578 105.401 24.1828C105.513 24.4077 105.675 24.5816 105.883 24.7077C106.09 24.8321 106.34 24.8943 106.627 24.8943C106.915 24.8943 107.163 24.8321 107.372 24.7077C107.58 24.5832 107.742 24.4077 107.853 24.1828C107.965 23.9578 108.023 23.6978 108.023 23.3994C108.023 23.1011 107.967 22.8411 107.853 22.6161C107.74 22.3912 107.582 22.2173 107.372 22.0912ZM107.356 23.9227C107.296 24.0711 107.204 24.186 107.083 24.2673C106.962 24.3487 106.81 24.387 106.627 24.3854C106.445 24.3838 106.293 24.3407 106.172 24.2594C106.05 24.178 105.959 24.0647 105.899 23.9179C105.838 23.7712 105.807 23.5989 105.807 23.3994C105.807 23.2 105.838 23.0261 105.899 22.8762C105.959 22.7278 106.05 22.6129 106.172 22.5316C106.293 22.4502 106.445 22.4119 106.627 22.4135C106.81 22.4151 106.962 22.4582 107.083 22.5395C107.204 22.6209 107.296 22.7342 107.356 22.8809C107.417 23.0277 107.447 23.2 107.447 23.3994C107.447 23.5989 107.417 23.7744 107.356 23.9227Z" fill="white"/>
<path d="M110.021 24.8353H111.899V24.3296H110.565V23.5909H111.659V23.0852H110.565V22.471H111.899V21.9636H110.021V24.8353Z" fill="white"/>
<path d="M78.8232 26.7498H78.2798V29.6214H78.8232V26.7498Z" fill="white"/>
<path d="M81.6238 28.6642L80.3738 26.7498H79.8223V29.6214H80.3738V27.707L81.6238 29.6214H82.1753V26.7498H81.6238V28.6642Z" fill="white"/>
<path d="M85.1133 26.8774C84.9055 26.753 84.6561 26.6907 84.3684 26.6907C84.0807 26.6907 83.8329 26.753 83.6235 26.8774C83.4157 27.0018 83.2543 27.1773 83.1424 27.4023C83.0289 27.6272 82.9729 27.8889 82.9729 28.1856C82.9729 28.4839 83.0289 28.744 83.1424 28.9689C83.2543 29.1939 83.4157 29.3678 83.6235 29.4938C83.8313 29.6183 84.0807 29.6805 84.3684 29.6805C84.6561 29.6805 84.9039 29.6183 85.1133 29.4938C85.3211 29.3694 85.4826 29.1939 85.5945 28.9689C85.7063 28.744 85.7639 28.4839 85.7639 28.1856C85.7639 27.8873 85.7079 27.6272 85.5945 27.4023C85.481 27.1773 85.3227 27.0034 85.1133 26.8774ZM85.0973 28.7089C85.0366 28.8573 84.9455 28.9721 84.824 29.0535C84.7025 29.1349 84.5506 29.1731 84.3684 29.1716C84.1862 29.17 84.0343 29.1269 83.9128 29.0455C83.7914 28.9642 83.7002 28.8509 83.6395 28.7041C83.5788 28.5573 83.5484 28.385 83.5484 28.1856C83.5484 27.9862 83.5788 27.8123 83.6395 27.6623C83.7002 27.514 83.7914 27.3991 83.9128 27.3177C84.0343 27.2364 84.1862 27.1981 84.3684 27.1997C84.5506 27.2013 84.7025 27.2443 84.824 27.3257C84.9455 27.4071 85.0366 27.5203 85.0973 27.6671C85.1581 27.8139 85.1884 27.9862 85.1884 28.1856C85.1884 28.385 85.1581 28.5605 85.0973 28.7089Z" fill="white"/>
<path d="M87.4631 29.1109L86.7438 26.7498H86.1843L87.0635 29.6214H87.8739L88.7531 26.7498H88.1936L87.4631 29.1109Z" fill="white"/>
<path d="M89.8528 26.7498L88.9737 29.6214H89.5331L89.7154 29.0232H90.7992L90.9846 29.6214H91.544L90.6649 26.7498H89.8528ZM89.8688 28.5174L90.2525 27.2587L90.6425 28.5174H89.8688Z" fill="white"/>
<path d="M93.0003 27.3225C93.1218 27.2411 93.2736 27.2013 93.4574 27.2013C93.6573 27.2013 93.8203 27.2491 93.9466 27.3464C94.0729 27.4422 94.1624 27.5778 94.2167 27.7517L94.765 27.6001C94.6723 27.3209 94.514 27.0992 94.2903 26.9364C94.0665 26.7737 93.7883 26.6907 93.4574 26.6907C93.1697 26.6907 92.9219 26.753 92.7125 26.8774C92.5047 27.0018 92.3433 27.1773 92.2314 27.4023C92.1179 27.6272 92.062 27.8889 92.062 28.1856C92.062 28.4839 92.1179 28.744 92.2314 28.9689C92.3433 29.1939 92.5047 29.3678 92.7125 29.4938C92.8852 29.5975 93.085 29.655 93.312 29.6725L93.2129 29.9597C93.2832 29.9788 93.344 30.0012 93.3951 30.0251C93.4463 30.049 93.4718 30.0841 93.4718 30.132C93.4718 30.1527 93.4622 30.1735 93.4431 30.1942C93.4239 30.2149 93.3967 30.2245 93.3599 30.2245C93.3328 30.2245 93.2928 30.2165 93.24 30.2006L93.125 30.5117C93.1649 30.5324 93.2081 30.5516 93.2544 30.5659C93.3008 30.5803 93.3519 30.5883 93.4079 30.5883C93.5246 30.5883 93.6253 30.5468 93.71 30.4654C93.7963 30.384 93.8395 30.2772 93.8395 30.1447C93.8395 30.0586 93.8187 29.9836 93.7771 29.9198C93.7356 29.856 93.6748 29.8049 93.5965 29.765L93.6285 29.6709C93.8842 29.647 94.1048 29.5704 94.2887 29.4364C94.5124 29.2721 94.6707 29.0519 94.7634 28.7727L94.2151 28.6211C94.1624 28.7934 94.0713 28.9291 93.945 29.0264C93.8187 29.1237 93.6557 29.1716 93.4558 29.1716C93.2736 29.1716 93.1218 29.1317 92.9987 29.0503C92.8772 28.9689 92.7845 28.8557 92.7237 28.7073C92.663 28.5605 92.631 28.3866 92.631 28.1872C92.631 27.9878 92.6614 27.8139 92.7237 27.6671C92.7877 27.5187 92.8788 27.4039 93.0003 27.3225Z" fill="white"/>
<path d="M96.9022 25.9521C96.8638 25.9521 96.8207 25.9377 96.7743 25.9074C96.728 25.8771 96.6768 25.8436 96.6241 25.8053C96.5697 25.767 96.5138 25.7319 96.4546 25.7032C96.3955 25.6729 96.3331 25.6585 96.2676 25.6585C96.0998 25.6585 95.9863 25.7191 95.9287 25.8388C95.8712 25.9584 95.8616 26.1068 95.9031 26.2807H96.2388C96.2212 26.2137 96.2212 26.1563 96.2356 26.1116C96.25 26.0669 96.2788 26.0446 96.3188 26.0446C96.3571 26.0446 96.4003 26.0589 96.4466 26.0893C96.493 26.1196 96.5441 26.1531 96.5969 26.1914C96.6512 26.2297 96.7072 26.2647 96.7663 26.2935C96.8255 26.3222 96.8878 26.3381 96.9534 26.3381C97.1212 26.3381 97.2347 26.2775 97.2922 26.1563C97.3514 26.035 97.3594 25.8882 97.3162 25.7159H96.9805C96.9997 25.7829 96.9997 25.8404 96.9853 25.8851C96.9693 25.9313 96.9422 25.9521 96.9022 25.9521Z" fill="white"/>
<path d="M96.2021 26.7498L95.3229 29.6214H95.8824L96.0646 29.0232H97.1484L97.3338 29.6214H97.8933L97.0141 26.7498H96.2021ZM96.2196 28.5174L96.6033 27.2587L96.9933 28.5174H96.2196Z" fill="white"/>
<path d="M100.552 26.8774C100.344 26.753 100.094 26.6907 99.8067 26.6907C99.5189 26.6907 99.2712 26.753 99.0618 26.8774C98.854 27.0018 98.6925 27.1773 98.5806 27.4023C98.4671 27.6272 98.4112 27.8889 98.4112 28.1856C98.4112 28.4839 98.4671 28.744 98.5806 28.9689C98.6925 29.1939 98.854 29.3678 99.0618 29.4938C99.2696 29.6183 99.5189 29.6805 99.8067 29.6805C100.094 29.6805 100.342 29.6183 100.552 29.4938C100.759 29.3694 100.921 29.1939 101.033 28.9689C101.145 28.744 101.202 28.4839 101.202 28.1856C101.202 27.8873 101.146 27.6272 101.033 27.4023C100.919 27.1773 100.759 27.0034 100.552 26.8774ZM100.536 28.7089C100.475 28.8573 100.384 28.9721 100.262 29.0535C100.141 29.1349 99.9889 29.1731 99.8067 29.1716C99.6244 29.17 99.4726 29.1269 99.3511 29.0455C99.2296 28.9642 99.1385 28.8509 99.0777 28.7041C99.017 28.5573 98.9866 28.385 98.9866 28.1856C98.9866 27.9862 99.017 27.8123 99.0777 27.6623C99.1385 27.514 99.2296 27.3991 99.3511 27.3177C99.4726 27.2364 99.6244 27.1981 99.8067 27.1997C99.9889 27.2013 100.141 27.2443 100.262 27.3257C100.384 27.4071 100.475 27.5203 100.536 27.6671C100.596 27.8139 100.627 27.9862 100.627 28.1856C100.627 28.385 100.596 28.5605 100.536 28.7089Z" fill="white"/>
</svg>
