<svg width="291" height="50" viewBox="0 0 291 50" fill="none" xmlns="http://www.w3.org/2000/svg">
<path d="M132.404 19.2866C132.7 19.6527 132.849 20.0688 132.849 20.5319C132.849 20.9293 132.744 21.286 132.535 21.6051C132.325 21.9243 132.024 22.1746 131.63 22.3561C131.237 22.5407 130.776 22.6314 130.253 22.6314H127.088V14.831H130.107C130.646 14.831 131.11 14.9218 131.497 15.1001C131.884 15.2785 132.176 15.5225 132.373 15.8229C132.57 16.1264 132.668 16.4643 132.668 16.8398C132.668 17.2903 132.547 17.6627 132.303 17.9631C132.059 18.2634 131.735 18.4825 131.322 18.6264C131.748 18.6984 132.109 18.9205 132.404 19.2866ZM128.383 18.107H129.989C130.414 18.107 130.748 18.0131 130.986 17.8223C131.224 17.6314 131.344 17.3561 131.344 16.9962C131.344 16.6458 131.224 16.3704 130.986 16.1702C130.748 15.9731 130.414 15.873 129.989 15.873H128.383V18.107ZM131.173 21.2734C131.424 21.0638 131.548 20.7728 131.548 20.3974C131.548 20.0156 131.414 19.7121 131.148 19.4868C130.881 19.2616 130.529 19.1489 130.088 19.1489H128.38V21.5895H130.132C130.576 21.5895 130.922 21.4831 131.173 21.2734Z" fill="white"/>
<path d="M134.22 17.8598C134.483 17.3811 134.839 17.0088 135.289 16.7428C135.74 16.4768 136.242 16.3454 136.788 16.3454C137.283 16.3454 137.711 16.4424 138.079 16.6333C138.447 16.8242 138.743 17.0619 138.962 17.3467V16.4487H140.272V22.6345H138.962V21.7146C138.743 22.0056 138.441 22.2497 138.063 22.4437C137.683 22.6377 137.251 22.7347 136.765 22.7347C136.226 22.7347 135.734 22.597 135.283 22.3248C134.836 22.0526 134.48 21.6708 134.22 21.1796C133.96 20.6884 133.826 20.1345 133.826 19.5119C133.826 18.8892 133.96 18.3417 134.22 17.8598ZM138.695 18.423C138.517 18.1101 138.282 17.8692 137.994 17.7034C137.705 17.5375 137.394 17.4562 137.06 17.4562C136.727 17.4562 136.416 17.5375 136.127 17.6971C135.839 17.8567 135.607 18.0945 135.426 18.4043C135.248 18.714 135.159 19.0832 135.159 19.5088C135.159 19.9343 135.248 20.3098 135.426 20.632C135.604 20.9543 135.839 21.1984 136.131 21.3673C136.423 21.5363 136.734 21.6208 137.057 21.6208C137.391 21.6208 137.702 21.5394 137.99 21.3736C138.279 21.2078 138.511 20.9668 138.692 20.6508C138.87 20.3317 138.958 19.9593 138.958 19.5338C138.962 19.1083 138.873 18.7359 138.695 18.423Z" fill="white"/>
<path d="M146.474 16.6489C146.865 16.8523 147.169 17.1496 147.392 17.5469C147.611 17.9443 147.722 18.423 147.722 18.9831V22.6314H146.436V19.174C146.436 18.6201 146.297 18.1946 146.014 17.9005C145.732 17.6064 145.351 17.4562 144.865 17.4562C144.38 17.4562 143.992 17.6033 143.71 17.9005C143.424 18.1946 143.285 18.6201 143.285 19.174V22.6314H141.986V16.4456H143.285V17.1527C143.497 16.8992 143.767 16.699 144.1 16.5582C144.43 16.4174 144.783 16.3454 145.154 16.3454C145.64 16.3454 146.084 16.4456 146.474 16.6489Z" fill="white"/>
<path d="M149.331 17.8567C149.591 17.3748 149.956 17.0025 150.419 16.7397C150.883 16.4768 151.413 16.3454 152.013 16.3454C152.771 16.3454 153.4 16.5238 153.898 16.8773C154.396 17.234 154.73 17.7409 154.907 18.398H153.508C153.393 18.0914 153.212 17.8504 152.962 17.6783C152.711 17.5063 152.397 17.4218 152.016 17.4218C151.486 17.4218 151.061 17.6064 150.746 17.9787C150.432 18.3479 150.273 18.8673 150.273 19.5338C150.273 20.2002 150.432 20.7196 150.746 21.0951C151.061 21.4706 151.486 21.6552 152.016 21.6552C152.768 21.6552 153.266 21.3298 153.508 20.679H154.907C154.726 21.3079 154.384 21.8085 153.882 22.1777C153.381 22.5469 152.759 22.7347 152.016 22.7347C151.416 22.7347 150.886 22.6032 150.423 22.3373C149.959 22.0713 149.597 21.6959 149.334 21.214C149.074 20.7322 148.94 20.1721 148.94 19.5369C148.94 18.8986 149.071 18.3385 149.331 17.8567Z" fill="white"/>
<path d="M157.319 22.3341C156.84 22.0682 156.466 21.6927 156.193 21.2109C155.92 20.729 155.783 20.1689 155.783 19.5338C155.783 18.9049 155.923 18.3479 156.205 17.8598C156.485 17.3748 156.869 16.9994 157.354 16.7365C157.84 16.4737 158.383 16.3423 158.983 16.3423C159.582 16.3423 160.125 16.4737 160.611 16.7365C161.096 16.9994 161.48 17.3717 161.76 17.8598C162.039 18.3479 162.182 18.9049 162.182 19.5338C162.182 20.1627 162.039 20.7196 161.75 21.2077C161.461 21.6958 161.068 22.0713 160.573 22.3373C160.074 22.6032 159.525 22.7346 158.925 22.7346C158.335 22.7346 157.799 22.6001 157.319 22.3341ZM159.865 21.3861C160.157 21.2296 160.395 20.9918 160.576 20.679C160.757 20.3661 160.849 19.9843 160.849 19.5338C160.849 19.0832 160.76 18.7046 160.589 18.3949C160.414 18.0851 160.182 17.8504 159.894 17.694C159.605 17.5375 159.294 17.4593 158.96 17.4593C158.627 17.4593 158.316 17.5375 158.034 17.694C157.751 17.8504 157.523 18.0851 157.358 18.3949C157.189 18.7046 157.107 19.0863 157.107 19.5338C157.107 20.2002 157.278 20.7134 157.624 21.0763C157.97 21.4393 158.405 21.6208 158.929 21.6208C159.259 21.6208 159.573 21.5425 159.865 21.3861Z" fill="white"/>
<path d="M166.39 17.8598C166.654 17.3811 167.009 17.0088 167.46 16.7428C167.911 16.4768 168.415 16.3454 168.968 16.3454C169.377 16.3454 169.783 16.433 170.18 16.6083C170.58 16.7835 170.894 17.0182 171.132 17.3091V14.3242H172.443V22.6314H171.132V21.699C170.92 21.9994 170.624 22.2466 170.25 22.4406C169.875 22.6345 169.444 22.7315 168.958 22.7315C168.412 22.7315 167.911 22.5939 167.46 22.3217C167.009 22.0494 166.651 21.6677 166.39 21.1765C166.13 20.6852 165.997 20.1314 165.997 19.5088C165.997 18.8892 166.127 18.3417 166.39 17.8598ZM170.866 18.423C170.688 18.1101 170.453 17.8692 170.164 17.7034C169.875 17.5375 169.564 17.4562 169.231 17.4562C168.898 17.4562 168.587 17.5375 168.298 17.6971C168.009 17.8567 167.774 18.0945 167.596 18.4043C167.419 18.714 167.33 19.0832 167.33 19.5088C167.33 19.9343 167.419 20.3098 167.596 20.632C167.774 20.9543 168.009 21.1984 168.301 21.3673C168.593 21.5363 168.904 21.6208 169.228 21.6208C169.561 21.6208 169.872 21.5394 170.161 21.3736C170.45 21.2078 170.681 20.9668 170.862 20.6508C171.04 20.3317 171.129 19.9593 171.129 19.5338C171.132 19.1083 171.043 18.7359 170.866 18.423Z" fill="white"/>
<path d="M179.857 20.0156H175.061C175.1 20.51 175.287 20.9074 175.62 21.2046C175.953 21.505 176.363 21.6552 176.848 21.6552C177.547 21.6552 178.042 21.3673 178.327 20.7916H179.727C179.537 21.3611 179.194 21.8273 178.695 22.1902C178.197 22.5532 177.581 22.7346 176.845 22.7346C176.245 22.7346 175.709 22.6032 175.233 22.3373C174.757 22.0713 174.385 21.6959 174.116 21.214C173.846 20.7321 173.713 20.1721 173.713 19.5369C173.713 18.9017 173.843 18.3417 174.106 17.8598C174.37 17.378 174.738 17.0056 175.211 16.7428C175.683 16.48 176.229 16.3485 176.845 16.3485C177.439 16.3485 177.966 16.4768 178.429 16.7303C178.892 16.9837 179.251 17.3435 179.511 17.8035C179.768 18.2634 179.898 18.7922 179.898 19.393C179.902 19.6214 179.886 19.831 179.857 20.0156ZM178.546 18.9831C178.54 18.5106 178.369 18.1351 178.035 17.8504C177.702 17.5657 177.286 17.4249 176.794 17.4249C176.347 17.4249 175.963 17.5657 175.645 17.8473C175.325 18.1289 175.138 18.5075 175.077 18.9862H178.546V18.9831Z" fill="white"/>
<path d="M185.437 15.8636V18.1539H188.17V19.199H185.437V21.5895H188.512V22.6345H184.139V14.8185H188.512V15.8636H185.437Z" fill="white"/>
<path d="M199.027 16.6489C199.418 16.8523 199.726 17.1496 199.951 17.5469C200.176 17.9443 200.287 18.423 200.287 18.9831V22.6314H199.002V19.174C199.002 18.6201 198.862 18.1946 198.58 17.9005C198.297 17.6064 197.916 17.4562 197.431 17.4562C196.945 17.4562 196.561 17.6033 196.276 17.9005C195.99 18.1946 195.847 18.6201 195.847 19.174V22.6314H194.559V19.174C194.559 18.6201 194.419 18.1946 194.136 17.9005C193.854 17.6064 193.473 17.4562 192.987 17.4562C192.502 17.4562 192.115 17.6033 191.832 17.9005C191.547 18.1946 191.407 18.6201 191.407 19.174V22.6314H190.109V16.4456H191.407V17.1527C191.62 16.8992 191.889 16.699 192.216 16.5582C192.543 16.4174 192.892 16.3454 193.264 16.3454C193.765 16.3454 194.213 16.4518 194.606 16.6583C195 16.868 195.304 17.1715 195.517 17.5688C195.707 17.1934 196.003 16.8961 196.406 16.6771C196.809 16.4549 197.24 16.3454 197.704 16.3454C198.196 16.3454 198.637 16.4456 199.027 16.6489Z" fill="white"/>
<path d="M204.134 16.6364C204.515 16.4424 204.943 16.3454 205.419 16.3454C205.965 16.3454 206.464 16.48 206.917 16.7428C207.368 17.0088 207.724 17.3811 207.981 17.8598C208.238 18.3385 208.368 18.8892 208.368 19.5088C208.368 20.1314 208.238 20.6852 207.981 21.1765C207.724 21.6677 207.368 22.0494 206.917 22.3216C206.467 22.5939 205.965 22.7315 205.419 22.7315C204.94 22.7315 204.515 22.6345 204.143 22.4468C203.772 22.2559 203.467 22.0181 203.233 21.7334V25.5726H201.934V16.4456H203.233V17.3561C203.455 17.0713 203.756 16.8335 204.134 16.6364ZM206.781 18.4043C206.603 18.0945 206.368 17.8567 206.076 17.6971C205.784 17.5375 205.47 17.4562 205.137 17.4562C204.81 17.4562 204.502 17.5375 204.21 17.7034C203.918 17.8692 203.683 18.107 203.506 18.423C203.328 18.7359 203.239 19.1083 203.239 19.5338C203.239 19.9593 203.328 20.3317 203.506 20.6508C203.683 20.97 203.918 21.2109 204.21 21.3736C204.502 21.5394 204.813 21.6208 205.137 21.6208C205.47 21.6208 205.784 21.5363 206.076 21.3673C206.368 21.1984 206.603 20.9543 206.781 20.632C206.959 20.3098 207.048 19.9374 207.048 19.5088C207.051 19.0864 206.962 18.7171 206.781 18.4043Z" fill="white"/>
<path d="M211.713 16.6083C212.028 16.433 212.402 16.3454 212.834 16.3454V17.669H212.504C211.996 17.669 211.609 17.7972 211.348 18.0507C211.088 18.3041 210.955 18.7453 210.955 19.3742V22.6314H209.657V16.4456H210.955V17.3436C211.145 17.0307 211.399 16.7866 211.713 16.6083Z" fill="white"/>
<path d="M219.737 20.0156H214.941C214.979 20.51 215.163 20.9074 215.5 21.2046C215.833 21.505 216.242 21.6552 216.728 21.6552C217.426 21.6552 217.921 21.3673 218.207 20.7916H219.607C219.416 21.3611 219.074 21.8273 218.575 22.1902C218.077 22.5532 217.461 22.7346 216.725 22.7346C216.125 22.7346 215.589 22.6032 215.113 22.3373C214.637 22.0713 214.265 21.6959 213.995 21.214C213.726 20.7321 213.592 20.1721 213.592 19.5369C213.592 18.9017 213.722 18.3417 213.986 17.8598C214.246 17.378 214.617 17.0056 215.09 16.7428C215.563 16.48 216.109 16.3485 216.725 16.3485C217.318 16.3485 217.845 16.4768 218.309 16.7303C218.772 16.9837 219.131 17.3435 219.391 17.8035C219.648 18.2634 219.778 18.7922 219.778 19.393C219.781 19.6214 219.766 19.831 219.737 20.0156ZM218.426 18.9831C218.42 18.5106 218.248 18.1351 217.915 17.8504C217.582 17.5657 217.166 17.4249 216.674 17.4249C216.227 17.4249 215.843 17.5657 215.525 17.8473C215.205 18.1289 215.017 18.5075 214.957 18.9862H218.426V18.9831Z" fill="white"/>
<path d="M224.878 16.6333C225.253 16.8242 225.548 17.0619 225.761 17.3467V16.4487H227.072V22.7347C227.072 23.3041 226.951 23.811 226.707 24.2553C226.462 24.6996 226.113 25.0501 225.653 25.3035C225.193 25.5569 224.644 25.6852 224.006 25.6852C223.155 25.6852 222.45 25.4881 221.889 25.097C221.327 24.7028 221.01 24.1708 220.933 23.4981H222.219C222.317 23.8204 222.527 24.0801 222.85 24.2772C223.174 24.4743 223.558 24.5745 224.006 24.5745C224.529 24.5745 224.951 24.418 225.275 24.102C225.599 23.7891 225.761 23.3323 225.761 22.7315V21.699C225.542 21.99 225.243 22.2372 224.866 22.4343C224.491 22.6314 224.063 22.7315 223.584 22.7315C223.038 22.7315 222.536 22.5939 222.085 22.3216C221.635 22.0494 221.276 21.6677 221.016 21.1765C220.756 20.6852 220.622 20.1314 220.622 19.5088C220.622 18.8861 220.752 18.3385 221.016 17.8598C221.279 17.3811 221.635 17.0088 222.085 16.7428C222.536 16.4768 223.038 16.3454 223.584 16.3454C224.072 16.3454 224.501 16.4424 224.878 16.6333ZM225.494 18.423C225.316 18.1101 225.082 17.8692 224.793 17.7034C224.504 17.5375 224.193 17.4562 223.86 17.4562C223.526 17.4562 223.215 17.5375 222.927 17.6971C222.638 17.8567 222.403 18.0945 222.225 18.4043C222.047 18.714 221.959 19.0832 221.959 19.5088C221.959 19.9343 222.047 20.3098 222.225 20.632C222.403 20.9543 222.638 21.1984 222.93 21.3673C223.222 21.5363 223.533 21.6208 223.856 21.6208C224.19 21.6208 224.501 21.5394 224.79 21.3736C225.078 21.2078 225.31 20.9668 225.491 20.6508C225.669 20.3317 225.758 19.9593 225.758 19.5338C225.761 19.1083 225.672 18.7359 225.494 18.423Z" fill="white"/>
<path d="M229.893 22.3341C229.414 22.0682 229.04 21.6927 228.767 21.2109C228.494 20.729 228.357 20.1689 228.357 19.5338C228.357 18.9049 228.497 18.3479 228.779 17.8598C229.059 17.3748 229.443 16.9994 229.928 16.7365C230.414 16.4737 230.957 16.3423 231.557 16.3423C232.156 16.3423 232.699 16.4737 233.185 16.7365C233.67 16.9994 234.054 17.3717 234.334 17.8598C234.613 18.3479 234.756 18.9049 234.756 19.5338C234.756 20.1627 234.613 20.7196 234.324 21.2077C234.035 21.6958 233.642 22.0713 233.147 22.3373C232.648 22.6032 232.099 22.7346 231.499 22.7346C230.909 22.7346 230.373 22.6001 229.893 22.3341ZM232.439 21.3861C232.731 21.2296 232.969 20.9918 233.15 20.679C233.331 20.3661 233.423 19.9843 233.423 19.5338C233.423 19.0832 233.334 18.7046 233.159 18.3949C232.985 18.0851 232.753 17.8504 232.464 17.694C232.175 17.5375 231.864 17.4593 231.531 17.4593C231.198 17.4593 230.887 17.5375 230.604 17.694C230.322 17.8504 230.093 18.0851 229.928 18.3949C229.76 18.7046 229.678 19.0863 229.678 19.5338C229.678 20.2002 229.849 20.7134 230.195 21.0763C230.541 21.4393 230.976 21.6208 231.499 21.6208C231.833 21.6208 232.147 21.5425 232.439 21.3861Z" fill="white"/>
<path d="M236.993 22.4687C236.603 22.2935 236.292 22.0525 236.067 21.749C235.841 21.4455 235.717 21.1076 235.702 20.7321H237.044C237.066 20.995 237.193 21.214 237.425 21.3892C237.657 21.5644 237.945 21.652 238.298 21.652C238.663 21.652 238.945 21.5832 239.145 21.4455C239.345 21.3079 239.447 21.1295 239.447 20.9136C239.447 20.6821 239.336 20.51 239.11 20.3974C238.885 20.2847 238.533 20.1627 238.047 20.0281C237.577 19.8999 237.193 19.7778 236.898 19.6589C236.603 19.54 236.346 19.3554 236.13 19.1082C235.914 18.8611 235.806 18.5357 235.806 18.132C235.806 17.8035 235.905 17.5 236.101 17.2278C236.298 16.9556 236.581 16.7397 236.949 16.5832C237.317 16.4268 237.739 16.3485 238.218 16.3485C238.933 16.3485 239.507 16.5269 239.945 16.8805C240.383 17.2372 240.615 17.7221 240.646 18.3354H239.348C239.326 18.0601 239.212 17.8379 239.006 17.6721C238.799 17.5062 238.523 17.4249 238.174 17.4249C237.831 17.4249 237.571 17.4875 237.387 17.6158C237.206 17.744 237.114 17.913 237.114 18.1195C237.114 18.2853 237.174 18.423 237.295 18.5357C237.415 18.6483 237.565 18.7359 237.739 18.7985C237.914 18.8611 238.171 18.9424 238.514 19.0394C238.971 19.1583 239.342 19.2803 239.634 19.4055C239.926 19.5306 240.18 19.7121 240.393 19.9499C240.605 20.1908 240.716 20.5069 240.723 20.9042C240.723 21.2547 240.624 21.5707 240.427 21.846C240.231 22.1214 239.951 22.3404 239.59 22.4969C239.228 22.6533 238.806 22.7315 238.32 22.7315C237.828 22.7346 237.387 22.647 236.993 22.4687Z" fill="white"/>
<path d="M245.045 17.8598C245.309 17.3811 245.664 17.0088 246.115 16.7428C246.566 16.4768 247.07 16.3454 247.623 16.3454C248.032 16.3454 248.438 16.433 248.835 16.6083C249.235 16.7835 249.549 17.0182 249.787 17.3091V14.3242H251.098V22.6314H249.787V21.699C249.575 21.9994 249.279 22.2466 248.905 22.4406C248.53 22.6345 248.099 22.7315 247.613 22.7315C247.067 22.7315 246.566 22.5939 246.115 22.3217C245.664 22.0494 245.306 21.6677 245.045 21.1765C244.785 20.6852 244.652 20.1314 244.652 19.5088C244.652 18.8892 244.782 18.3417 245.045 17.8598ZM249.521 18.423C249.343 18.1101 249.108 17.8692 248.819 17.7034C248.53 17.5375 248.219 17.4562 247.886 17.4562C247.553 17.4562 247.242 17.5375 246.953 17.6971C246.664 17.8567 246.429 18.0945 246.251 18.4043C246.074 18.714 245.985 19.0832 245.985 19.5088C245.985 19.9343 246.074 20.3098 246.251 20.632C246.429 20.9543 246.664 21.1984 246.956 21.3673C247.248 21.5363 247.559 21.6208 247.883 21.6208C248.216 21.6208 248.527 21.5394 248.816 21.3736C249.105 21.2078 249.337 20.9668 249.517 20.6508C249.695 20.3317 249.784 19.9593 249.784 19.5338C249.787 19.1083 249.698 18.7359 249.521 18.423Z" fill="white"/>
<path d="M253.923 22.3341C253.443 22.0682 253.069 21.6927 252.796 21.2109C252.523 20.729 252.386 20.1689 252.386 19.5338C252.386 18.9049 252.526 18.3479 252.809 17.8598C253.088 17.3748 253.472 16.9994 253.958 16.7365C254.443 16.4737 254.986 16.3423 255.586 16.3423C256.186 16.3423 256.728 16.4737 257.214 16.7365C257.7 16.9994 258.084 17.3717 258.363 17.8598C258.642 18.3479 258.785 18.9049 258.785 19.5338C258.785 20.1627 258.642 20.7196 258.353 21.2077C258.065 21.6958 257.671 22.0713 257.176 22.3373C256.678 22.6032 256.128 22.7346 255.529 22.7346C254.935 22.7346 254.402 22.6001 253.923 22.3341ZM256.468 21.3861C256.76 21.2296 256.998 20.9918 257.179 20.679C257.36 20.3661 257.452 19.9843 257.452 19.5338C257.452 19.0832 257.363 18.7046 257.192 18.3949C257.017 18.0851 256.785 17.8504 256.497 17.694C256.208 17.5375 255.897 17.4593 255.564 17.4593C255.23 17.4593 254.919 17.5375 254.637 17.694C254.351 17.8504 254.126 18.0851 253.961 18.3949C253.792 18.7046 253.71 19.0863 253.71 19.5338C253.71 20.2002 253.881 20.7134 254.227 21.0763C254.573 21.4393 255.008 21.6208 255.532 21.6208C255.862 21.6208 256.176 21.5425 256.468 21.3861Z" fill="white"/>
<path d="M135.423 26.8085V34.612H134.125V29.2679L131.709 34.612H130.811L128.386 29.2679V34.612H127.088V26.8085H128.488L131.265 32.9256L134.033 26.8085H135.423Z" fill="white"/>
<path d="M142.812 28.4261V34.612H141.513V33.883C141.307 34.1364 141.041 34.3367 140.711 34.4837C140.38 34.6308 140.028 34.7027 139.657 34.7027C139.162 34.7027 138.72 34.6026 138.33 34.3992C137.94 34.1959 137.632 33.8986 137.406 33.5012C137.181 33.1039 137.07 32.6251 137.07 32.0651V28.4261H138.359V31.8711C138.359 32.4249 138.498 32.8504 138.781 33.1445C139.06 33.4387 139.444 33.5889 139.93 33.5889C140.415 33.5889 140.799 33.4418 141.085 33.1445C141.371 32.8473 141.513 32.4249 141.513 31.8711V28.4261H142.812Z" fill="white"/>
<path d="M149.013 28.6264C149.404 28.8298 149.708 29.127 149.931 29.5244C150.15 29.9218 150.261 30.4005 150.261 30.9606V34.6089H148.975V31.1514C148.975 30.5976 148.836 30.1721 148.553 29.878C148.271 29.5839 147.89 29.4337 147.404 29.4337C146.919 29.4337 146.531 29.5807 146.249 29.878C145.963 30.1752 145.824 30.5976 145.824 31.1514V34.6089H144.526V28.4262H145.824V29.1333C146.036 28.8798 146.306 28.6796 146.639 28.5388C146.969 28.398 147.322 28.326 147.693 28.326C148.179 28.3229 148.623 28.4262 149.013 28.6264Z" fill="white"/>
<path d="M151.978 27.3686C151.819 27.2121 151.74 27.0181 151.74 26.7835C151.74 26.5519 151.819 26.3579 151.978 26.1984C152.136 26.0419 152.333 25.9637 152.568 25.9637C152.797 25.9637 152.99 26.0419 153.149 26.1984C153.308 26.3548 153.387 26.5488 153.387 26.7835C153.387 27.015 153.308 27.209 153.149 27.3686C152.99 27.525 152.797 27.6032 152.568 27.6032C152.336 27.6064 152.14 27.5281 151.978 27.3686ZM153.209 28.4261V34.612H151.911V28.4261H153.209Z" fill="white"/>
<path d="M154.879 29.8342C155.139 29.3523 155.504 28.98 155.967 28.7172C156.431 28.4543 156.961 28.3229 157.561 28.3229C158.319 28.3229 158.948 28.5013 159.446 28.8548C159.944 29.2115 160.277 29.7184 160.455 30.3755H159.055C158.941 30.0688 158.76 29.8279 158.51 29.6558C158.259 29.4837 157.945 29.3993 157.564 29.3993C157.034 29.3993 156.608 29.5839 156.294 29.9562C155.98 30.3254 155.821 30.8448 155.821 31.5113C155.821 32.1777 155.98 32.6971 156.294 33.0726C156.608 33.4481 157.034 33.6327 157.564 33.6327C158.316 33.6327 158.814 33.3073 159.055 32.6565H160.455C160.274 33.2854 159.931 33.786 159.43 34.1552C158.928 34.5244 158.306 34.7122 157.564 34.7122C156.964 34.7122 156.434 34.5776 155.97 34.3148C155.507 34.0519 155.145 33.6734 154.882 33.1915C154.622 32.7096 154.488 32.1496 154.488 31.5144C154.485 30.8761 154.615 30.316 154.879 29.8342Z" fill="white"/>
<path d="M163.572 26.7616L161.055 27.985V27.0432L163.572 25.6728V26.7616ZM163.048 28.4262V34.6121H161.75V28.4262H163.048Z" fill="white"/>
<path d="M166.955 28.617C167.336 28.423 167.765 28.326 168.241 28.326C168.787 28.326 169.285 28.4606 169.739 28.7234C170.189 28.9894 170.545 29.3617 170.802 29.8404C171.059 30.3192 171.189 30.8699 171.189 31.4894C171.189 32.112 171.059 32.6658 170.802 33.1571C170.545 33.6483 170.189 34.0301 169.739 34.3023C169.288 34.5745 168.787 34.7122 168.241 34.7122C167.761 34.7122 167.336 34.6152 166.965 34.4243C166.593 34.2334 166.289 33.9956 166.054 33.7109V37.5501H164.756V28.4262H166.054V29.3367C166.276 29.0488 166.574 28.811 166.955 28.617ZM169.602 30.3849C169.425 30.0751 169.19 29.8404 168.898 29.6777C168.606 29.5182 168.291 29.4368 167.958 29.4368C167.631 29.4368 167.323 29.5182 167.031 29.684C166.739 29.8498 166.505 30.0876 166.327 30.4036C166.149 30.7197 166.06 31.0889 166.06 31.5144C166.06 31.9399 166.149 32.3123 166.327 32.6314C166.505 32.9506 166.739 33.1915 167.031 33.3542C167.323 33.52 167.634 33.6014 167.958 33.6014C168.291 33.6014 168.606 33.5169 168.898 33.348C169.19 33.179 169.425 32.9349 169.602 32.6127C169.78 32.2904 169.869 31.918 169.869 31.4894C169.869 31.0638 169.78 30.6946 169.602 30.3849Z" fill="white"/>
<path d="M172.545 27.3686C172.386 27.2121 172.307 27.0181 172.307 26.7835C172.307 26.5519 172.386 26.3579 172.545 26.1984C172.703 26.0419 172.9 25.9637 173.135 25.9637C173.363 25.9637 173.557 26.0419 173.716 26.1984C173.874 26.3548 173.954 26.5488 173.954 26.7835C173.954 27.015 173.874 27.209 173.716 27.3686C173.557 27.525 173.363 27.6032 173.135 27.6032C172.903 27.6064 172.706 27.5281 172.545 27.3686ZM173.776 28.4261V34.612H172.478V28.4261H173.776Z" fill="white"/>
<path d="M176.601 34.3117C176.121 34.0457 175.747 33.6702 175.474 33.1884C175.201 32.7065 175.065 32.1465 175.065 31.5113C175.065 30.8824 175.204 30.3254 175.487 29.8373C175.766 29.3523 176.15 28.9769 176.636 28.714C177.121 28.4512 177.664 28.3198 178.264 28.3198C178.864 28.3198 179.406 28.4512 179.892 28.714C180.378 28.9769 180.762 29.3492 181.041 29.8373C181.32 30.3254 181.463 30.8824 181.463 31.5113C181.463 32.1402 181.32 32.6971 181.031 33.1853C180.743 33.6734 180.349 34.0488 179.854 34.3148C179.356 34.5807 178.807 34.7122 178.207 34.7122C177.613 34.7122 177.077 34.5776 176.601 34.3117ZM179.146 33.3636C179.438 33.2072 179.676 32.9694 179.857 32.6565C180.038 32.3436 180.13 31.9618 180.13 31.5113C180.13 31.0607 180.041 30.6821 179.87 30.3724C179.695 30.0626 179.464 29.8279 179.175 29.6715C178.886 29.515 178.575 29.4368 178.242 29.4368C177.908 29.4368 177.597 29.515 177.315 29.6715C177.029 29.8279 176.804 30.0626 176.639 30.3724C176.471 30.6821 176.388 31.0638 176.388 31.5113C176.388 32.1777 176.559 32.6909 176.905 33.0538C177.251 33.4168 177.686 33.5983 178.21 33.5983C178.54 33.6014 178.851 33.5232 179.146 33.3636Z" fill="white"/>
<path d="M185.668 29.8405C185.929 29.3617 186.287 28.9894 186.738 28.7234C187.189 28.4575 187.693 28.3261 188.246 28.3261C188.655 28.3261 189.061 28.4137 189.458 28.5889C189.858 28.7641 190.172 28.9988 190.41 29.2898V26.3048H191.721V34.612H190.41V33.6796C190.197 33.98 189.902 34.2272 189.528 34.4212C189.153 34.6152 188.722 34.7122 188.236 34.7122C187.69 34.7122 187.189 34.5745 186.738 34.3023C186.287 34.0301 185.929 33.6483 185.668 33.1571C185.405 32.6659 185.275 32.112 185.275 31.4894C185.278 30.8699 185.408 30.3192 185.668 29.8405ZM190.147 30.4005C189.969 30.0876 189.734 29.8467 189.445 29.6809C189.156 29.515 188.845 29.4337 188.512 29.4337C188.179 29.4337 187.868 29.515 187.579 29.6746C187.29 29.8373 187.055 30.072 186.878 30.3818C186.7 30.6915 186.611 31.0607 186.611 31.4863C186.611 31.9118 186.7 32.2873 186.878 32.6095C187.055 32.9318 187.29 33.1759 187.582 33.3448C187.874 33.5138 188.185 33.5983 188.509 33.5983C188.842 33.5983 189.153 33.5169 189.442 33.3511C189.731 33.1853 189.963 32.9443 190.144 32.6283C190.321 32.3092 190.41 31.9368 190.41 31.5113C190.413 31.0858 190.324 30.7165 190.147 30.4005Z" fill="white"/>
<path d="M199.135 31.9962H194.34C194.378 32.4906 194.562 32.888 194.898 33.1852C195.231 33.4856 195.641 33.6358 196.127 33.6358C196.825 33.6358 197.32 33.3479 197.606 32.7722H199.005C198.815 33.3417 198.472 33.8079 197.974 34.1708C197.475 34.5338 196.86 34.7153 196.123 34.7153C195.523 34.7153 194.987 34.5807 194.511 34.3179C194.035 34.0519 193.664 33.6765 193.394 33.1946C193.124 32.7128 192.991 32.1527 192.991 31.5175C192.991 30.8824 193.121 30.3223 193.384 29.8404C193.645 29.3586 194.016 28.9862 194.489 28.7234C194.962 28.4606 195.508 28.3292 196.123 28.3292C196.717 28.3292 197.244 28.4574 197.707 28.7109C198.17 28.9643 198.529 29.3242 198.789 29.7841C199.046 30.2441 199.177 30.7728 199.177 31.3736C199.183 31.5989 199.167 31.8085 199.135 31.9962ZM197.828 30.9637C197.821 30.4912 197.65 30.1158 197.317 29.831C196.983 29.5463 196.568 29.4055 196.076 29.4055C195.628 29.4055 195.244 29.5463 194.927 29.8279C194.606 30.1095 194.419 30.4881 194.359 30.9668H197.828V30.9637Z" fill="white"/>
<path d="M208.666 30.2535C208.476 30.6039 208.171 30.8918 207.756 31.1108C207.337 31.3329 206.803 31.4424 206.15 31.4424H204.715V34.6089H203.417V26.8085H206.15C206.756 26.8085 207.27 26.9118 207.692 27.1183C208.114 27.3248 208.428 27.6033 208.638 27.9537C208.847 28.3042 208.952 28.6984 208.952 29.1333C208.952 29.5276 208.857 29.903 208.666 30.2535ZM207.254 30.0689C207.498 29.8467 207.619 29.5369 207.619 29.1302C207.619 28.276 207.13 27.8505 206.15 27.8505H204.715V30.3974H206.15C206.645 30.4005 207.013 30.291 207.254 30.0689Z" fill="white"/>
<path d="M210.155 29.8404C210.415 29.3617 210.774 28.9894 211.224 28.7234C211.675 28.4575 212.177 28.326 212.723 28.326C213.218 28.326 213.646 28.423 214.014 28.6139C214.382 28.8048 214.678 29.0426 214.897 29.3273V28.4293H216.207V34.6152H214.897V33.6953C214.678 33.9862 214.376 34.2303 213.998 34.4243C213.618 34.6183 213.186 34.7153 212.7 34.7153C212.161 34.7153 211.669 34.5776 211.221 34.3054C210.774 34.0332 210.418 33.6515 210.158 33.1602C209.895 32.669 209.764 32.1152 209.764 31.4925C209.761 30.8699 209.891 30.3192 210.155 29.8404ZM214.63 30.4005C214.452 30.0876 214.217 29.8467 213.929 29.6809C213.64 29.515 213.329 29.4337 212.995 29.4337C212.662 29.4337 212.351 29.515 212.062 29.6746C211.774 29.8373 211.539 30.072 211.361 30.3817C211.183 30.6915 211.094 31.0607 211.094 31.4862C211.094 31.9118 211.183 32.2873 211.361 32.6095C211.539 32.9318 211.774 33.1759 212.066 33.3448C212.358 33.5138 212.669 33.5983 212.992 33.5983C213.326 33.5983 213.637 33.5169 213.925 33.3511C214.214 33.1852 214.446 32.9443 214.627 32.6283C214.805 32.3092 214.893 31.9368 214.893 31.5113C214.897 31.0857 214.808 30.7165 214.63 30.4005Z" fill="white"/>
<path d="M219.969 28.5889C220.283 28.4137 220.657 28.326 221.089 28.326V29.6496H220.759C220.251 29.6496 219.864 29.7779 219.604 30.0313C219.34 30.2847 219.21 30.7259 219.21 31.3548V34.6089H217.912V28.4262H219.21V29.3242C219.404 29.0082 219.654 28.7641 219.969 28.5889Z" fill="white"/>
<path d="M226.78 28.6264C227.17 28.8298 227.475 29.127 227.697 29.5244C227.916 29.9218 228.027 30.4005 228.027 30.9606V34.6089H226.742V31.1514C226.742 30.5976 226.602 30.1721 226.32 29.878C226.037 29.5839 225.656 29.4337 225.171 29.4337C224.685 29.4337 224.298 29.5807 224.015 29.878C223.73 30.1752 223.59 30.5976 223.59 31.1514V34.6089H222.292V28.4262H223.59V29.1333C223.803 28.8798 224.073 28.6796 224.406 28.5388C224.736 28.398 225.088 28.326 225.46 28.326C225.945 28.3229 226.389 28.4262 226.78 28.6264Z" fill="white"/>
<path d="M229.636 29.8404C229.897 29.3617 230.255 28.9894 230.706 28.7234C231.157 28.4575 231.658 28.326 232.204 28.326C232.699 28.326 233.128 28.423 233.496 28.6139C233.864 28.8048 234.159 29.0426 234.378 29.3273V28.4293H235.689V34.6152H234.378V33.6953C234.159 33.9862 233.858 34.2303 233.48 34.4243C233.099 34.6183 232.667 34.7153 232.182 34.7153C231.642 34.7153 231.15 34.5776 230.703 34.3054C230.255 34.0332 229.9 33.6515 229.639 33.1602C229.376 32.669 229.246 32.1152 229.246 31.4925C229.246 30.8699 229.376 30.3192 229.636 29.8404ZM234.115 30.4005C233.937 30.0876 233.702 29.8467 233.413 29.6809C233.124 29.515 232.813 29.4337 232.48 29.4337C232.147 29.4337 231.836 29.515 231.547 29.6746C231.258 29.8373 231.023 30.072 230.845 30.3817C230.668 30.6915 230.579 31.0607 230.579 31.4862C230.579 31.9118 230.668 32.2873 230.845 32.6095C231.023 32.9318 231.258 33.1759 231.55 33.3448C231.842 33.5138 232.153 33.5983 232.477 33.5983C232.81 33.5983 233.121 33.5169 233.41 33.3511C233.699 33.1852 233.931 32.9443 234.111 32.6283C234.289 32.3092 234.378 31.9368 234.378 31.5113C234.381 31.0857 234.292 30.7165 234.115 30.4005Z" fill="white"/>
<path d="M246.321 28.6264C246.712 28.8298 247.02 29.127 247.245 29.5244C247.467 29.9218 247.581 30.4005 247.581 30.9606V34.6089H246.293V31.1514C246.293 30.5976 246.153 30.1721 245.871 29.878C245.588 29.5839 245.207 29.4337 244.722 29.4337C244.236 29.4337 243.852 29.5807 243.566 29.878C243.281 30.1752 243.138 30.5976 243.138 31.1514V34.6089H241.852V31.1514C241.852 30.5976 241.713 30.1721 241.43 29.878C241.148 29.5839 240.767 29.4337 240.281 29.4337C239.796 29.4337 239.409 29.5807 239.126 29.878C238.84 30.1752 238.701 30.5976 238.701 31.1514V34.6089H237.403V28.4262H238.701V29.1333C238.913 28.8798 239.183 28.6796 239.51 28.5388C239.837 28.398 240.186 28.326 240.558 28.326C241.059 28.326 241.507 28.4293 241.9 28.6389C242.294 28.8486 242.598 29.1521 242.811 29.5494C243.001 29.174 243.297 28.8767 243.7 28.6577C244.103 28.4355 244.534 28.326 244.998 28.326C245.487 28.3229 245.931 28.4262 246.321 28.6264Z" fill="white"/>
<path d="M249.298 27.3686C249.14 27.2121 249.06 27.0181 249.06 26.7835C249.06 26.5519 249.14 26.3579 249.298 26.1984C249.457 26.0419 249.654 25.9637 249.889 25.9637C250.117 25.9637 250.311 26.0419 250.469 26.1984C250.628 26.3548 250.707 26.5488 250.707 26.7835C250.707 27.015 250.628 27.209 250.469 27.3686C250.311 27.525 250.117 27.6032 249.889 27.6032C249.657 27.6064 249.457 27.5281 249.298 27.3686ZM250.53 28.4261V34.612H249.232V28.4261H250.53Z" fill="white"/>
<path d="M254.291 28.5889C254.605 28.4137 254.98 28.326 255.411 28.326V29.6496H255.081C254.573 29.6496 254.186 29.7779 253.926 30.0313C253.666 30.2847 253.532 30.7259 253.532 31.3548V34.6089H252.234V28.4262H253.532V29.3242C253.726 29.0082 253.977 28.7641 254.291 28.5889Z" fill="white"/>
<path d="M256.677 27.3686C256.519 27.2121 256.439 27.0181 256.439 26.7835C256.439 26.5519 256.519 26.3579 256.677 26.1984C256.836 26.0419 257.033 25.9637 257.268 25.9637C257.496 25.9637 257.69 26.0419 257.849 26.1984C258.007 26.3548 258.087 26.5488 258.087 26.7835C258.087 27.015 258.007 27.209 257.849 27.3686C257.69 27.525 257.496 27.6032 257.268 27.6032C257.033 27.6064 256.836 27.5281 256.677 27.3686ZM257.909 28.4261V34.612H256.611V28.4261H257.909Z" fill="white"/>
<path d="M268.538 28.6264C268.929 28.8298 269.237 29.127 269.462 29.5244C269.684 29.9218 269.798 30.4005 269.798 30.9606V34.6089H268.51V31.1514C268.51 30.5976 268.37 30.1721 268.088 29.878C267.805 29.5839 267.424 29.4337 266.939 29.4337C266.453 29.4337 266.069 29.5807 265.783 29.878C265.498 30.1752 265.355 30.5976 265.355 31.1514V34.6089H264.069V31.1514C264.069 30.5976 263.93 30.1721 263.647 29.878C263.365 29.5839 262.984 29.4337 262.498 29.4337C262.013 29.4337 261.626 29.5807 261.343 29.878C261.057 30.1752 260.918 30.5976 260.918 31.1514V34.6089H259.62V28.4262H260.918V29.1333C261.13 28.8798 261.4 28.6796 261.727 28.5388C262.054 28.398 262.403 28.326 262.774 28.326C263.276 28.326 263.723 28.4293 264.117 28.6389C264.511 28.8486 264.815 29.1521 265.028 29.5494C265.218 29.174 265.514 28.8767 265.917 28.6577C266.32 28.4355 266.751 28.326 267.215 28.326C267.704 28.3229 268.148 28.4262 268.538 28.6264Z" fill="white"/>
<path d="M275.661 24.0113L272.563 36.5739H271.287L274.372 24.0113H275.661Z" fill="white"/>
<path d="M281.412 34.612L279.59 31.4894H278.6V34.612H277.302V26.8085H280.034C280.64 26.8085 281.155 26.9149 281.577 27.1246C281.999 27.3342 282.313 27.6158 282.523 27.9662C282.732 28.3167 282.837 28.7109 282.837 29.1458C282.837 29.6558 282.688 30.1158 282.386 30.5319C282.085 30.9481 281.624 31.2297 281.002 31.3799L282.961 34.612H281.412ZM278.6 30.4694H280.034C280.52 30.4694 280.888 30.3505 281.132 30.1095C281.38 29.8686 281.504 29.5495 281.504 29.1427C281.504 28.7391 281.383 28.4231 281.139 28.1946C280.894 27.9662 280.526 27.8536 280.034 27.8536H278.6V30.4694Z" fill="white"/>
<path d="M291 34.612H289.702L285.795 28.786V34.612H284.497V26.796H285.795L289.702 32.6127V26.796H291V34.612Z" fill="white"/>
<path d="M12.9177 12.2653C10.0771 12.2653 7.338 13.1821 5.10042 14.8623V0.469337C5.10042 0.209637 4.88777 0 4.62434 0H0.476081C0.21265 0 0 0.209637 0 0.469337V25C0 28.6201 1.56789 32.0776 4.30695 34.49C6.67466 36.5801 9.73428 37.7347 12.9209 37.7347C20.043 37.7347 25.8385 32.0213 25.8385 25C25.8385 17.9787 20.0399 12.2653 12.9177 12.2653ZM20.7349 25C20.7349 29.2491 17.2278 32.7065 12.9177 32.7065C8.60755 32.7065 5.10042 29.2491 5.10042 25C5.10042 20.7509 8.60755 17.2935 12.9177 17.2935C17.2278 17.2935 20.7349 20.7509 20.7349 25Z" fill="white"/>
<path d="M106.671 12.2653C103.484 12.2653 100.428 13.4168 98.06 15.51C95.3241 17.9224 93.7531 21.383 93.7531 25.0031V49.5338C93.7531 49.7935 93.9657 50.0031 94.2291 50.0031H98.3774C98.6408 50.0031 98.8535 49.7935 98.8535 49.5338V35.1408C101.094 36.821 103.833 37.7378 106.671 37.7378C113.793 37.7378 119.588 32.0244 119.588 25.0031C119.588 17.9818 113.793 12.2653 106.671 12.2653ZM114.488 25C114.488 29.249 110.981 32.7065 106.671 32.7065C102.361 32.7065 98.8535 29.249 98.8535 25C98.8535 20.7509 102.361 17.2935 106.671 17.2935C110.981 17.2935 114.488 20.7509 114.488 25Z" fill="white"/>
<path d="M40.705 12.2653C34.37 12.2653 29.0125 16.7303 27.9651 22.8786C27.8445 23.5763 27.7874 24.2897 27.7874 25C27.7874 25.7103 27.8477 26.4236 27.9651 27.1214C29.0093 33.2697 34.3668 37.7347 40.705 37.7347C44.1582 37.7347 47.4019 36.4111 49.8394 34.005C50.0267 33.8204 50.0267 33.5231 49.8394 33.3417L46.9068 30.4506C46.7195 30.2659 46.418 30.2691 46.2339 30.4506C44.7549 31.9055 42.7934 32.7065 40.705 32.7065C37.3439 32.7065 34.3858 30.6007 33.3099 27.5125H52.9721C53.2038 27.5125 53.4037 27.3467 53.4418 27.1214C53.5624 26.4236 53.6227 25.7103 53.6227 25C53.6227 24.2897 53.5624 23.5763 53.445 22.8786C52.3976 16.7303 47.0401 12.2653 40.705 12.2653ZM33.3099 22.4875C34.3858 19.3992 37.3439 17.2935 40.705 17.2935C44.0662 17.2935 47.0242 19.3992 48.1002 22.4875H33.3099Z" fill="white"/>
<path d="M81.0609 12.2653C79.0454 12.2653 77.0935 12.8442 75.4209 13.9393C74.2497 14.709 72.7326 14.7059 71.5615 13.9393C69.8888 12.8442 67.9401 12.2653 65.9215 12.2653C61.1892 12.2653 57.0029 15.5632 55.965 20.1064C55.8 20.8291 55.7143 21.577 55.7143 22.331V37.2684C55.7143 37.5281 55.9269 37.7378 56.1904 37.7378H60.5164C60.7798 37.7378 60.9924 37.5281 60.9924 37.2684V22.1183C60.9924 19.4649 63.0333 17.281 65.639 17.1464C65.8263 17.137 66.0167 17.137 66.2071 17.1464C68.8129 17.2841 70.8537 19.4681 70.8537 22.1183V37.2684C70.8537 37.5281 71.0663 37.7378 71.3298 37.7378H75.6558C75.9192 37.7378 76.1318 37.5281 76.1318 37.2684V22.1183C76.1318 19.4649 78.1726 17.281 80.7784 17.1464C80.9656 17.137 81.1561 17.137 81.3465 17.1464C83.9523 17.2841 85.9931 19.4681 85.9931 22.1183V37.2684C85.9931 37.5281 86.2057 37.7378 86.4691 37.7378H90.7951C91.0586 37.7378 91.2712 37.5281 91.2712 37.2684V22.3279C91.2712 21.5738 91.1855 20.826 91.0205 20.1064C89.9795 15.5632 85.7931 12.2653 81.0609 12.2653Z" fill="white"/>
</svg>
