<svg width="21" height="17" viewBox="0 0 21 17" fill="none" xmlns="http://www.w3.org/2000/svg">
<path d="M19.3716 7.50521C19.8259 8.09938 19.8259 8.9015 19.3716 9.49471C17.9409 11.3625 14.5081 15.2083 10.5004 15.2083C6.49261 15.2083 3.05986 11.3625 1.62906 9.49471C1.40806 9.21021 1.28809 8.86022 1.28809 8.49996C1.28809 8.1397 1.40806 7.78971 1.62906 7.50521C3.05986 5.63742 6.49261 1.79163 10.5004 1.79163C14.5081 1.79163 17.9409 5.63742 19.3716 7.50521V7.50521Z" stroke="#CCCCCC" stroke-width="2" stroke-linecap="round" stroke-linejoin="round"/>
<path d="M10.5 11.375C12.0878 11.375 13.375 10.0878 13.375 8.5C13.375 6.91218 12.0878 5.625 10.5 5.625C8.91218 5.625 7.625 6.91218 7.625 8.5C7.625 10.0878 8.91218 11.375 10.5 11.375Z" stroke="#CCCCCC" stroke-width="2" stroke-linecap="round" stroke-linejoin="round"/>
</svg>
