<svg width="24" height="22" viewBox="0 0 24 22" fill="none" xmlns="http://www.w3.org/2000/svg">
<path d="M18 22C17.34 22 16.7752 21.7609 16.3056 21.2826C15.8352 20.8034 15.6 20.2278 15.6 19.5556V18.3333H13.2C12.54 18.3333 11.9752 18.0942 11.5056 17.6159C11.0352 17.1368 10.8 16.5611 10.8 15.8889V6.11111H8.4V7.33333C8.4 8.00556 8.1648 8.58081 7.6944 9.05911C7.2248 9.53822 6.66 9.77778 6 9.77778H2.4C1.74 9.77778 1.1752 9.53822 0.7056 9.05911C0.2352 8.58081 0 8.00556 0 7.33333V2.44444C0 1.77222 0.2352 1.19656 0.7056 0.717444C1.1752 0.239148 1.74 0 2.4 0H6C6.66 0 7.2248 0.239148 7.6944 0.717444C8.1648 1.19656 8.4 1.77222 8.4 2.44444V3.66667H15.6V2.44444C15.6 1.77222 15.8352 1.19656 16.3056 0.717444C16.7752 0.239148 17.34 0 18 0H21.6C22.26 0 22.8252 0.239148 23.2956 0.717444C23.7652 1.19656 24 1.77222 24 2.44444V7.33333C24 8.00556 23.7652 8.58081 23.2956 9.05911C22.8252 9.53822 22.26 9.77778 21.6 9.77778H18C17.34 9.77778 16.7752 9.53822 16.3056 9.05911C15.8352 8.58081 15.6 8.00556 15.6 7.33333V6.11111H13.2V15.8889H15.6V14.6667C15.6 13.9944 15.8352 13.4188 16.3056 12.9397C16.7752 12.4614 17.34 12.2222 18 12.2222H21.6C22.26 12.2222 22.8252 12.4614 23.2956 12.9397C23.7652 13.4188 24 13.9944 24 14.6667V19.5556C24 20.2278 23.7652 20.8034 23.2956 21.2826C22.8252 21.7609 22.26 22 21.6 22H18ZM2.4 2.44444V7.33333V2.44444ZM18 14.6667V19.5556V14.6667ZM18 2.44444V7.33333V2.44444ZM18 7.33333H21.6V2.44444H18V7.33333ZM18 19.5556H21.6V14.6667H18V19.5556ZM2.4 7.33333H6V2.44444H2.4V7.33333Z" fill="#F8F8F8"/>
</svg>
