<svg width="22" height="22" viewBox="0 0 22 22" fill="none" xmlns="http://www.w3.org/2000/svg">
<path d="M13.0645 22H8.93736C8.67877 22 8.42794 21.9143 8.22646 21.7571C8.02498 21.5998 7.88496 21.3805 7.82962 21.1354L7.36815 19.063C6.75256 18.8013 6.16884 18.4741 5.62774 18.0873L3.54491 18.7308C3.29838 18.8071 3.03237 18.7992 2.79106 18.7086C2.54975 18.618 2.34766 18.45 2.21834 18.2325L0.150255 14.7664C0.0222982 14.5487 -0.0257337 14.2954 0.0140179 14.0478C0.0537695 13.8002 0.178951 13.5731 0.369082 13.4035L1.98478 11.9735C1.9113 11.3257 1.9113 10.6721 1.98478 10.0243L0.369082 8.5976C0.178682 8.42795 0.0533299 8.20058 0.0135719 7.95276C-0.0261862 7.70494 0.0220079 7.45137 0.150255 7.2336L2.21381 3.7653C2.34312 3.54785 2.54521 3.37985 2.78652 3.28921C3.02783 3.19856 3.29384 3.19073 3.54038 3.267L5.6232 3.9105C5.89986 3.7125 6.18785 3.5277 6.48491 3.3605C6.77176 3.2043 7.06656 3.0624 7.36815 2.9359L7.83075 0.8657C7.88582 0.620617 8.02558 0.401157 8.22685 0.243704C8.42812 0.0862508 8.67881 0.000263963 8.93736 0H13.0645C13.323 0.000263963 13.5737 0.0862508 13.775 0.243704C13.9762 0.401157 14.116 0.620617 14.1711 0.8657L14.6382 2.937C15.2535 3.19869 15.8368 3.52593 16.3775 3.9127L18.4615 3.2692C18.7078 3.19321 18.9736 3.20119 19.2146 3.29182C19.4557 3.38245 19.6576 3.55028 19.7869 3.7675L21.8504 7.2358C22.1135 7.6835 22.0228 8.25 21.6316 8.5987L20.0159 10.0287C20.0894 10.6765 20.0894 11.3301 20.0159 11.9779L21.6316 13.4079C22.0228 13.7577 22.1135 14.3231 21.8504 14.7708L19.7869 18.2391C19.6576 18.4566 19.4555 18.6246 19.2142 18.7152C18.9729 18.8058 18.7069 18.8137 18.4603 18.7374L16.3775 18.0939C15.8368 18.4804 15.2535 18.8073 14.6382 19.0685L14.1711 21.1354C14.1158 21.3803 13.9759 21.5995 13.7747 21.7567C13.5734 21.914 13.3229 21.9998 13.0645 22ZM6.03478 15.6519L6.96451 16.3119C7.17427 16.4615 7.39196 16.599 7.61873 16.7244C7.83189 16.8443 8.04958 16.9521 8.27521 17.05L9.33307 17.4999L9.85122 19.8H12.1529L12.671 17.4988L13.7289 17.0489C14.1904 16.8509 14.6291 16.6056 15.0362 16.3163L15.9659 15.6563L18.2812 16.3713L19.432 14.4375L17.6372 12.8502L17.7642 11.737C17.8208 11.2497 17.8208 10.758 17.7642 10.2718L17.6372 9.1586L19.4331 7.568L18.2812 5.6331L15.967 6.3481L15.0362 5.6881C14.6289 5.39736 14.1906 5.14991 13.7289 4.95L12.671 4.5001L12.1529 2.2H9.85122L9.32966 4.5012L8.27521 4.95C7.81282 5.14647 7.37437 5.39218 6.96792 5.6826L6.03705 6.3426L3.72406 5.6276L2.57096 7.568L4.3658 9.1531L4.23881 10.2674C4.18212 10.7547 4.18212 11.2464 4.23881 11.7326L4.3658 12.8458L2.57096 14.4331L3.72179 16.3669L6.03478 15.6519ZM10.9964 15.4C9.79355 15.4 8.63998 14.9364 7.78945 14.1113C6.93892 13.2861 6.4611 12.167 6.4611 11C6.4611 9.83305 6.93892 8.71389 7.78945 7.88873C8.63998 7.06357 9.79355 6.6 10.9964 6.6C12.1992 6.6 13.3528 7.06357 14.2033 7.88873C15.0538 8.71389 15.5317 9.83305 15.5317 11C15.5317 12.167 15.0538 13.2861 14.2033 14.1113C13.3528 14.9364 12.1992 15.4 10.9964 15.4ZM10.9964 8.8C10.5523 8.80044 10.1182 8.92735 9.7478 9.16499C9.37741 9.40264 9.0871 9.74055 8.91287 10.1368C8.73864 10.5331 8.68817 10.9702 8.76771 11.3941C8.84726 11.8179 9.05332 12.2098 9.36032 12.521C9.66733 12.8323 10.0618 13.0492 10.4947 13.145C10.9277 13.2407 11.3801 13.211 11.7958 13.0596C12.2115 12.9082 12.5722 12.6416 12.8332 12.2931C13.0943 11.9446 13.244 11.5294 13.264 11.099V11.539V11C13.264 10.4165 13.0251 9.85695 12.5998 9.44437C12.1746 9.03179 11.5978 8.8 10.9964 8.8Z" fill="#F8F8F8"/>
</svg>
