<svg width="19" height="17" viewBox="0 0 19 17" fill="none" xmlns="http://www.w3.org/2000/svg">
<path d="M5.01405 12.9879C3.39968 11.8416 2.12218 10.3506 1.4003 9.40912C1.19844 9.14923 1.08887 8.82952 1.08887 8.50044C1.08887 8.17136 1.19844 7.85165 1.4003 7.59175C2.70668 5.88637 5.84093 2.375 9.50018 2.375C11.1417 2.375 12.6764 3.08113 13.9889 4.01475" stroke="#CCCCCC" stroke-width="2" stroke-linecap="round" stroke-linejoin="round"/>
<path d="M7.75 14.366C8.31805 14.5351 8.90732 14.6223 9.5 14.625C13.1593 14.625 16.2935 11.1136 17.5999 9.40825C17.8017 9.14812 17.9111 8.82821 17.911 8.49898C17.9108 8.16974 17.8011 7.84994 17.599 7.59C17.1399 6.99105 16.6473 6.41848 16.1237 5.875M11.3638 6.65113C11.1208 6.40408 10.8313 6.2076 10.5119 6.073C10.1926 5.9384 9.84984 5.86836 9.50332 5.86691C9.15681 5.86545 8.81343 5.93262 8.49301 6.06454C8.17258 6.19646 7.88144 6.39051 7.63639 6.63551C7.39133 6.88051 7.19721 7.1716 7.06522 7.49199C6.93323 7.81239 6.86598 8.15575 6.86735 8.50226C6.86872 8.84878 6.93868 9.19159 7.0732 9.51094C7.20772 9.83028 7.40414 10.1198 7.65113 10.3629L11.3638 6.65113ZM2.5 15.5L16.5 1.5L2.5 15.5Z" stroke="#CCCCCC" stroke-width="2" stroke-linecap="round" stroke-linejoin="round"/>
</svg>
