<svg width="31" height="31" viewBox="0 0 31 31" fill="none" xmlns="http://www.w3.org/2000/svg">
<path d="M30.8591 16.1075V14.8926C30.8591 14.7391 30.7359 14.6144 30.5844 14.6144H28.7952C28.7587 14.0503 28.6887 13.4959 28.5858 12.9529L30.3142 12.4935C30.4612 12.4545 30.5489 12.3026 30.5104 12.1537L30.2058 10.9789C30.1672 10.83 30.0172 10.7412 29.8702 10.7802L28.1423 11.2396C27.9604 10.6873 27.7465 10.1504 27.4981 9.63307L29.0486 8.73895C29.1804 8.66299 29.2265 8.49309 29.1515 8.35964L28.558 7.30385C28.483 7.1704 28.3152 7.12369 28.1834 7.19965L26.6304 8.09531C26.2979 7.58614 25.9314 7.10264 25.5356 6.64532L26.8012 5.36368C26.9086 5.25487 26.9086 5.07882 26.8012 4.97L25.9527 4.11079C25.8453 4.00198 25.6714 4.00198 25.564 4.11079L24.2983 5.39243C23.8832 5.0239 23.4473 4.67847 22.9886 4.36435L23.8888 2.80298C23.9653 2.67004 23.9212 2.49963 23.7899 2.42213L22.7539 1.80928C22.6227 1.73178 22.4544 1.77644 22.3778 1.90937L21.4766 3.47177C20.9536 3.20692 20.4107 2.97697 19.8506 2.78296L20.3164 1.0363C20.356 0.887964 20.2693 0.735009 20.1228 0.694974L18.9647 0.378286C18.8182 0.338251 18.6671 0.42602 18.6276 0.574355L18.1623 2.31948C17.5961 2.20502 17.0168 2.12905 16.4273 2.09056V0.278711C16.4273 0.125244 16.3041 0.000518799 16.1526 0.000518799H14.9529C14.8013 0.000518799 14.6781 0.125244 14.6781 0.278711V2.09056C14.1211 2.12751 13.5737 2.19834 13.0374 2.30254L12.5838 0.552285C12.5453 0.403436 12.3953 0.31464 12.2483 0.353649L11.0881 0.662125C10.9411 0.701133 10.8534 0.853061 10.8919 1.00191L11.3455 2.75165C10.8002 2.93591 10.27 3.15251 9.75857 3.40402L8.87563 1.83392C8.80061 1.70047 8.63284 1.65376 8.50106 1.72973L7.45845 2.33077C7.32667 2.40673 7.28054 2.57662 7.35556 2.71007L8.24003 4.28274C7.73722 4.61944 7.25976 4.99054 6.80815 5.3914L5.54252 4.10976C5.43507 4.00095 5.26122 4.00095 5.15376 4.10976L4.30528 4.96949C4.19783 5.0783 4.19783 5.25436 4.30528 5.36317L5.57091 6.64481C5.20698 7.06518 4.86587 7.50659 4.55516 7.9711L3.0133 7.05953C2.88202 6.98203 2.71374 7.02668 2.63721 7.15962L2.03202 8.20874C1.95548 8.34168 1.99958 8.51209 2.13086 8.58959L3.67374 9.50218C3.4122 10.0319 3.18512 10.5816 2.99353 11.1488L1.26869 10.6771C1.12221 10.637 0.971164 10.7248 0.931629 10.8731L0.618898 12.046C0.579363 12.1943 0.666036 12.3472 0.812518 12.3873L2.53584 12.8585C2.42281 13.4318 2.34779 14.0185 2.30978 14.6154H0.520567C0.369016 14.6154 0.24585 14.7401 0.24585 14.8936V16.1085C0.24585 16.262 0.369016 16.3867 0.520567 16.3867H2.30978C2.34627 16.9508 2.41622 17.5051 2.51911 18.0481L0.790723 18.5075C0.643734 18.5465 0.556047 18.6985 0.594568 18.8473L0.899191 20.0222C0.937712 20.171 1.08774 20.2598 1.23473 20.2208L2.96363 19.7609C3.14559 20.3132 3.35948 20.8501 3.60784 21.3675L2.05736 22.2616C1.92558 22.3375 1.87946 22.5074 1.95447 22.6409L2.548 23.6967C2.62302 23.8301 2.79079 23.8768 2.92257 23.8009L4.47559 22.9052C4.80809 23.4144 5.17454 23.8979 5.5704 24.3552L4.30477 25.6368C4.19732 25.7457 4.19732 25.9217 4.30477 26.0305L5.15326 26.8897C5.26071 26.9986 5.43456 26.9986 5.54202 26.8897L6.80764 25.6081C7.22276 25.9766 7.65866 26.3221 8.11737 26.6362L7.21718 28.1976C7.14065 28.3305 7.18475 28.5009 7.31602 28.5784L8.35204 29.1912C8.48332 29.2687 8.65159 29.2241 8.72813 29.0912L9.62933 27.5288C10.1524 27.7936 10.6952 28.0236 11.2553 28.2176L10.7895 29.9642C10.75 30.1126 10.8367 30.2655 10.9831 30.3056L12.1413 30.6222C12.2878 30.6623 12.4388 30.5745 12.4784 30.4262L12.8783 28.9274C12.9153 28.7883 13.0511 28.7031 13.1915 28.7283C13.5965 28.8017 14.0086 28.8556 14.4257 28.891C14.5687 28.9033 14.6797 29.0224 14.6797 29.1676V30.7218C14.6797 30.8753 14.8028 31 14.9544 31H16.1541C16.3057 31 16.4288 30.8753 16.4288 30.7218V29.1676C16.4288 29.0224 16.5398 28.9033 16.6828 28.891C17.067 28.8581 17.4461 28.8094 17.8202 28.7442C17.9616 28.7195 18.0979 28.8063 18.1344 28.9469L18.5237 30.4488C18.5622 30.5976 18.7122 30.6864 18.8592 30.6474L20.0194 30.3389C20.1664 30.2999 20.2541 30.148 20.2156 29.9991L19.7619 28.2494C20.3073 28.0651 20.8375 27.8485 21.3489 27.597L22.3677 29.4089L23.649 28.6703C23.7808 28.5943 23.8269 28.4244 23.7519 28.291L22.8675 26.7183C23.3703 26.3816 23.8477 26.0105 24.2993 25.6096L25.565 26.8913C25.6724 27.0001 25.8463 27.0001 25.9537 26.8913L26.8022 26.0321C26.9097 25.9232 26.9097 25.7472 26.8022 25.6384L25.5366 24.3567C25.9005 23.9364 26.2416 23.495 26.5523 23.0305L28.0942 23.942C28.2255 24.0195 28.3937 23.9749 28.4703 23.8419L29.0755 22.7928C29.152 22.6599 29.1079 22.4895 28.9766 22.412L27.4338 21.4994C27.6953 20.9697 27.9224 20.42 28.114 19.8528L29.8388 20.3245C29.9853 20.3645 30.1363 20.2768 30.1759 20.1284L30.4886 18.9556C30.5281 18.8073 30.4415 18.6543 30.295 18.6143L28.5717 18.1431C28.6847 17.5698 28.7592 16.9831 28.7977 16.3862H30.5869C30.7364 16.3857 30.8591 16.2614 30.8591 16.1075Z" fill="#36AA3B"/>
<path d="M15.5622 4.23346C9.41707 4.22833 4.4311 9.26711 4.42603 15.4895C4.42096 21.7124 9.39832 26.7614 15.5435 26.7666C21.6886 26.7717 26.6746 21.7314 26.6797 15.5085C26.6847 9.2861 21.7074 4.2386 15.5622 4.23346ZM15.5617 4.98643C11.6508 4.98284 8.23406 7.12369 6.39416 10.3132C8.05818 6.89066 11.5393 4.53783 15.5622 4.54143C19.5765 4.54502 23.046 6.89477 24.71 10.309C22.8716 7.12677 19.464 4.98951 15.5617 4.98643Z" fill="#FFF212"/>
<path d="M24.7101 10.3091C22.8718 7.12679 19.4642 4.98953 15.5618 4.98645C11.6509 4.98286 8.23419 7.12371 6.39429 10.3132C8.05831 6.89069 11.5394 4.53785 15.5624 4.54145C19.5767 4.54504 23.0461 6.89479 24.7101 10.3091Z" fill="white"/>
<path d="M30.8834 15.2405C30.8707 15.2226 30.855 15.2025 30.8408 15.1882C30.8282 15.1738 30.814 15.161 30.7998 15.1486L30.7856 15.1358C30.7587 15.1122 30.7253 15.0891 30.6893 15.0691C30.5666 14.9952 30.4227 14.9557 30.2696 14.9557H18.215C17.9002 14.9557 17.6209 15.1266 17.4983 15.3683V13.3312C17.4983 13.2141 17.4734 13.095 17.4202 12.9944L16.7978 11.7446C16.7481 11.6476 16.6625 11.5717 16.5646 11.5357V2.75881C16.5646 2.67771 16.5469 2.59867 16.5165 2.5227L16.4668 2.40568L16.4293 2.31586L16.3705 2.17881L16.2833 1.97145L15.7998 0.817106C15.7552 0.718045 15.6574 0.64978 15.5489 0.64978C15.4384 0.655426 15.3441 0.714452 15.3 0.817106L14.7166 2.14802L14.6082 2.40003L14.5565 2.51552C14.521 2.59302 14.5083 2.67771 14.5083 2.7624V11.5301C14.4034 11.5717 14.3218 11.6471 14.2681 11.7446L13.6492 12.9944C13.596 13.0956 13.5711 13.2141 13.5711 13.3312V15.3303C13.5443 15.28 13.5123 15.2313 13.4713 15.1882C13.3359 15.0403 13.1281 14.9557 12.9021 14.9557H0.779523C0.612259 14.9557 0.447023 15.0044 0.313719 15.0927C0.278239 15.1143 0.246307 15.1394 0.217416 15.1646C0.183457 15.1953 0.150004 15.2313 0.119592 15.2708C0.048632 15.3699 0.00757641 15.4818 0.000480387 15.5967C-0.00509506 15.7302 0.037988 15.8652 0.12314 15.9786L0.160648 16.0217C0.178388 16.0417 0.199676 16.0597 0.217416 16.0756C0.247828 16.1008 0.28128 16.1244 0.313719 16.1439C0.434859 16.2157 0.578807 16.2537 0.731878 16.2537H0.948814C0.909786 16.3112 0.879374 16.3764 0.861634 16.4426C0.854538 16.4734 0.848962 16.5073 0.845414 16.5309C0.841866 16.5473 0.841866 16.5581 0.841866 16.5617C0.839839 16.5889 0.841866 16.614 0.843894 16.6428C0.856565 16.7706 0.909786 16.8912 1.00203 16.9923C1.04106 17.0318 1.08364 17.0678 1.12317 17.0934C1.25496 17.1853 1.41462 17.2341 1.58746 17.2341L2.0411 17.2325C1.97723 17.3259 1.94327 17.4286 1.93972 17.5333C1.93263 17.6898 1.9894 17.8413 2.09989 17.9603C2.17643 18.0414 2.2778 18.1046 2.39133 18.142C2.42327 18.1549 2.4552 18.162 2.49119 18.1692C2.52515 18.1785 2.5586 18.1821 2.58749 18.1836C2.61587 18.1872 2.64274 18.1872 2.67112 18.1872H2.88451C2.82064 18.2827 2.78314 18.3889 2.77604 18.4972C2.76894 18.6522 2.82571 18.8036 2.93773 18.9258C3.07458 19.0716 3.2829 19.1563 3.50693 19.1563H4.49784C4.43043 19.2517 4.39292 19.3616 4.38735 19.4735C4.37822 19.6264 4.43702 19.7814 4.54751 19.9005C4.68791 20.0483 4.89623 20.131 5.11672 20.131H6.46141C6.40262 20.2228 6.36714 20.3255 6.36156 20.4338C6.35447 20.5852 6.41123 20.7402 6.52173 20.8608C6.66213 21.0066 6.87045 21.0897 7.09245 21.0897H8.84771C8.78384 21.1832 8.74633 21.2915 8.74127 21.3977C8.73214 21.5527 8.78942 21.7041 8.89941 21.8247C9.03829 21.9741 9.2461 22.0588 9.47013 22.0588H11.4783C11.4144 22.1522 11.3785 22.2569 11.3734 22.3668C11.3663 22.5269 11.4231 22.6783 11.5336 22.7938C11.676 22.9416 11.8838 23.0263 12.1043 23.0263H13.5716V24.1791L12.8103 26.4611L12.7819 26.5458L12.7551 26.6284L11.5761 30.1674C11.5477 30.2465 11.5868 30.3348 11.6648 30.3671L12.2837 30.6119L12.376 30.6463L12.4347 30.6679C12.4434 30.6715 12.4545 30.6751 12.4631 30.6787C12.4758 30.6807 12.4864 30.6823 12.4935 30.6823C12.5468 30.6823 12.5949 30.6551 12.6253 30.6104L13.6461 29.0075L13.6958 28.9264L13.749 28.8437L13.8327 28.7123H17.2494L17.3239 28.8314L17.3771 28.9125L17.4288 28.9951L18.3326 30.42L18.4552 30.6109C18.4714 30.6345 18.4927 30.654 18.5176 30.6648C18.5409 30.6776 18.5637 30.6828 18.585 30.6828C18.6083 30.6828 18.626 30.6771 18.6453 30.6684L18.6701 30.6592L19.4137 30.3676C19.4938 30.3353 19.5328 30.247 19.5059 30.168L18.3199 26.611L18.293 26.5263L18.2646 26.4416L17.4983 24.1416V23.0268H18.9139C19.3265 23.0268 19.6752 22.7368 19.693 22.3822C19.6985 22.2687 19.6697 22.1568 19.6093 22.0598H21.059C21.434 22.0598 21.765 21.8186 21.8253 21.5034C21.8324 21.4819 21.836 21.4639 21.8395 21.4439L21.8451 21.4131C21.8507 21.2997 21.8238 21.1914 21.765 21.0908H23.7053C23.83 21.0908 23.9541 21.0636 24.0611 21.0117C24.3226 20.9091 24.5005 20.6837 24.5147 20.4374C24.5167 20.3275 24.4899 20.2213 24.4346 20.1258H25.7063C25.7418 20.1238 25.7773 20.1222 25.8042 20.115C25.829 20.113 25.8538 20.1079 25.8772 20.1022C26.238 20.0535 26.5102 19.7907 26.5264 19.477C26.5315 19.3636 26.5016 19.2517 26.4448 19.1583H27.4961C27.9086 19.1583 28.2574 18.8704 28.2751 18.5172C28.2807 18.4002 28.2503 18.2883 28.1915 18.1893H28.4991C28.5331 18.1872 28.565 18.1857 28.5934 18.18C28.9543 18.1277 29.2265 17.8628 29.2407 17.5477C29.2478 17.4358 29.2174 17.3223 29.1606 17.2253H29.5073C29.7262 17.2253 29.9341 17.1463 30.0765 17.0092C30.1905 16.9138 30.2686 16.786 30.2954 16.6525C30.3025 16.6238 30.3046 16.5986 30.3061 16.5699V16.5499C30.3061 16.5175 30.3041 16.4867 30.3005 16.4508C30.2878 16.3841 30.263 16.3174 30.2296 16.2563C30.3968 16.2542 30.5605 16.206 30.6903 16.1213C30.7258 16.0997 30.7577 16.0746 30.7866 16.0458C30.8221 16.015 30.8525 15.9812 30.8844 15.9396C30.9554 15.8405 30.9949 15.7286 31 15.6173C31.0061 15.4797 30.9635 15.3468 30.8834 15.2405ZM13.5711 28.5358L13.3557 28.8725L13.306 28.9515L12.6943 29.9098L12.5376 30.1567V30.1587L12.4312 30.3245L11.9208 30.1243L13.0891 26.6177L13.1175 26.533L13.5711 25.1749V28.5358ZM13.5711 22.6983H12.1038C11.9705 22.6983 11.8443 22.6496 11.7642 22.5685C11.7125 22.5146 11.6876 22.4494 11.6912 22.3796C11.6983 22.2266 11.8549 22.0881 12.0592 22.0537C12.0683 22.0516 12.0769 22.048 12.086 22.0444H13.5711V22.6983ZM13.5711 21.7185H9.46253C9.32365 21.7185 9.20301 21.6718 9.128 21.5907C9.08187 21.5383 9.05856 21.4752 9.06413 21.4126C9.07681 21.2309 9.29019 21.081 9.53703 21.081H12.2158C12.303 21.081 12.3775 21.0056 12.3775 20.9137C12.3775 20.8275 12.303 20.7551 12.2138 20.7551L7.09144 20.7659C6.95814 20.7659 6.83193 20.7171 6.75336 20.636C6.70166 20.5801 6.67531 20.5133 6.67886 20.4451C6.68443 20.3044 6.82128 20.1715 6.99007 20.1299H11.4773C11.566 20.1299 11.6375 20.0581 11.6375 19.9662C11.6375 19.8779 11.5665 19.8061 11.4773 19.8061L5.12229 19.7989C4.98544 19.7989 4.86278 19.7501 4.78422 19.6639C4.73252 19.6115 4.70768 19.5469 4.71326 19.4786C4.7168 19.4011 4.76141 19.32 4.8344 19.2604C4.879 19.2281 4.92664 19.2009 4.98037 19.1829C5.00369 19.1737 5.02852 19.1686 5.05691 19.1629C5.08884 19.1557 5.12432 19.1521 5.16537 19.1521H11.1306C11.2213 19.1521 11.2943 19.0803 11.2943 18.992C11.2943 18.9022 11.2213 18.8298 11.1306 18.8298L3.50592 18.8334C3.37059 18.8334 3.24641 18.7846 3.16987 18.702C3.11665 18.6425 3.08979 18.5793 3.09333 18.5167C3.10195 18.3617 3.25705 18.2231 3.4456 18.1872L11.088 18.1836C11.1752 18.1836 11.2446 18.1133 11.2446 18.0271C11.2446 17.9372 11.1752 17.8669 11.088 17.8669H2.68633C2.61689 17.8669 2.551 17.8541 2.4922 17.8289C2.46027 17.8182 2.4334 17.8038 2.41212 17.7894C2.38728 17.7715 2.36599 17.755 2.34825 17.7371C2.31074 17.6955 2.26817 17.6324 2.27729 17.5554C2.27729 17.5282 2.28084 17.5102 2.28996 17.4799C2.28996 17.4779 2.29199 17.4707 2.30061 17.4548C2.31125 17.4368 2.3219 17.4152 2.33457 17.4009L2.34876 17.3844L2.36295 17.3701C2.37917 17.3501 2.39691 17.3357 2.42529 17.3177C2.43087 17.3141 2.43594 17.3085 2.45216 17.2998C2.46483 17.2905 2.48054 17.2818 2.50386 17.2726C2.5216 17.2633 2.53934 17.2561 2.56417 17.251C2.57127 17.2489 2.57837 17.2453 2.59813 17.2418C2.61435 17.2361 2.63209 17.2325 2.64071 17.231L4.52065 17.2253L11.2669 17.2233C11.3485 17.2233 11.42 17.1586 11.4271 17.0683L11.4291 17.0447C11.4291 16.9548 11.3582 16.8825 11.2675 16.8825L4.58705 16.9004L4.06397 16.9025L1.57377 16.8989C1.47392 16.8989 1.37812 16.8737 1.30362 16.825C1.28587 16.8142 1.26966 16.7998 1.25039 16.7783C1.20934 16.7331 1.1845 16.6828 1.18096 16.6217C1.17893 16.6161 1.17741 16.6074 1.17893 16.5858C1.17893 16.5766 1.18096 16.5658 1.18248 16.5571C1.184 16.5499 1.18602 16.5406 1.18957 16.5263C1.19312 16.5155 1.19464 16.5098 1.19667 16.5047L1.20579 16.4867C1.21491 16.4703 1.22353 16.4523 1.2362 16.4364C1.24533 16.4236 1.25597 16.4113 1.27016 16.3985C1.28283 16.3856 1.29703 16.3712 1.31629 16.3569C1.32896 16.3461 1.34467 16.3369 1.36799 16.3245C1.38421 16.3138 1.40195 16.3045 1.41766 16.2994C1.43743 16.2922 1.45871 16.283 1.48507 16.2778C1.50484 16.2722 1.5241 16.2671 1.55096 16.2635C1.56009 16.2599 1.5687 16.2599 1.58492 16.2599L1.60621 16.2563C1.61685 16.2563 1.62598 16.2547 1.63662 16.2547H11.7424C11.8311 16.2547 11.9005 16.1844 11.9005 16.0946C11.9005 16.0048 11.8311 15.9345 11.7424 15.9345H0.731371C0.598067 15.9345 0.471859 15.8857 0.393296 15.8031C0.380625 15.7902 0.369981 15.7759 0.361364 15.7599C0.348693 15.7435 0.343624 15.7327 0.336528 15.7132C0.33298 15.7076 0.330953 15.7004 0.329432 15.6953L0.331459 15.6932L0.322336 15.6547C0.318788 15.6439 0.318788 15.6347 0.318788 15.6188C0.318788 15.6044 0.320815 15.5916 0.324363 15.5721C0.326391 15.5649 0.327911 15.5593 0.333487 15.5433C0.337035 15.5305 0.344131 15.5161 0.351227 15.5018L0.367446 15.4766C0.392282 15.4371 0.426242 15.4027 0.477942 15.3704C0.48301 15.3647 0.488586 15.3611 0.502778 15.3539C0.515449 15.3468 0.527614 15.3396 0.547381 15.3288C0.561573 15.3216 0.579313 15.316 0.607698 15.3072C0.614794 15.3036 0.620369 15.3016 0.636082 15.3001C0.652301 15.2944 0.670041 15.2908 0.691329 15.2872C0.714645 15.2816 0.743029 15.28 0.78003 15.28H12.9026C13.0415 15.28 13.1621 15.3267 13.2422 15.4099C13.2939 15.4638 13.3187 15.5269 13.3152 15.5952C13.3116 15.6742 13.2726 15.7517 13.2118 15.8077C12.5184 16.3102 12.1038 17.1278 12.1038 17.9942C12.1038 18.992 12.6552 19.9036 13.5407 20.3732L13.5711 20.3896V21.7185ZM13.5711 20.0221C12.863 19.5915 12.4256 18.819 12.4256 17.9942C12.4256 17.2325 12.7885 16.5119 13.3983 16.0689L13.4267 16.0489V16.0433C13.487 15.9873 13.5351 15.9242 13.5706 15.8544V20.0221H13.5711ZM14.821 2.7624C14.821 2.72288 14.8281 2.6813 14.8444 2.64692L15.5489 1.03473L16.2245 2.64692C16.2408 2.6813 16.2478 2.71877 16.2478 2.75881V11.5876C16.2103 11.6327 16.0613 11.7534 15.5758 11.7534C15.0121 11.7534 14.8555 11.6271 14.8215 11.5932V2.7624H14.821ZM17.185 24.1504C17.1744 24.2602 17.1744 24.4568 17.1744 24.8402C17.1779 25.258 17.1779 25.8072 17.1815 26.3621V26.7562C17.1835 27.0699 17.185 27.3722 17.185 27.6386V28.3915H13.891C13.891 28.2817 13.891 28.1215 13.893 27.927C13.893 27.8172 13.895 27.6909 13.895 27.5559C13.895 27.464 13.897 27.3706 13.897 27.2716C13.8991 27.1905 13.8991 27.1094 13.8991 27.0247C13.8991 26.94 13.9006 26.8553 13.9006 26.7691V26.6793C13.9006 26.5745 13.9026 26.4683 13.9026 26.3621C13.9026 25.8072 13.9062 25.258 13.9062 24.8402C13.9062 24.3613 13.9062 24.1683 13.8849 24.0836V13.3312C13.8849 13.2608 13.8991 13.1941 13.9295 13.1387L14.5484 11.8904C14.5646 11.8632 14.5838 11.8437 14.6087 11.8345C14.7313 11.9499 14.9964 12.0685 15.5763 12.0685C16.0887 12.0685 16.3391 11.9422 16.4546 11.8345C16.4795 11.8437 16.5028 11.8632 16.517 11.8904L17.1414 13.1387C17.1719 13.1946 17.186 13.2613 17.186 13.3312V24.1504H17.185ZM17.957 26.515L17.9854 26.6012L19.1592 30.1243L18.6488 30.3245L18.2256 29.6598V29.6578L18.0761 29.4217L17.7684 28.9392L17.7188 28.8581L17.5054 28.525C17.5018 28.2478 17.5018 27.9486 17.4983 27.6391V25.1389L17.957 26.515ZM17.4983 15.8888C17.5322 15.9534 17.5784 16.015 17.6387 16.0689L17.6655 16.0941C18.2611 16.5478 18.6027 17.2397 18.6027 17.9942C18.6027 18.7975 18.1795 19.5612 17.4983 19.9934V15.8888V15.8888ZM18.9139 22.6983H17.4983V22.0449L19.0315 22.047L19.0599 22.0562C19.2485 22.0886 19.3818 22.2184 19.3747 22.3662C19.3655 22.549 19.1592 22.6983 18.9139 22.6983ZM30.6791 15.6203L30.67 15.6547L30.672 15.6583C30.672 15.6619 30.67 15.6655 30.6685 15.6711C30.6665 15.6747 30.6649 15.684 30.6579 15.6963C30.6508 15.7143 30.6401 15.7322 30.6224 15.7522C30.6188 15.7579 30.6117 15.7687 30.5975 15.783C30.5813 15.8031 30.56 15.821 30.5281 15.8426C30.5175 15.8498 30.5083 15.857 30.4977 15.8626C30.4764 15.8754 30.4531 15.8862 30.4232 15.8985C30.4105 15.9042 30.3983 15.9078 30.3771 15.9129L30.336 15.9221C30.3162 15.9278 30.2949 15.9293 30.2792 15.9314L30.2225 15.935L19.3199 15.9078C19.2327 15.9078 19.1633 15.9781 19.1633 16.0679C19.1633 16.1598 19.2327 16.2337 19.3199 16.2337H29.5985C29.6183 16.2445 29.636 16.2517 29.6573 16.2553L29.6913 16.2645C29.7019 16.2681 29.7146 16.2701 29.7268 16.2753C29.7501 16.2825 29.7714 16.2917 29.7962 16.304C29.8089 16.3097 29.8195 16.3168 29.8337 16.3256C29.8535 16.3384 29.8712 16.3528 29.8854 16.3671C29.9123 16.3943 29.9335 16.4231 29.9477 16.4518C29.964 16.4862 29.9711 16.5165 29.9711 16.5488V16.5632C29.969 16.5832 29.9655 16.6027 29.9619 16.6192C29.9457 16.6731 29.9138 16.7275 29.8712 16.767C29.784 16.8409 29.6593 16.884 29.5281 16.884H19.7979C19.7518 16.884 19.7072 16.9056 19.6752 16.9451C19.6484 16.9774 19.6377 17.0118 19.6377 17.0534C19.6377 17.1417 19.7072 17.212 19.7943 17.212H28.5108C28.527 17.212 28.5463 17.212 28.5625 17.2135L28.6319 17.2315C28.6517 17.2387 28.671 17.2443 28.6907 17.2515L28.7034 17.2572C28.7176 17.2643 28.7338 17.27 28.7566 17.2844C28.7673 17.2915 28.7764 17.2972 28.7906 17.308C28.8012 17.3172 28.8119 17.3259 28.8245 17.3388C28.8281 17.3408 28.8337 17.3495 28.8387 17.3552C28.8473 17.366 28.8565 17.3788 28.8656 17.3896C28.896 17.4327 28.9102 17.4815 28.9046 17.5338C28.9026 17.579 28.8884 17.6221 28.8636 17.6637C28.8544 17.678 28.8474 17.6909 28.8352 17.7052C28.8296 17.7109 28.8261 17.7145 28.8174 17.7232C28.8103 17.7304 28.8033 17.7376 28.7926 17.7484C28.7749 17.7627 28.7551 17.7771 28.7429 17.7863L28.7252 17.7956C28.713 17.8028 28.7019 17.8084 28.6912 17.8135C28.6735 17.8228 28.6537 17.83 28.638 17.8351L28.5848 17.8531C28.5686 17.8567 28.5529 17.8587 28.5331 17.8623L28.5316 17.8602L28.5103 17.8638C28.4905 17.8674 28.4692 17.8695 28.45 17.8695H19.9753C19.8881 17.8695 19.8172 17.9413 19.8172 18.0296C19.8172 18.1194 19.8866 18.1898 19.9753 18.1898L27.6446 18.1877C27.8331 18.2236 27.9649 18.355 27.9593 18.4993C27.9487 18.681 27.7368 18.836 27.4971 18.836L19.9505 18.8252C19.8597 18.8252 19.7867 18.8971 19.7867 18.9853C19.7867 19.0752 19.8597 19.1475 19.9505 19.1475H25.8037C25.8108 19.1496 25.8199 19.1532 25.8341 19.1583C25.8483 19.1604 25.8625 19.164 25.8893 19.1691C25.8964 19.1711 25.9055 19.1747 25.9283 19.1835L25.9638 19.1999C25.9765 19.2055 25.9851 19.2107 25.9978 19.2178C26.01 19.225 26.0211 19.2322 26.0353 19.2451C26.0439 19.2522 26.053 19.2594 26.0622 19.2687L26.0834 19.2887C26.0921 19.2995 26.0997 19.3102 26.1068 19.321L26.1174 19.339C26.1265 19.3554 26.1351 19.3749 26.1407 19.4001C26.1427 19.4057 26.1443 19.4129 26.1443 19.4216C26.1463 19.4309 26.1478 19.4416 26.1478 19.4524V19.4668C26.1422 19.6182 26.0003 19.7511 25.8168 19.7912H25.7829C25.7738 19.7912 25.7651 19.7927 25.7454 19.7948L19.5774 19.7783C19.4887 19.7783 19.4172 19.8502 19.4172 19.9405C19.4172 20.0124 19.4618 20.0755 19.5257 20.0955C19.5526 20.1099 19.5774 20.1156 19.6022 20.1156H23.8208C23.83 20.1212 23.8406 20.1227 23.8492 20.1227C24.0428 20.1587 24.1746 20.2885 24.1695 20.4343C24.1625 20.5477 24.0773 20.656 23.947 20.7171C23.874 20.7443 23.8031 20.7587 23.7337 20.7587H20.1426L18.8389 20.753C18.7502 20.753 18.6772 20.8249 18.6772 20.9152C18.6772 20.9927 18.7304 21.0574 18.807 21.0738C18.8232 21.0795 18.8374 21.0795 18.8516 21.0795L21.1248 21.0851C21.1446 21.0851 21.1674 21.0851 21.1836 21.0872L21.2034 21.0928C21.3955 21.1236 21.5288 21.253 21.5182 21.4044C21.5182 21.4172 21.5182 21.4244 21.5161 21.4295C21.4786 21.5953 21.2723 21.7231 21.0503 21.7231H17.4988V20.3722L17.5307 20.3542C18.3898 19.8769 18.9236 18.973 18.9236 17.9983C18.9236 17.1391 18.5358 16.3538 17.8546 15.8369C17.7872 15.7794 17.7512 15.7035 17.7547 15.6188C17.7654 15.435 17.9717 15.2836 18.2155 15.2836H30.2706C30.4095 15.2836 30.5322 15.3303 30.6051 15.4114C30.6193 15.4279 30.632 15.4438 30.6426 15.4566C30.6482 15.4674 30.6533 15.4766 30.6589 15.4853V15.4997L30.6675 15.509C30.6695 15.5146 30.671 15.5197 30.6731 15.5254L30.6822 15.5685C30.6842 15.5777 30.6842 15.5921 30.6842 15.6065C30.6827 15.6075 30.6827 15.6111 30.6791 15.6203Z" fill="black"/>
<path d="M30.6791 15.6204L30.67 15.6548L30.672 15.6583C30.672 15.6619 30.67 15.6655 30.6685 15.6712C30.6665 15.6748 30.6649 15.684 30.6578 15.6963C30.6508 15.7143 30.6401 15.7323 30.6224 15.7523C30.6188 15.7579 30.6117 15.7687 30.5975 15.7831C30.5813 15.8031 30.56 15.8211 30.5281 15.8426C30.5175 15.8498 30.5083 15.857 30.4977 15.8626C30.4764 15.8755 30.4531 15.8862 30.4232 15.8986C30.4105 15.9042 30.3983 15.9078 30.3771 15.9129L30.336 15.9222C30.3162 15.9278 30.2949 15.9294 30.2792 15.9314L30.2225 15.935L19.3199 15.9078C19.2327 15.9078 19.1633 15.9781 19.1633 16.0679C19.1633 16.1598 19.2327 16.2337 19.3199 16.2337H29.5985C29.6183 16.2445 29.636 16.2517 29.6573 16.2553L29.6913 16.2645C29.7019 16.2681 29.7146 16.2702 29.7268 16.2753C29.7501 16.2825 29.7714 16.2917 29.7962 16.304C29.8089 16.3097 29.8195 16.3169 29.8337 16.3256C29.8535 16.3384 29.8712 16.3528 29.8854 16.3672C29.9123 16.3944 29.9335 16.4231 29.9477 16.4519C29.964 16.4863 29.9711 16.5165 29.9711 16.5489V16.5632C29.969 16.5833 29.9655 16.6028 29.9619 16.6192C29.9457 16.6731 29.9138 16.7275 29.8712 16.767C29.784 16.8409 29.6593 16.884 29.5281 16.884H19.7979C19.7518 16.884 19.7072 16.9056 19.6752 16.9451C19.6484 16.9775 19.6377 17.0118 19.6377 17.0534C19.6377 17.1417 19.7072 17.212 19.7943 17.212H28.5108C28.527 17.212 28.5463 17.212 28.5625 17.2136L28.6319 17.2315C28.6517 17.2387 28.671 17.2444 28.6907 17.2515L28.7034 17.2572C28.7176 17.2644 28.7338 17.27 28.7566 17.2844C28.7673 17.2916 28.7764 17.2972 28.7906 17.308C28.8012 17.3172 28.8119 17.326 28.8245 17.3388C28.8281 17.3408 28.8337 17.3496 28.8387 17.3552C28.8473 17.366 28.8565 17.3788 28.8656 17.3896C28.896 17.4327 28.9102 17.4815 28.9046 17.5338C28.9026 17.579 28.8884 17.6221 28.8636 17.6637C28.8544 17.6781 28.8474 17.6909 28.8352 17.7053C28.8296 17.7109 28.8261 17.7145 28.8174 17.7232C28.8103 17.7304 28.8033 17.7376 28.7926 17.7484C28.7749 17.7628 28.7551 17.7771 28.7429 17.7864L28.7252 17.7956C28.713 17.8028 28.7019 17.8084 28.6912 17.8136C28.6735 17.8228 28.6537 17.83 28.638 17.8351L28.5848 17.8531C28.5686 17.8567 28.5529 17.8587 28.5331 17.8623L28.5316 17.8603L28.5103 17.8639C28.4905 17.8675 28.4692 17.8695 28.45 17.8695H19.9753C19.8881 17.8695 19.8172 17.9414 19.8172 18.0297C19.8172 18.1195 19.8866 18.1898 19.9753 18.1898L27.6446 18.1877C27.8331 18.2237 27.9649 18.3551 27.9593 18.4993C27.9487 18.681 27.7368 18.836 27.4971 18.836L19.9505 18.8252C19.8597 18.8252 19.7867 18.8971 19.7867 18.9854C19.7867 19.0752 19.8597 19.1476 19.9505 19.1476H25.8037C25.8108 19.1496 25.8199 19.1532 25.8341 19.1583C25.8483 19.1604 25.8625 19.164 25.8893 19.1691C25.8964 19.1712 25.9055 19.1748 25.9283 19.1835L25.9638 19.1999C25.9765 19.2056 25.9851 19.2107 25.9978 19.2179C26.01 19.2251 26.0211 19.2323 26.0353 19.2451C26.0439 19.2523 26.053 19.2595 26.0622 19.2687L26.0834 19.2887C26.0921 19.2995 26.0997 19.3103 26.1068 19.321L26.1174 19.339C26.1265 19.3554 26.1351 19.3749 26.1407 19.4001C26.1428 19.4057 26.1443 19.4129 26.1443 19.4216C26.1463 19.4309 26.1478 19.4417 26.1478 19.4524V19.4668C26.1422 19.6182 26.0003 19.7512 25.8168 19.7912H25.7829C25.7738 19.7912 25.7651 19.7927 25.7454 19.7948L19.5774 19.7784C19.4887 19.7784 19.4172 19.8502 19.4172 19.9406C19.4172 20.0124 19.4618 20.0756 19.5257 20.0956C19.5526 20.1099 19.5774 20.1156 19.6022 20.1156H23.8208C23.83 20.1212 23.8406 20.1228 23.8492 20.1228C24.0428 20.1587 24.1746 20.2886 24.1696 20.4343C24.1625 20.5478 24.0773 20.6561 23.947 20.7171C23.8741 20.7443 23.8031 20.7587 23.7337 20.7587H20.1426L18.8389 20.7531C18.7502 20.7531 18.6772 20.8249 18.6772 20.9153C18.6772 20.9928 18.7304 21.0574 18.807 21.0739C18.8232 21.0795 18.8374 21.0795 18.8516 21.0795L21.1248 21.0852C21.1446 21.0852 21.1674 21.0852 21.1836 21.0872L21.2034 21.0929C21.3955 21.1237 21.5288 21.253 21.5182 21.4044C21.5182 21.4172 21.5182 21.4244 21.5161 21.4296C21.4786 21.5953 21.2723 21.7232 21.0503 21.7232H17.4988V20.3722L17.5307 20.3543C18.3898 19.8769 18.9236 18.973 18.9236 17.9983C18.9236 17.1391 18.5358 16.3538 17.8546 15.837C17.7872 15.7795 17.7512 15.7035 17.7547 15.6188C17.7654 15.4351 17.9717 15.2837 18.2155 15.2837H30.2706C30.4095 15.2837 30.5321 15.3304 30.6051 15.4115C30.6193 15.4279 30.632 15.4438 30.6426 15.4566C30.6482 15.4674 30.6533 15.4767 30.6589 15.4854V15.4997L30.6675 15.509C30.6695 15.5146 30.671 15.5198 30.6731 15.5254L30.6822 15.5685C30.6842 15.5778 30.6842 15.5921 30.6842 15.6065C30.6827 15.6075 30.6827 15.6111 30.6791 15.6204Z" fill="white"/>
<path d="M19.3747 22.3652C19.3656 22.5489 19.1593 22.6983 18.9139 22.6983H17.4983V22.0449L19.0315 22.0469L19.0599 22.0562C19.248 22.088 19.3818 22.2173 19.3747 22.3652Z" fill="white"/>
<path d="M13.5709 22.0449V22.6988H12.1036C11.9703 22.6988 11.8441 22.65 11.764 22.5689C11.7123 22.515 11.6875 22.4499 11.691 22.3801C11.6981 22.2271 11.8547 22.0885 12.059 22.0541C12.0681 22.0521 12.0767 22.0485 12.0858 22.0449H13.5709Z" fill="white"/>
<path d="M13.5712 20.3897V21.719H9.46258C9.32371 21.719 9.20307 21.6723 9.12806 21.5912C9.08193 21.5389 9.05862 21.4757 9.06419 21.4131C9.07686 21.2314 9.29025 21.0816 9.53709 21.0816H12.2158C12.303 21.0816 12.3775 21.0061 12.3775 20.9142C12.3775 20.828 12.303 20.7556 12.2138 20.7556L7.0915 20.7664C6.95819 20.7664 6.83199 20.7176 6.75342 20.6365C6.70172 20.5806 6.67537 20.5139 6.67891 20.4456C6.68449 20.305 6.82134 20.172 6.99013 20.1305H11.4773C11.566 20.1305 11.6375 20.0586 11.6375 19.9667C11.6375 19.8785 11.5666 19.8066 11.4773 19.8066L5.12235 19.7994C4.9855 19.7994 4.86284 19.7506 4.78428 19.6644C4.73258 19.6121 4.70774 19.5474 4.71332 19.4791C4.71686 19.4016 4.76147 19.3205 4.83445 19.261C4.87906 19.2286 4.9267 19.2014 4.98043 19.1835C5.00375 19.1742 5.02858 19.1691 5.05697 19.1635C5.0889 19.1563 5.12438 19.1527 5.16543 19.1527H11.1307C11.2214 19.1527 11.2944 19.0808 11.2944 18.9925C11.2944 18.9027 11.2214 18.8304 11.1307 18.8304L3.50598 18.8339C3.37065 18.8339 3.24647 18.7852 3.16993 18.7025C3.11671 18.643 3.08985 18.5799 3.09339 18.5173C3.10201 18.3622 3.25711 18.2237 3.44566 18.1877L11.0881 18.1841C11.1753 18.1841 11.2447 18.1138 11.2447 18.0276C11.2447 17.9378 11.1753 17.8675 11.0881 17.8675H2.68639C2.61695 17.8675 2.55105 17.8546 2.49226 17.8295C2.46033 17.8187 2.43346 17.8043 2.41218 17.79C2.38734 17.772 2.36605 17.7556 2.34831 17.7376C2.3108 17.696 2.26823 17.6329 2.27735 17.5559C2.27735 17.5287 2.2809 17.5107 2.29002 17.4805C2.29002 17.4784 2.29205 17.4712 2.30067 17.4553C2.31131 17.4373 2.32195 17.4158 2.33463 17.4014L2.34882 17.385L2.36301 17.3706C2.37923 17.3506 2.39697 17.3362 2.42535 17.3183C2.43093 17.3147 2.436 17.309 2.45222 17.3003C2.46489 17.2911 2.4806 17.2823 2.50392 17.2731C2.52166 17.2638 2.5394 17.2567 2.56423 17.2515C2.57133 17.2495 2.57843 17.2459 2.59819 17.2423C2.61441 17.2366 2.63215 17.2331 2.64077 17.2315L4.52071 17.2259L11.267 17.2238C11.3486 17.2238 11.4201 17.1591 11.4272 17.0688L11.4292 17.0452C11.4292 16.9554 11.3582 16.883 11.2675 16.883L4.58711 16.901L4.06403 16.903L1.57383 16.8994C1.47398 16.8994 1.37818 16.8743 1.30367 16.8255C1.28593 16.8147 1.26972 16.8004 1.25045 16.7788C1.2094 16.7336 1.18456 16.6833 1.18101 16.6223C1.17899 16.6166 1.17747 16.6079 1.17899 16.5863C1.17899 16.5771 1.18101 16.5663 1.18254 16.5576C1.18406 16.5504 1.18608 16.5412 1.18963 16.5268C1.19318 16.516 1.1947 16.5104 1.19673 16.5052L1.20585 16.4873C1.21497 16.4708 1.22359 16.4529 1.23626 16.437C1.24539 16.4241 1.25603 16.4118 1.27022 16.399C1.28289 16.3862 1.29709 16.3718 1.31635 16.3574C1.32902 16.3466 1.34473 16.3374 1.36805 16.3251C1.38427 16.3143 1.40201 16.3051 1.41772 16.2999C1.43749 16.2927 1.45877 16.2835 1.48513 16.2784C1.5049 16.2727 1.52416 16.2676 1.55102 16.264C1.56015 16.2604 1.56876 16.2604 1.58498 16.2604L1.60627 16.2568C1.61691 16.2568 1.62604 16.2553 1.63668 16.2553H11.7424C11.8311 16.2553 11.9006 16.185 11.9006 16.0951C11.9006 16.0053 11.8311 15.935 11.7424 15.935H0.731431C0.598127 15.935 0.471919 15.8862 0.393356 15.8036C0.380684 15.7908 0.37004 15.7764 0.361424 15.7605C0.348752 15.7441 0.343684 15.7333 0.336588 15.7138C0.33304 15.7081 0.331012 15.7009 0.329492 15.6958L0.331519 15.6938L0.322396 15.6547C0.318848 15.644 0.318848 15.6347 0.318848 15.6188C0.318848 15.6044 0.320875 15.5916 0.324423 15.5721C0.326451 15.5649 0.327971 15.5593 0.333547 15.5434C0.337095 15.5305 0.344191 15.5162 0.351287 15.5018L0.367506 15.4766C0.392342 15.4371 0.426302 15.4027 0.478001 15.3704C0.48307 15.3647 0.488645 15.3612 0.502837 15.354C0.515509 15.3468 0.527674 15.3396 0.547441 15.3288C0.561633 15.3216 0.579373 15.316 0.607757 15.3073C0.614853 15.3037 0.620429 15.3016 0.636141 15.3001C0.652361 15.2944 0.670101 15.2908 0.691389 15.2872C0.714705 15.2816 0.743089 15.2801 0.780089 15.2801H12.9026C13.0415 15.2801 13.1621 15.3268 13.2422 15.4099C13.2939 15.4638 13.3188 15.5269 13.3152 15.5952C13.3117 15.6743 13.2726 15.7518 13.2118 15.8077C12.5184 16.3102 12.1038 17.1278 12.1038 17.9942C12.1038 18.992 12.6553 19.9036 13.5408 20.3732L13.5712 20.3897Z" fill="white"/>
<path d="M19.1593 30.1244L18.6489 30.3245L18.2256 29.6599V29.6578L18.0761 29.4217L17.7684 28.9392L17.7188 28.8581L17.5054 28.525C17.5018 28.2479 17.5018 27.9486 17.4983 27.6391V25.139L17.957 26.5151L17.9854 26.6013L19.1593 30.1244Z" fill="white"/>
<path d="M13.5713 25.1749V28.5358L13.3558 28.8725L13.3062 28.9521L12.6944 29.9098L12.5378 30.1567V30.1588L12.4308 30.324L11.9204 30.1244L13.0892 26.6177L13.1176 26.533L13.5713 25.1749Z" fill="white"/>
<path d="M17.1849 24.1504C17.1743 24.2602 17.1743 24.4568 17.1743 24.8402C17.1778 25.258 17.1778 25.8072 17.1814 26.3621V26.7562C17.1834 27.0698 17.1849 27.3722 17.1849 27.6386V28.3915H13.8908C13.8908 28.2817 13.8908 28.1215 13.8929 27.927C13.8929 27.8172 13.8949 27.6909 13.8949 27.5559C13.8949 27.464 13.8969 27.3706 13.8969 27.2716C13.899 27.1905 13.899 27.1094 13.899 27.0247C13.899 26.94 13.9005 26.8553 13.9005 26.7691V26.6793C13.9005 26.5745 13.9025 26.4683 13.9025 26.3621C13.9025 25.8072 13.9061 25.258 13.9061 24.8402C13.9061 24.3613 13.9061 24.1683 13.8848 24.0836V13.3311C13.8848 13.2608 13.899 13.1941 13.9294 13.1387L14.5482 11.8904C14.5645 11.8632 14.5837 11.8437 14.6086 11.8344C14.7312 11.9499 14.9963 12.0685 15.5762 12.0685C16.0886 12.0685 16.339 11.9422 16.4545 11.8344C16.4794 11.8437 16.5027 11.8632 16.5169 11.8904L17.1413 13.1387C17.1717 13.1946 17.1859 13.2613 17.1859 13.3311V24.1504H17.1849Z" fill="white"/>
<path d="M16.2478 2.75883V11.5876C16.2103 11.6328 16.0613 11.7534 15.5757 11.7534C15.0121 11.7534 14.8555 11.6271 14.8215 11.5932V2.76243C14.8215 2.72291 14.8286 2.68133 14.8448 2.64694L15.5494 1.03476L16.225 2.64694C16.2407 2.68133 16.2478 2.71931 16.2478 2.75883Z" fill="white"/>
</svg>
